<svg width="60" height="59" viewBox="0 0 60 59" fill="none" xmlns="http://www.w3.org/2000/svg">
<path d="M28.7671 0.0409815C28.653 0.0461384 28.2229 0.0822366 27.8083 0.113178C22.6259 0.494788 17.3709 2.40284 13.0643 5.46603C11.6392 6.47678 10.5146 7.42565 9.26044 8.67362C2.0517 15.852 -0.917819 26.1245 1.33653 36.1031C2.259 40.1977 4.22832 44.3181 6.84026 47.6288C10.9395 52.8321 16.5573 56.4986 22.8591 58.087C25.4244 58.7367 27.5544 58.9997 30.244 58.9997C32.8974 58.9997 34.8512 58.7625 37.3802 58.1488C41.0131 57.2619 44.2055 55.8025 47.3978 53.5798C50.4555 51.4449 53.3006 48.4539 55.3425 45.2308C57.9751 41.0641 59.4729 36.4641 59.8408 31.4155C59.9185 30.3532 59.8719 27.7232 59.7579 26.6402C59.5299 24.4898 58.9494 21.6535 58.6126 21.0605C58.4778 20.8284 58.0995 20.5293 57.8197 20.4313C57.7212 20.4004 57.5035 20.3746 57.3273 20.3746C56.55 20.3746 55.897 21.0192 55.897 21.7773C55.897 21.9578 55.9799 22.391 56.0991 22.8602C57.1252 26.831 57.2081 31.1938 56.3323 35.1749C55.2129 40.2751 52.715 44.7719 48.9474 48.459C47.1905 50.1763 45.4959 51.4449 43.3037 52.6928C38.1887 55.6065 31.8299 56.7101 25.8649 55.7199C21.3355 54.9722 17.402 53.2395 13.6655 50.3465C11.9087 48.985 9.76832 46.7418 8.44162 44.8647C6.15099 41.6262 4.71028 38.2123 3.96402 34.2466C3.5857 32.2251 3.45614 29.5436 3.63234 27.3622C3.90183 24.0515 4.7362 20.978 6.15099 18.0643C6.80398 16.7081 7.20821 16.0016 7.99075 14.8309C9.58694 12.4278 11.7014 10.1794 14.0386 8.39515C16.7801 6.29629 20.0347 4.70281 23.3255 3.84677C25.1031 3.38265 26.5231 3.15059 28.3265 3.02167C34.8512 2.55754 41.1945 4.42434 46.3614 8.33842C46.7449 8.62721 47.1491 8.94178 47.2579 9.03976L47.4548 9.20994L47.3771 9.42652C46.9781 10.5404 47.2735 11.9276 48.113 12.8971C48.5431 13.3922 49.3205 13.8563 49.9787 14.011C50.4295 14.1193 51.2121 14.1193 51.6681 14.011C52.8238 13.7377 53.9018 12.7527 54.2438 11.6595C54.6273 10.4373 54.4045 9.23056 53.6167 8.25075C52.7461 7.16781 51.2484 6.68306 49.8647 7.04404L49.5641 7.12139L49.1391 6.77072C47.4134 5.33195 45.3249 4.00147 43.1275 2.94431C39.562 1.22707 35.981 0.303983 31.9024 0.0564522C31.1199 0.0100401 29.2697 -0.00027362 28.7671 0.0409815Z" fill="black"/>
<path d="M25.6991 17.0073C25.1498 18.4203 23.9578 21.5144 23.0405 23.8814C22.1232 26.2485 20.242 31.1114 18.8583 34.6851C17.4798 38.2589 16.3345 41.1983 16.3241 41.2189C16.3086 41.2447 17.7648 41.2602 19.5527 41.2602H22.8125L23.0042 40.729C23.1131 40.4402 23.4966 39.4192 23.8541 38.46L24.5071 36.7221H29.3993C33.2965 36.7221 34.2915 36.7066 34.276 36.6551C34.2242 36.5158 33.4261 34.2468 33.0011 33.0349L32.5451 31.7457L29.3061 31.7199L26.0722 31.6941L28.1763 25.9236C29.4408 22.4581 30.2959 20.1891 30.3114 20.2407C30.3322 20.2871 31.1717 22.6644 32.1823 25.5213C33.1929 28.3783 34.8616 33.0813 35.8877 35.9744L37.7482 41.2344L40.9924 41.2499C42.7752 41.255 44.2366 41.2499 44.2366 41.2395C44.2366 41.2292 43.8168 40.1308 43.2986 38.8055C42.7803 37.475 41.6713 34.6129 40.8317 32.4419C39.9922 30.2708 39.049 27.8368 38.7329 27.0272C38.4219 26.2175 37.8778 24.8148 37.5254 23.9072C37.173 22.9996 36.2557 20.6223 35.4783 18.6214C34.7009 16.6205 34.0221 14.862 33.965 14.7125L33.8666 14.4443H26.6889L25.6991 17.0073Z" fill="black"/>
</svg>
