<svg width="65" height="56" viewBox="0 0 65 56" fill="none" xmlns="http://www.w3.org/2000/svg">
<g filter="url(#filter0_d)">
<g clip-path="url(#clip0)">
<path fill-rule="evenodd" clip-rule="evenodd" d="M15.1507 18.4197C13.6476 19.2839 12.7707 19.4073 11.1422 18.5431C10.7665 19.1604 9.88959 19.6542 9.138 19.6542C9.88959 19.9012 10.5159 19.9012 11.1422 19.2839C11.017 19.6542 10.3907 19.9012 10.0149 20.0246C10.2654 20.0246 10.3907 20.1481 10.6412 20.1481C11.1422 20.1481 11.518 19.9012 11.7686 19.5308C11.6433 19.9012 11.3928 20.1481 11.017 20.2715C11.1422 20.2715 11.3928 20.2715 11.518 20.395C12.1444 20.2715 12.2696 20.0246 12.5202 19.7777C12.3949 20.1481 12.1444 20.2715 11.8938 20.395C12.0191 20.395 12.2696 20.395 12.3949 20.395C12.7707 20.2715 13.1465 19.9012 13.2718 19.5308C13.2718 19.9012 13.0212 20.1481 12.7707 20.395C12.896 20.395 13.0212 20.395 13.1465 20.2715C13.397 20.1481 13.5223 20.0246 13.6476 19.7777C13.6476 19.9012 13.5223 20.0246 13.397 20.1481C14.1486 19.9012 14.7749 19.4073 15.1507 18.4197Z" fill="#D72B7B"/>
<path fill-rule="evenodd" clip-rule="evenodd" d="M9.88956 5.33325C9.88956 5.33325 8.51164 15.5802 19.0339 22.2468C33.69 31.5061 29.3057 48.2962 14.2738 51.9999C21.7898 52.2468 36.5711 43.111 32.3121 28.79C28.5541 15.9505 17.2802 20.2715 9.88956 5.33325Z" fill="#D72B7B"/>
<path fill-rule="evenodd" clip-rule="evenodd" d="M12.1443 5.33325C18.6581 21.9999 46.0913 13.6049 38.8259 38.6666C55.6114 13.4814 18.2824 15.3333 12.1443 5.33325Z" fill="#D72B7B"/>
<path fill-rule="evenodd" clip-rule="evenodd" d="M15.1507 3.97524C29.3057 -6.02476 49.5987 27.0617 62 15.3333C62 15.3333 57.9915 25.2098 43.2101 17.6789C28.4288 10.0246 24.6709 1.38265 15.1507 3.97524Z" fill="#D72B7B"/>
<path d="M26.2993 41.1357C25.9235 40.1481 22.6666 34.8394 15.6518 37.0616H15.5265C14.3991 37.432 12.1444 37.8024 10.3906 37.8024C9.01272 37.8024 7.88533 37.5555 7.259 36.8147C7.00847 36.5678 6.8832 36.1974 6.75794 35.9505C6.75794 35.5802 6.75794 35.3332 6.75794 34.9629C6.75794 33.8518 6.8832 33.2345 6.8832 32.9876C6.63267 32.8641 6.38214 32.7406 6.13161 32.4937C5.75582 32.2468 5.50529 31.8764 5.38002 31.3826V31.2592V31.1357C5.50529 30.6419 5.63055 30.395 5.88108 30.1481C5.38002 29.7777 4.87896 29.2839 4.87896 28.9135C4.75369 28.1727 5.25475 27.8024 5.63055 27.3085C5.75582 27.1851 5.88108 27.1851 5.88108 27.0616C5.88108 26.9382 5.50529 26.9382 5.00422 26.6913C4.12737 26.1974 3.25051 25.5802 2.99998 24.9629C2.49892 23.7283 3.50104 22.8641 3.50104 22.8641C3.50104 22.8641 7.88533 19.4073 7.76006 18.1727C7.6348 17.432 7.6348 16.6913 7.50953 16.074C7.259 14.716 7.13374 13.4814 7.259 11.6295C7.76006 9.40732 8.38639 7.43201 9.38851 5.70361C8.51166 9.40732 8.26112 12.3703 8.88745 15.9505C9.01272 16.5678 9.13798 17.3086 9.13798 18.1727C9.26325 20.0246 4.62843 23.7283 4.3779 23.8518C4.3779 23.8518 4.12737 24.0987 4.25263 24.469C4.3779 24.716 5.12949 25.2098 5.75582 25.5802C6.50741 26.074 7.259 26.4444 7.259 26.9382C7.259 27.432 6.88321 27.6789 6.63267 28.0493C6.38214 28.2962 6.13161 28.5431 6.13161 28.5431C6.13161 29.5308 7.50953 29.7777 8.01059 30.2715C6.75794 30.0246 6.75794 30.8888 6.75794 31.0123C6.75794 31.1357 6.8832 31.2592 7.00847 31.3826C7.259 31.5061 7.50953 31.753 7.76006 31.8765C8.38639 32.1234 8.38639 32.3703 8.26112 32.9876C8.26112 33.2345 8.13586 33.8518 8.13586 34.9629C8.13586 35.2098 8.13586 35.4567 8.26112 35.5802C8.26112 35.8271 8.38639 35.9505 8.51166 36.1974C8.76219 36.5678 9.51378 36.6913 10.5159 36.6913C12.1444 36.6913 14.1486 36.3209 15.276 35.9505C15.276 35.9505 15.276 35.9505 15.4013 35.9505C23.293 33.3579 26.1741 40.1481 26.2993 41.1357Z" fill="#D72B7B"/>
</g>
</g>
<defs>
<filter id="filter0_d" x="0" y="0" width="65" height="56" filterUnits="userSpaceOnUse" color-interpolation-filters="sRGB">
<feFlood flood-opacity="0" result="BackgroundImageFix"/>
<feColorMatrix in="SourceAlpha" type="matrix" values="0 0 0 0 0 0 0 0 0 0 0 0 0 0 0 0 0 0 127 0"/>
<feOffset dy="1"/>
<feGaussianBlur stdDeviation="1.5"/>
<feColorMatrix type="matrix" values="0 0 0 0 0.843137 0 0 0 0 0.168627 0 0 0 0 0.482353 0 0 0 0.57 0"/>
<feBlend mode="normal" in2="BackgroundImageFix" result="effect1_dropShadow"/>
<feBlend mode="normal" in="SourceGraphic" in2="effect1_dropShadow" result="shape"/>
</filter>
<clipPath id="clip0">
<rect x="3" y="2" width="59" height="50" fill="white"/>
</clipPath>
</defs>
</svg>
