<svg width="91" height="121" viewBox="0 0 91 121" fill="none" xmlns="http://www.w3.org/2000/svg">
<g filter="url(#filter0_i)">
<path d="M59.454 59.2184C60.1527 58.1915 58.8612 57.2267 57.9564 57.078C58.2734 56.3849 56.3658 51.2484 53.4769 48.9422C52.7455 48.356 53.0738 47.5142 52.5301 46.6843C52.2345 46.2345 51.7622 45.6327 51.6336 45.1234C51.5342 44.7169 51.7474 44.2713 51.6403 43.9292C51.436 43.3141 50.5982 42.2057 49.8673 42.1133C50.347 41.4831 50.4108 40.7124 50.2331 39.9621C49.8596 39.273 49.495 38.5862 49.1368 37.9107C49.0476 37.8203 48.9672 37.7322 48.8732 37.6594C48.0139 36.9154 47.8951 36.4752 47.1899 36.0385C46.4278 35.5675 46.6614 35.7538 46.3928 34.8841C46.2061 34.2738 45.9699 33.7071 45.6098 33.145C45.17 32.457 45.2515 32.0803 45.0631 31.441C44.7277 30.3255 43.3692 29.7888 43.0789 28.8943C43.0116 28.6863 43.4486 28.3578 43.4276 28.1528C43.3964 27.7742 43.2963 27.4056 43.134 27.0581C43.0015 26.7756 42.6379 26.6872 42.5484 26.3498C42.4718 26.0349 42.6796 25.7871 42.7134 25.483C37.596 15.2769 34.6079 8.59639 34.6079 8.59639C34.6079 8.59639 37.101 12.068 41.0602 17.9754C41.0626 17.9665 41.0673 17.9488 41.0697 17.94C41.0738 17.96 41.0779 17.9801 41.0731 17.9978C41.6538 18.8661 42.2691 19.7817 42.9078 20.7511C43.1863 20.7692 43.4996 20.6922 43.7363 20.8318C44.3018 21.155 44.1671 21.2706 44.5528 22.0199C44.6592 22.0106 44.6998 21.9646 44.8109 21.9375C45.373 22.592 46.0349 23.3683 46.3788 24.2393C46.7056 25.0677 46.6317 26.4432 47.781 26.5249C48.3687 27.3666 48.7566 28.781 49.3371 29.7917C49.8273 30.6451 49.9793 30.8189 50.6116 31.2455C51.0514 31.5443 51.7586 31.7252 52.0513 32.2217C52.4084 32.8305 52.0903 33.4567 52.623 34.1508C53.2466 34.9642 53.6281 34.915 53.966 35.8793C54.4701 37.3535 54.9788 38.9524 56.0167 40.2665C56.4543 40.821 57.1326 41.1461 57.4949 41.8417C57.7781 42.3736 57.6773 43.1058 58.1167 43.6893C59.3631 43.6547 59.2851 45.9309 59.3108 47.0389C60.0919 48.3599 60.8659 49.7074 61.6552 51.0686C62.8771 51.8343 63.2477 52.4277 64.0886 53.8786C64.4715 54.5323 64.4629 54.3876 64.5715 54.901C64.6352 55.1934 64.4269 55.479 64.4817 55.7691C64.5868 56.3669 65.3738 57.2054 65.7811 57.5903C66.0382 57.8304 66.2928 57.6902 66.6202 58.0916C67.0256 58.59 66.9688 58.9449 67.0439 59.4777C67.0894 59.8032 66.9661 60.1592 67.0778 60.6259C67.09 60.6862 67.1047 60.7376 67.1281 60.7913C67.7895 61.9946 68.4356 63.1843 69.0664 64.3604C69.6758 64.8377 70.2987 65.2997 70.6493 65.8973C71.0258 66.5397 70.9546 67.0901 71.388 67.7669C71.7329 68.3154 72.3732 68.9245 72.7763 69.4317C72.6546 70.4905 73.9608 71.5068 74.5337 72.4394C74.9951 72.3738 75.3803 72.6294 75.6559 73.0834C75.2056 73.674 75.6251 74.2616 75.9186 74.9672C76.3568 76.0154 76.4773 77.0161 76.8368 78.0052C77.4711 79.7708 79.0941 81.1571 78.7975 83.0136C78.7212 82.9456 78.6472 82.8688 78.5821 82.7943C82.704 91.1375 85.0563 96.4128 85.0563 96.4128C85.0563 96.4128 81.1576 90.9869 75.371 82.1574C75.1906 82.0898 74.9626 82.0949 74.6599 82.2032C74.0159 81.6786 73.806 80.3405 72.8518 80.2355C73.585 79.3982 72.4334 78.7939 72.1146 78.1479C71.9788 78.1968 71.8847 78.2664 71.7577 78.3176C71.3888 77.7532 71.195 77.1694 70.9124 76.5997C70.5209 75.8013 69.8443 75.5052 69.3772 74.9902C68.8232 74.3759 68.827 73.2283 67.9702 72.3331C68.1979 72.0812 68.3482 71.6945 68.4128 71.2752C67.8978 70.4436 67.3677 69.5984 66.8399 68.7443C66.3769 68.6387 65.8923 68.5082 65.5069 68.0057C65.156 67.5505 64.9393 67.0175 64.5119 66.6366C64.1151 66.283 63.2914 66.1846 63.0274 65.8287C62.5012 65.1459 62.4537 63.6238 61.9482 62.7568C61.2445 61.5706 60.7006 59.9622 59.454 59.2184Z" fill="white"/>
<path d="M47.4151 74.2027C45.4849 71.9121 44.7801 69.6485 43.0342 66.631C42.1515 65.1055 41.3666 63.0002 40.2116 61.7138C39.1002 60.4771 38.179 59.8786 37.5362 58.1999C37.9649 58.1922 38.2425 57.8977 38.581 57.8373C37.527 57.0611 35.8522 53.1727 35.6075 51.6011C35.6228 51.6147 36.0688 52.0757 36.1236 52.1189C34.8277 50.8987 34.3789 48.884 33.0211 47.7892C32.8094 47.8363 32.6544 47.9556 32.4469 48.0228C31.5407 46.7277 32.406 45.9001 32.1043 44.7204C31.8486 43.7235 30.7154 42.3199 30.1667 41.4619C30.0565 41.6974 29.9234 41.9835 29.8244 42.2125C28.1175 41.1469 28.3217 39.7056 27.6518 38.0575C27.0139 36.5032 25.5528 35.1912 24.9833 33.8068C24.5212 32.6596 24.5147 30.906 24.1309 29.4296C23.8052 28.8021 23.4883 28.177 23.1691 27.5608C22.7338 27.1311 22.134 26.8559 21.2931 26.8094C21.4499 26.577 21.5217 26.2365 21.7345 25.9718C20.9645 24.4861 20.0229 23.0394 19.2617 21.556C19.5582 21.3329 19.6979 21.058 19.7225 20.7521C13.4005 8.1219 9.75419 0 9.75419 0C9.75419 0 14.882 7.08149 22.5699 18.678C23.0277 19.2369 23.4854 19.7958 23.9874 20.2245C24.8686 20.9732 25.4057 20.8432 26.1662 22.0802C26.9008 23.2723 27.2117 27.3332 28.7396 25.8697C29.8211 27.6097 30.7358 29.7973 31.97 31.427C33.0342 32.8404 34.9088 33.099 35.6535 34.6442C35.4265 34.6778 35.1854 34.7644 34.9937 34.8075C36.3809 37.3211 36.0332 39.4433 37.9197 41.8263C37.9509 41.5317 38.0304 41.269 38.1429 41.0247C39.1724 44.1333 41.6932 45.8443 42.818 48.524C43.5226 50.2194 43.8428 51.9344 44.4396 53.5723C44.7989 54.1804 45.1647 54.7998 45.5305 55.4191C45.669 55.3617 45.8164 55.3067 45.9396 55.2357C46.3964 56.2962 47.277 56.9405 48.2128 57.0221C48.1077 58.3763 48.6374 60.6212 49.6503 61.9072C49.7305 61.7488 49.7947 61.4726 49.8636 61.3207C50.5833 62.3194 51.1233 63.4591 51.6967 64.4374C52.4502 65.7008 53.0078 66.8453 53.5301 68.1223C54.4165 70.2738 55.2882 70.6317 56.6617 73.0185C57.2458 74.0281 58.0822 74.8026 58.654 75.7519C59.5266 77.2085 59.2242 77.5248 59.5213 78.8642C60.0829 81.3449 60.7465 81.9498 62.1464 83.9176C63.0419 85.1815 63.1144 88.288 64.5827 88.5414C65.0506 89.4534 65.8764 90.1966 66.2624 91.0959C66.479 91.5993 66.4469 92.5376 66.7313 93.2487C67.3469 94.8159 68.8496 97.1808 69.9514 98.1688C69.7298 98.5731 69.5501 98.9982 69.3858 99.4369C75.9627 112.533 79.7636 121 79.7636 121C79.7636 121 74.9532 114.364 67.6795 103.419C67.606 104.156 67.6163 104.936 67.6307 105.593C66.9731 103.437 65.4981 102.746 63.9869 101.231C61.9353 99.1824 61.6235 96.1913 60.0529 93.4767C57.5866 89.2142 54.0657 85.6714 51.2846 81.5229C50.2946 80.0443 49.7789 80.5209 49.5583 78.6812C49.3401 77.1168 48.6037 75.6117 47.4151 74.2027Z" fill="white"/>
<path d="M26.6612 68.8243C26.5373 68.0937 26.1752 67.5533 25.7539 66.7426C25.2367 65.7647 23.9921 61.538 23.1299 62.135C22.3278 60.8542 21.7138 60.2743 20.6109 59.77C20.1982 59.103 20.4178 58.4554 20.1603 57.6982C19.9511 57.0765 19.5364 56.6633 19.1948 56.0813C18.6355 55.1204 18.7271 54.6362 18.5498 53.6839C18.3319 52.5322 18.0524 52.1743 17.3491 51.1557C15.9473 49.101 14.8773 47.032 13.9572 44.928C13.46 43.8047 12.9878 43.1499 12.7629 42.0245C12.5038 40.711 12.4261 40.3697 11.6624 39.1558C11.1106 38.2723 10.3561 37.1645 9.91158 36.3004C9.49907 35.4921 9.27491 34.7156 8.71328 33.7634C7.98285 32.5303 8.02334 32.3433 7.79502 31.1605C4.65988 24.8135 2.89452 20.993 2.89452 20.993C2.89452 20.993 5.84567 25.2176 10.5033 32.3233C10.6148 32.2214 10.7654 32.1488 10.9765 32.1303C11.0368 32.4669 11.059 32.8404 11.0837 33.2051C11.5034 33.8458 11.9271 34.5064 12.3748 35.1829C13.2132 35.8704 14.3355 36.2668 14.9647 37.2466C15.5468 38.1572 15.7945 39.7597 16.6547 40.7169C17.0665 41.1764 17.6251 41.2609 17.9038 41.7977C18.2866 42.5415 17.9956 43.0002 18.3471 43.6508C18.5473 44.0251 19.26 44.4809 19.5931 44.9192C20.0164 45.476 20.3649 46.1729 20.7496 46.8042C21.5359 48.109 22.463 49.2726 23.2352 50.6301C24.1891 52.2909 24.4068 53.5839 24.8813 55.144C25.0245 55.3804 25.1741 55.628 25.3173 55.8644C25.5053 55.6512 25.7617 55.4281 25.8512 55.1978C26.269 55.9511 26.859 57.0428 27.6213 57.0314C28.3399 57.9222 28.4339 59.2572 28.9039 60.3072C29.2639 61.1014 29.6739 62.0598 30.2131 62.7798C30.694 63.437 31.2045 63.7723 31.5681 64.4827C31.923 65.1908 31.9222 66.2836 32.4463 66.99C32.6611 67.274 33.1392 66.9222 33.318 67.1306C33.6261 67.4868 33.6848 68.181 33.8819 68.6016C34.2147 69.3225 34.66 70.0078 35.0569 70.6989C35.7227 71.8581 36.3249 72.482 36.8461 73.6211C37.3335 74.6758 38.0731 75.6288 38.6864 76.7739C39.2549 77.8409 39.4156 78.9961 39.8795 80.1387C40.272 81.0924 40.6377 82.0766 41.2227 82.9408C41.8294 83.8297 42.6804 84.6808 43.285 85.8235C44.1985 87.5301 44.3162 89.0222 44.8765 90.5771C45.1872 91.1696 45.4915 91.7509 45.7982 92.3235C47.8914 92.84 48.594 97.1658 50.1562 98.8302C49.5735 99.7852 50.978 100.635 51.2319 101.476C51.319 101.782 51.1416 102.271 51.1516 102.726C55.8106 111.971 58.5171 117.816 58.5171 117.816C58.5171 117.816 56.0055 114.228 51.9684 108.1C50.9791 107.24 50.2794 106.138 49.3125 105.123C48.4621 104.235 48.0539 104.219 47.4427 103.207C47.0883 102.602 46.9761 101.828 46.5197 101.149C46.1384 100.575 45.5249 99.5713 45.0765 99.0736C44.7509 98.7127 44.095 98.536 43.8242 98.1804C43.2763 97.4581 43.4994 96.7267 43.2057 96.0351C42.9161 95.3635 42.2586 94.6305 41.8523 93.9746C40.2092 91.2425 38.7747 89.1695 37.1377 86.7311C36.1713 85.293 36.0067 83.9767 35.3432 82.4223C34.5017 80.4808 33.5849 80.4035 32.6282 79.1753C31.5597 77.804 30.4256 76.1512 29.562 74.6089C29.0057 73.6016 28.3313 71.3847 27.2053 71.2134C26.4417 70.3859 26.8257 69.7543 26.6612 68.8243Z" fill="white"/>
<path d="M19.8076 83.3374C19.4066 82.6787 18.6291 82.156 18.3392 81.6127C18.0986 81.1681 18.1809 80.6111 17.9751 80.0714C17.6097 79.1375 16.8991 78.1865 16.4697 77.2448C16.1535 76.552 16.0511 76.0497 15.4495 75.4699C14.8937 74.9309 14.4562 73.2749 13.8288 73.1819C13.5778 72.5636 13.5477 72.1093 13.1986 71.3981C12.7784 70.5633 12.5615 69.8877 12.1743 69.0713C11.8363 68.3536 11.2936 67.6948 10.9409 67.0681C10.5494 66.3739 10.4042 65.7841 9.9791 65.1095C9.53878 64.4212 9.18665 64.2884 8.92806 63.5921C8.80726 63.2652 8.97403 62.9588 8.84095 62.5716C8.72252 62.2359 8.36314 61.7403 8.17589 61.4146C8.00156 61.1112 7.68975 60.6855 7.57541 60.3698C7.43761 60.0004 7.55618 59.662 7.43365 59.3062C7.16277 58.5496 6.54403 58.0697 6.1919 57.4051C5.96008 56.9629 5.94809 56.6179 5.71218 56.1555C5.48918 55.7157 5.24761 55.5937 5.07988 55.1592C4.77435 54.3553 5.18426 53.8105 4.34189 52.9285C4.40787 52.8229 4.43212 52.6965 4.43873 52.5653C1.61832 47.0488 0 43.6886 0 43.6886C0 43.6886 1.69453 46.1958 4.48387 50.5171C5.00845 51.0666 5.69127 51.5543 6.06167 52.1858C7.34089 53.1664 7.61024 55.3469 9.00913 56.0559C9.02883 56.8683 9.54836 57.1886 9.91703 57.7911C10.1994 58.2564 10.4087 58.854 10.7756 59.4276C11.1103 59.945 11.5851 60.2912 11.8909 60.8103C12.2267 61.3945 12.2215 61.8394 12.4932 62.4157C12.6985 62.8508 13.1837 63.3708 13.4319 63.8934C13.7077 64.4899 13.7167 64.8816 14.1242 65.4091C14.4666 65.8621 14.8269 66.0351 15.2057 66.5644C15.5433 67.0351 15.995 67.5745 16.2616 67.9217C16.5693 68.3274 16.825 68.9279 17.1932 69.4259C17.5896 69.9599 17.7145 70.3069 18.1548 70.9951C18.6169 71.7083 18.4117 72.1942 18.8497 72.8914C19.0957 73.2804 19.3916 73.1987 19.6916 73.6688C19.8642 73.9431 20.0796 74.8367 20.4336 75.3878C20.9732 76.2357 21.3979 76.6634 21.8211 77.4515C22.5301 78.7629 23.2802 79.601 23.8221 80.9718C24.113 81.7243 24.2988 82.2681 24.8627 82.8472C25.2939 83.2861 25.7092 83.2176 26.0753 83.9713C25.3716 84.342 26.7966 85.8747 27.147 86.5102C27.7146 87.5366 27.7057 88.2083 28.2614 89.279C28.4868 89.71 28.6677 90.4139 28.8526 90.7485C29.1907 91.3238 29.7662 91.6117 30.1191 92.0961C30.4285 92.5307 30.5961 93.1075 30.8938 93.5865C31.2043 94.0879 31.5909 94.4104 31.845 94.982C31.7779 95.0209 31.7102 95.0976 31.6407 95.1454C31.7492 95.412 31.9881 95.8277 32.1637 96.0554C32.6428 96.2793 32.4557 96.8746 32.6041 97.2753C32.8293 97.8487 33.3513 98.5495 33.6389 99.1017C33.4329 99.7678 34.5581 100.156 34.3813 101.068C35.2022 101.64 35.7202 103.384 36.3142 104.418C36.7146 105.114 37.9171 106.312 37.5324 106.939C37.803 107.449 38.1441 107.977 37.8891 108.26C38.0447 108.492 38.0798 108.644 38.2696 108.818C38.3561 109.345 38.7495 109.394 38.9323 109.984C38.968 110.098 38.9614 110.229 38.9413 110.376C41.605 115.594 43.1183 118.745 43.1183 118.745C43.1183 118.745 40.4943 114.867 36.4175 108.462C36.0383 108.36 35.9871 107.843 35.6482 107.448C35.3028 107.041 34.895 106.799 34.5913 106.413C34.3071 106.061 34.268 105.747 33.8433 105.319C33.5079 104.982 33.2559 104.686 32.8831 104.595C32.9102 104.033 32.2488 102.791 31.9866 102.179C31.8247 101.794 31.5859 101.236 31.3281 100.891C30.9881 100.429 30.5894 100.436 30.3245 100.118C30.0508 99.7971 30.0306 99.4118 29.8276 98.9679C29.6012 98.4701 29.3785 98.2772 29.1366 97.9083C28.5641 97.042 28.3069 96.1277 27.6904 95.2495C27.4027 94.8397 26.9507 94.5851 26.7299 94.2787C26.4076 93.8216 26.5613 93.6351 26.3171 93.1326C25.9938 92.4664 25.4549 92.1124 25.1181 91.4614C24.8757 90.9879 24.9779 90.5692 24.5111 89.8738C24.1459 89.3291 23.6806 88.9475 23.2935 88.5204C22.6303 87.7816 22.7473 87.8036 22.2744 86.8122C21.8467 85.8995 21.512 85.9138 20.9704 85.3217C20.4054 84.6758 20.2391 84.0233 19.8076 83.3374Z" fill="white"/>
<path d="M73.2398 54.6852C72.9424 54.1062 72.2663 53.6417 72.0468 53.1589C71.8788 52.7654 72.0275 52.2782 71.8981 51.8104C71.6751 50.9878 71.1195 50.1415 70.8216 49.3176C70.6062 48.7136 70.5845 48.2653 70.0723 47.7508C69.6057 47.2769 69.4014 45.8192 68.8143 45.727C68.6574 45.1858 68.6902 44.7804 68.442 44.1581C68.1493 43.4204 68.0264 42.8224 67.7641 42.1117C67.5358 41.4853 67.102 40.8884 66.8439 40.3388C66.5646 39.727 66.4956 39.2095 66.1742 38.6146C65.8464 38.0085 65.5197 37.8923 65.364 37.2762C65.2914 36.9836 65.494 36.7181 65.4155 36.3769C65.343 36.0843 65.0655 35.6425 64.9244 35.3597C64.7985 35.0905 64.5509 34.7131 64.4848 34.4317C64.4016 34.1081 64.5562 33.8108 64.4883 33.5007C64.3267 32.8359 63.7999 32.4116 63.5534 31.818C63.3919 31.4356 63.4188 31.1228 63.2555 30.7117C63.105 30.3229 62.882 30.2063 62.7842 29.8317C62.5969 29.1223 63.0606 28.6541 62.3762 27.8673C62.4482 27.7737 62.4962 27.6643 62.5179 27.5477C60.5305 22.6821 59.4195 19.7188 59.4195 19.7188C59.4195 19.7188 60.7184 21.942 62.8282 25.7485C63.2614 26.2417 63.8521 26.6738 64.1254 27.2369C65.2272 28.1172 65.1996 30.0208 66.4506 30.659C66.3646 31.3701 66.8229 31.663 67.0969 32.1886C67.3088 32.594 67.4218 33.1233 67.7092 33.6338C67.9621 34.0973 68.3806 34.3983 68.5984 34.8523C68.8484 35.362 68.7805 35.758 68.9643 36.2688C69.1059 36.6552 69.4999 37.119 69.6691 37.5788C69.8593 38.1007 69.8142 38.4463 70.1309 38.9176C70.4002 39.3196 70.7175 39.4709 71.0167 39.9374C71.2836 40.3482 71.6354 40.8289 71.8532 41.1417C72.0967 41.4992 72.2647 42.0339 72.5533 42.4694C72.8612 42.9382 72.9379 43.2507 73.2768 43.8504C73.6263 44.4811 73.3641 44.9 73.6983 45.5171C73.8804 45.858 74.1813 45.7884 74.4084 46.2073C74.5413 46.4502 74.6326 47.2373 74.8984 47.7231C75.3099 48.474 75.6524 48.8487 75.9568 49.5426C76.4678 50.6969 77.0713 51.4337 77.4161 52.6468C77.5976 53.3075 77.7047 53.7882 78.1707 54.2997C78.5284 54.6878 78.9282 54.6355 79.1846 55.2976C78.461 55.6111 79.6236 56.9691 79.8771 57.5363C80.2863 58.4373 80.1868 59.0224 80.5819 59.976C80.7347 60.3561 80.8219 60.982 80.963 61.2648C81.2129 61.7746 81.7293 62.0266 82.0067 62.4684C82.252 62.8545 82.3346 63.3569 82.5506 63.7822C82.7794 64.2298 83.119 64.5095 83.2829 65.0243C83.2074 65.0605 83.1336 65.1253 83.0669 65.1639C83.1359 65.399 83.311 65.7662 83.4468 65.9628C83.8823 66.1648 83.6119 66.685 83.7167 67.0333C83.8566 67.5323 84.2657 68.1508 84.4718 68.6488C84.1849 69.2305 85.2112 69.5822 84.9231 70.3801C85.6338 70.8915 85.9118 72.4256 86.3363 73.34C86.6243 73.9542 87.6306 75.0159 87.1745 75.5615C87.3659 76.0084 87.6253 76.4831 87.3437 76.7273C87.4573 76.9368 87.4795 77.0651 87.6358 77.2202C87.644 77.6837 88.0268 77.7303 88.1158 78.2438C88.1363 78.3434 88.1146 78.46 88.0819 78.5829C89.9522 83.1816 91 85.9585 91 85.9585C91 85.9585 88.988 82.5266 85.9129 76.8692C85.5617 76.7746 85.5799 76.3182 85.3053 75.9713C85.0243 75.6132 84.6707 75.3862 84.429 75.0575C84.2024 74.7423 84.2001 74.4687 83.8488 74.0917C83.5714 73.791 83.3682 73.5292 83.0147 73.4434C83.1171 72.9533 82.6359 71.8635 82.4703 71.3199C82.3631 70.9804 82.2033 70.4855 82.0031 70.1774C81.7338 69.7754 81.3504 69.7663 81.1344 69.4822C80.9184 69.1981 80.9436 68.8566 80.8107 68.4725C80.6632 68.0374 80.4741 67.8641 80.2873 67.5408C79.8518 66.7739 79.7254 65.9773 79.2459 65.1987C79.0223 64.8372 78.6225 64.6072 78.4504 64.3349C78.201 63.9288 78.3667 63.7663 78.2016 63.3265C77.9727 62.7377 77.5126 62.4161 77.2679 61.8513C77.0958 61.4378 77.2492 61.0743 76.8973 60.4524C76.6205 59.973 76.2224 59.6305 75.9086 59.2541C75.3677 58.6001 75.4754 58.6197 75.1541 57.7424C74.8602 56.9384 74.547 56.9482 74.1033 56.4239C73.6314 55.8638 73.5589 55.2888 73.2398 54.6852Z" fill="white"/>
</g>
<defs>
<filter id="filter0_i" x="0" y="0" width="91" height="122" filterUnits="userSpaceOnUse" color-interpolation-filters="sRGB">
<feFlood flood-opacity="0" result="BackgroundImageFix"/>
<feBlend mode="normal" in="SourceGraphic" in2="BackgroundImageFix" result="shape"/>
<feColorMatrix in="SourceAlpha" type="matrix" values="0 0 0 0 0 0 0 0 0 0 0 0 0 0 0 0 0 0 127 0" result="hardAlpha"/>
<feOffset dy="2"/>
<feGaussianBlur stdDeviation="0.5"/>
<feComposite in2="hardAlpha" operator="arithmetic" k2="-1" k3="1"/>
<feColorMatrix type="matrix" values="0 0 0 0 0 0 0 0 0 0 0 0 0 0 0 0 0 0 0.25 0"/>
<feBlend mode="normal" in2="shape" result="effect1_innerShadow"/>
</filter>
</defs>
</svg>
