<svg width="22" height="22" viewBox="0 0 22 22" fill="none" xmlns="http://www.w3.org/2000/svg">
<path d="M12.9433 12.9434C12.6915 13.2136 12.3879 13.4303 12.0506 13.5806C11.7133 13.7309 11.3491 13.8118 10.9799 13.8183C10.6106 13.8248 10.2439 13.7569 9.90143 13.6186C9.55901 13.4802 9.24795 13.2744 8.98682 13.0132C8.72568 12.7521 8.51982 12.4411 8.38151 12.0986C8.2432 11.7562 8.17527 11.3894 8.18179 11.0202C8.1883 10.6509 8.26913 10.2868 8.41943 9.94947C8.56973 9.61213 8.78644 9.30853 9.05663 9.05677M16.445 16.4451C14.878 17.6395 12.97 18.3012 11 18.3334C4.58329 18.3334 0.916626 11.0001 0.916626 11.0001C2.05686 8.87518 3.63833 7.01866 5.55496 5.5551L16.445 16.4451ZM9.07496 3.88677C9.70593 3.73908 10.3519 3.66525 11 3.66677C17.4166 3.66677 21.0833 11.0001 21.0833 11.0001C20.5269 12.0411 19.8633 13.0211 19.1033 13.9243L9.07496 3.88677Z" stroke="#B0AD9F" stroke-linecap="round" stroke-linejoin="round"/>
<path d="M0.916626 0.916748L21.0833 21.0834" stroke="#B0AD9F" stroke-linecap="round" stroke-linejoin="round"/>
</svg>
