<svg width="40" height="61" viewBox="0 0 40 61" fill="none" xmlns="http://www.w3.org/2000/svg">
<path d="M9.998 60.9999C15.5169 60.9999 19.996 56.4452 19.996 50.8332V40.6665H9.998C4.4791 40.6665 0 45.2212 0 50.8332C0 56.4452 4.4791 60.9999 9.998 60.9999Z" fill="#0ACF83"/>
<path d="M0 30.5002C0 24.8882 4.4791 20.3335 9.998 20.3335H19.996V40.6668H9.998C4.4791 40.6668 0 36.1122 0 30.5002Z" fill="#A259FF"/>
<path d="M0.000488281 10.1667C0.000488281 4.55467 4.47959 0 9.99849 0H19.9965V20.3333H9.99849C4.47959 20.3333 0.000488281 15.7787 0.000488281 10.1667Z" fill="#F24E1E"/>
<path d="M19.996 0H29.994C35.5129 0 39.992 4.55467 39.992 10.1667C39.992 15.7787 35.5129 20.3333 29.994 20.3333H19.996V0Z" fill="#FF7262"/>
<path d="M39.992 30.5002C39.992 36.1122 35.5129 40.6668 29.994 40.6668C24.4751 40.6668 19.996 36.1122 19.996 30.5002C19.996 24.8882 24.4751 20.3335 29.994 20.3335C35.5129 20.3335 39.992 24.8882 39.992 30.5002Z" fill="#1ABCFE"/>
</svg>
