<svg viewBox="0 0 25 24" fill="none" xmlns="http://www.w3.org/2000/svg">
<path fill-rule="evenodd" clip-rule="evenodd" d="M12.5 0C5.59816 0 0 5.50943 0 12.3019C0 17.7358 3.6043 22.3396 8.51227 24C9.12577 24.0755 9.35583 23.6981 9.35583 23.3962C9.35583 23.0943 9.35583 22.3396 9.35583 21.283C5.90491 22.0377 5.13804 19.6226 5.13804 19.6226C4.60123 18.1887 3.75767 17.8113 3.75767 17.8113C2.60736 17.0566 3.83436 17.0566 3.83436 17.0566C5.06135 17.1321 5.75153 18.3396 5.75153 18.3396C6.90184 20.2264 8.66565 19.6981 9.35583 19.3962C9.43252 18.566 9.81595 18.0377 10.1227 17.7359C7.36196 17.434 4.44785 16.3774 4.44785 11.6226C4.44785 10.2642 4.90798 9.20755 5.75153 8.30189C5.67485 8.07547 5.21472 6.79245 5.90491 5.13208C5.90491 5.13208 6.97853 4.83019 9.35583 6.41509C10.3528 6.11321 11.4264 6.03774 12.5 6.03774C13.5736 6.03774 14.6472 6.18868 15.6442 6.41509C18.0215 4.83019 19.0951 5.13208 19.0951 5.13208C19.7853 6.79245 19.3252 8.07547 19.2485 8.37736C20.0153 9.20755 20.5521 10.3396 20.5521 11.6981C20.5521 16.4528 17.638 17.434 14.8773 17.7359C15.3374 18.1132 15.7209 18.8679 15.7209 20C15.7209 21.6604 15.7209 22.9434 15.7209 23.3962C15.7209 23.6981 15.9509 24.0755 16.5644 24C21.5491 22.3396 25.0767 17.7358 25.0767 12.3019C25 5.50943 19.4018 0 12.5 0Z" fill="#1E1C16"/>
</svg>
