<svg viewBox="0 0 116 72" fill="none" xmlns="http://www.w3.org/2000/svg">
<ellipse cx="61" cy="69" rx="55" ry="3" fill="#C2C2C2"/>
<path fill-rule="evenodd" clip-rule="evenodd" d="M60.342 46.9875C62.0306 49.0448 65.4882 52.9124 68.1015 55.6279C70.7148 58.3435 71.4385 59.4544 71.3581 61.0179C71.2777 62.5814 70.8355 65.5439 70.3932 65.4616C69.9107 65.4204 68.5036 65.7496 67.9809 66.1199C67.4583 66.4902 67.3376 66.7782 67.2974 67.3131C67.2572 67.848 68.6644 68.6297 69.5489 68.3006C70.4334 67.9714 71.1169 67.9303 71.9612 67.9714C72.8055 68.0125 73.4085 68.2594 73.891 67.6011C74.4137 66.9428 74.7755 64.0626 75.2982 60.4419C75.8208 56.8211 76.7455 55.6279 74.9765 53.8176C73.1673 52.0483 70.353 50.0734 68.9458 46.5761C67.5387 43.0787 67.1366 41.8033 66.7346 42.2147C66.3325 42.5439 60.342 46.9875 60.342 46.9875Z" fill="#CA6928"/>
<path fill-rule="evenodd" clip-rule="evenodd" d="M70.3933 58.2613C71.1572 59.2899 71.3984 60.0717 71.318 61.018C71.2376 62.5815 70.7953 65.544 70.3531 65.4617C69.8706 65.4205 68.4635 65.7497 67.9408 66.12C67.4181 66.4903 67.2975 66.7783 67.2573 67.3132C67.2171 67.8481 68.6243 68.6298 69.5088 68.3007C70.3933 67.9715 71.0768 67.9304 71.921 67.9715C72.4437 67.9715 72.886 68.0949 73.2478 68.0126C73.5292 68.0126 73.7303 67.8481 73.8911 67.6012C74.4137 66.9429 74.7756 64.0627 75.2982 60.442C75.8209 56.8212 76.7456 55.628 74.9766 53.8177C74.4539 53.2828 73.8509 52.7479 73.2076 52.1719C73.1272 52.0896 73.0468 52.0484 72.9664 51.9661C72.886 51.8838 72.8056 51.8016 72.6849 51.7193C71.318 50.5261 69.7902 50.1558 69.7902 50.1558L71.0768 52.501L69.9912 52.0896L69.6696 52.5833C69.6696 52.5833 68.9459 53.2005 68.7047 52.789C68.4634 52.3776 67.6192 52.3776 68.1418 52.5833C68.5439 52.6656 69.8706 55.5869 70.3933 58.2613Z" fill="#404041"/>
<path fill-rule="evenodd" clip-rule="evenodd" d="M24.7207 38.3472C26.5299 41.3507 29.2638 48.7157 29.8267 53.9411C30.3896 59.1665 29.8669 64.3919 29.304 64.7622C28.7412 65.1736 27.7763 64.8856 27.2134 65.2971C26.6505 65.7085 26.6505 66.12 26.3289 66.6137C26.0073 67.1074 25.8062 67.6423 26.0877 67.8481C26.4093 68.0538 27.4948 67.7246 27.7361 67.8481C27.9773 67.9715 28.2587 68.0949 28.6608 68.1361C29.0628 68.1772 29.2236 68.0126 29.6257 68.0126C30.0277 68.0126 30.3494 68.0126 30.5504 68.0126C30.7514 68.0126 31.8771 67.8892 32.3596 67.5189C32.842 67.1897 33.2039 66.6137 33.5657 65.1736C33.9678 63.7336 33.6863 62.8284 34.008 61.8409C34.3296 60.8534 33.5657 54.6817 34.6513 50.8964C35.7368 47.111 36.7821 42.3794 36.0986 41.8445C35.4956 41.3919 24.7207 38.3472 24.7207 38.3472Z" fill="#CA6928"/>
<path fill-rule="evenodd" clip-rule="evenodd" d="M29.8267 53.7765V53.941C30.3895 59.1665 29.8669 64.3919 29.304 64.7622C28.7411 65.1736 27.7762 64.8856 27.2134 65.297C26.6505 65.7085 26.6505 66.1199 26.3289 66.6137C26.0072 67.1074 25.8062 67.6423 26.0876 67.848C26.4093 68.0538 27.4948 67.7246 27.736 67.848C27.9772 67.9715 28.2587 68.0949 28.6607 68.136C29.0628 68.1772 29.2236 68.0126 29.6256 68.0126C30.0277 68.0126 30.3493 68.0126 30.5503 68.0126C30.7514 68.0126 31.8771 67.8892 32.3596 67.5189C32.842 67.1897 33.2039 66.6137 33.5657 65.1736C33.9677 63.7335 33.6863 62.8284 34.0079 61.8409C34.209 61.2648 34.0079 58.8373 34.0481 56.204C33.8069 55.6691 33.6059 55.1754 33.4853 54.7228C33.1636 53.4473 33.0832 52.789 33.0832 53.5296C33.0832 54.2702 32.8822 56.2452 32.8822 56.2452L32.2389 54.9697C32.2389 54.9697 32.0781 57.0681 31.9977 56.78C31.8771 56.5332 31.475 55.7514 31.4348 55.4634C31.3946 55.1343 30.5503 53.2004 30.5503 53.2004L30.5905 54.9697L29.8267 53.7765Z" fill="#404041"/>
<path fill-rule="evenodd" clip-rule="evenodd" d="M12.6191 5.84253C12.5387 6.62428 12.9407 7.61176 12.4583 7.44718C11.9758 7.2826 10.6491 6.62428 10.6491 6.62428H11.2923C11.2923 6.62428 10.6089 6.25398 10.5285 6.25398C10.448 6.25398 10.8501 6.13054 11.1315 6.17169C11.3728 6.21283 11.5336 6.29512 11.5336 6.29512C11.5336 6.29512 11.3325 5.76024 10.8501 5.55452C10.3676 5.30765 10.2068 5.30765 10.2068 5.30765L10.8501 5.18421L10.0058 4.69047L10.7697 4.60818L9.80477 4.03216C9.80477 4.03216 10.1666 3.90872 10.4078 3.99101C10.6491 4.0733 10.7295 4.11445 10.7295 4.11445C10.7295 4.11445 10.3274 3.703 10.0058 3.37384C9.68415 3.04468 9.52333 2.79781 9.60374 2.8801C9.68415 2.92124 10.3274 3.08582 10.3274 3.08582C10.3274 3.08582 10.0058 2.75666 9.84497 2.46865C9.68415 2.18064 9.56354 1.85148 9.60374 1.93377C9.64395 2.01606 10.0058 2.26293 9.96559 2.18064C9.88518 2.13949 9.72436 1.64575 9.72436 1.64575L10.2872 1.93377L12.6191 5.84253Z" fill="#E6E7E8"/>
<path d="M109.312 53.3649C107.181 48.839 105.211 48.3864 101.633 47.0698C101.994 47.0286 102.236 46.9875 102.236 46.9875C102.236 46.9875 101.793 46.6172 101.15 46.4114C101.03 46.3703 100.828 46.2469 100.547 46.1234C100.105 45.9177 99.5017 45.712 98.8182 45.4651C98.1348 45.2594 97.4915 45.0948 97.0492 44.9714C96.9688 44.9714 96.9286 44.9302 96.8884 44.9302C96.808 44.8891 96.7276 44.8479 96.6874 44.8068C97.1296 44.9302 97.4111 44.9714 97.4111 44.9714C97.4111 44.9714 97.3307 44.8891 97.1296 44.7245C97.9739 44.7245 98.6172 44.6011 98.6172 44.6011C98.6172 44.6011 97.6121 44.1073 96.3658 43.9428C96.2451 43.9428 96.1245 43.9016 96.0039 43.9016C95.8029 43.7782 95.5617 43.6547 95.3204 43.5313C94.7978 43.2844 94.3153 43.1199 93.9133 42.9964C93.5916 42.7496 93.27 42.5027 92.9886 42.2558C93.3906 42.3381 93.7122 42.297 93.7122 42.297C93.7122 42.297 93.3102 41.8032 92.7071 41.4741C92.6267 41.3918 92.5061 41.3095 92.3855 41.186C92.1443 40.9803 91.8226 40.6923 91.4608 40.4454C91.702 40.5277 91.8628 40.5277 91.8628 40.5277C91.8628 40.5277 91.5814 40.322 91.1391 39.9517C90.6567 39.5814 90.2144 39.2522 89.7722 38.9231C89.732 38.8408 89.6516 38.7996 89.6114 38.7174C89.732 38.7996 89.8124 38.7996 89.8124 38.7996C89.8124 38.7996 89.1289 37.8122 88.0434 36.7835C87.9228 36.619 87.8022 36.4544 87.6413 36.2898C88.365 36.6601 88.9279 36.8658 88.9279 36.8658C88.9279 36.8658 88.1238 35.9195 86.9177 35.0966C86.7166 34.9732 86.5156 34.8497 86.3146 34.7263C85.6713 33.9445 85.028 33.2862 84.3848 32.6691C84.7466 32.7925 84.9878 32.8336 84.9878 32.8336C84.9878 32.8336 84.1837 31.9696 83.0178 31.3524C82.857 31.2701 82.7364 31.1878 82.5756 31.1467C82.3745 30.9821 82.1333 30.8175 81.9323 30.653C82.7766 30.8587 83.3796 30.8998 83.3796 30.8998C83.3796 30.8998 82.3343 30.1181 80.9272 29.5832C80.7261 29.5009 80.5251 29.4186 80.3241 29.3775C80.0025 29.1306 78.8767 28.3488 77.4696 27.6905C77.1077 27.5259 76.7459 27.4025 76.4242 27.2791C75.9016 26.9499 75.3789 26.5796 74.9367 26.1682C72.3636 23.7406 70.7554 22.3828 65.77 20.5313C60.7846 18.6798 56.6033 18.4741 51.2159 19.0912C45.8285 19.7084 35.2546 17.9803 34.0485 17.9392C32.8826 17.898 31.5558 16.8283 28.8621 14.5241C26.1684 12.22 21.0222 8.31127 21.0222 8.31127C21.0222 8.31127 20.3789 7.2415 18.8913 5.30769C17.4038 3.37388 15.5544 1.39893 15.1925 1.81038C14.7905 2.22182 14.4286 3.78533 14.4286 3.78533C14.4286 3.78533 14.2276 3.45617 13.0215 2.30411C12.1772 1.48122 10.8906 0.658318 10.2071 0.246869C9.76488 0.0822898 9.60406 0 9.60406 0C9.60406 0 9.52365 0.699463 10.4082 2.839C11.2927 4.97853 12.338 7.32379 12.338 7.32379C12.338 7.32379 10.569 8.35242 9.32263 10.0394C8.07629 11.7263 7.59383 13.9481 6.87015 14.8533C6.18667 15.7585 3.17132 18.3506 2.64866 18.7209C2.12599 19.1324 1.52292 19.297 1.2817 19.5438C1.04047 19.7907 0.87965 20.3667 1.16108 20.9016C1.40231 21.4365 1.84456 21.7245 2.32702 22.0125C2.76927 22.2594 2.93009 23 3.8548 23.2469C4.7795 23.4937 5.94544 23.7818 7.63404 23.3703C9.32263 22.9589 11.6143 22.424 12.5792 23.0823C12.5792 23.0823 12.7802 23.3703 13.5039 24.3166C14.1874 25.2218 14.3884 25.7156 15.2327 29.0483C16.077 32.381 20.0975 40.7335 25.4849 43.4902C30.8723 46.2469 34.9732 44.7657 34.9732 44.7657C34.9732 44.7657 35.9381 47.8104 37.7875 52.254C39.637 56.6977 39.838 65.297 39.5968 65.5027C39.3555 65.7495 37.9886 66.0787 37.2247 66.6959C36.4608 67.3131 36.4608 68.0537 36.702 68.6297C36.9432 69.2057 37.1041 68.6297 37.3855 68.7943C37.6669 68.9589 37.9082 68.9589 38.3906 68.8354C38.8731 68.712 38.7122 68.7943 39.4761 68.9589C40.24 69.1234 41.2854 68.8354 41.8884 68.3417C42.4915 67.8479 42.5719 67.0662 43.0544 66.0376C43.5368 65.0501 44.2605 59.7835 43.1348 52.1717C42.009 44.5599 42.1297 44.1073 42.1297 44.1073C42.1297 44.1073 44.6625 43.7782 47.6779 43.4079C50.7334 43.0787 53.2261 41.9678 53.2261 41.9678C53.2261 41.9678 52.9045 43.8605 55.2364 46.6995C57.6084 49.5385 62.3928 52.8712 63.2371 53.653C64.0814 54.4758 64.6845 57.356 63.9608 59.4132C63.2371 61.4705 62.433 64.5152 61.3475 65.3381C60.262 66.161 58.5332 65.9553 57.7693 66.5313C57.0054 67.0662 57.0858 67.9302 57.1662 68.2594C57.2466 68.5885 57.7291 68.5886 58.2517 68.5063C58.7744 68.4651 58.6538 68.5885 59.4981 68.7943C60.3022 69 63.3175 68.8354 63.8804 68.3828C64.4432 67.9302 64.8855 67.5599 65.8102 66.6136C66.7349 65.7084 69.0266 61.059 69.6699 60.0716C70.2729 59.0841 71.3584 57.644 70.9162 56.2039C70.4739 54.7639 66.6545 50.4025 66.9761 48.8801C67.2978 47.3989 71.3987 39.5402 71.3987 39.5402C71.3987 39.5402 71.5997 39.7871 71.9615 40.2809C72.0419 40.5277 72.1223 40.8157 72.2832 41.0626C72.3636 41.2272 72.444 41.3506 72.5244 41.5152C72.6048 41.8444 72.6852 42.1324 72.7656 42.3381C72.8862 42.7084 73.0068 42.9553 73.0068 42.9553C73.0068 42.9553 73.047 42.8318 73.0872 42.6261C73.1275 42.6673 73.1275 42.7084 73.1677 42.7496C73.2883 43.0787 73.4089 43.2844 73.4089 43.2844C73.4089 43.2844 73.4491 43.1199 73.4491 42.7907C73.4893 42.873 73.5295 42.873 73.5295 42.873C73.5295 42.873 73.5295 42.7084 73.4491 42.4204C73.5697 42.7907 73.6903 43.1199 73.8109 43.3667C73.9315 43.6959 74.0522 43.8605 74.0522 43.8605C74.0522 43.8605 74.0522 43.8193 74.0924 43.737C74.1326 43.9428 74.213 44.1485 74.2934 44.3542C74.615 45.1771 75.1377 45.8354 75.5397 46.2057C75.5397 46.2469 75.5799 46.2469 75.5799 46.2469C75.5799 46.2469 75.5799 46.2469 75.5799 46.2057C75.781 46.3703 75.9418 46.4937 76.0624 46.576C76.1026 46.6172 76.1428 46.6172 76.183 46.6583C76.7861 47.8104 77.3489 48.551 77.3489 48.551C77.3489 48.551 77.3087 48.263 77.1881 47.8515C77.8716 49.127 78.5953 49.9499 78.5953 49.9499C78.5953 49.9499 78.5149 49.5796 78.3541 49.0447C78.4345 49.1682 78.5551 49.3327 78.6757 49.4562C78.7159 49.4973 78.7159 49.5385 78.7561 49.5796C79.4798 51.102 80.4045 52.1306 80.4045 52.1306C80.4045 52.1306 80.3241 51.7191 80.1231 51.102C80.1633 51.1431 80.1633 51.1431 80.2035 51.1843C80.2839 51.3077 80.3241 51.39 80.4045 51.5134C80.887 52.254 81.4498 52.7889 81.8921 53.1592C82.3343 53.5295 82.656 53.6941 82.656 53.6941C82.656 53.6941 82.5353 53.5295 82.3745 53.2415C82.4147 53.2826 82.4549 53.3238 82.4951 53.3238C82.8168 53.6941 83.1786 54.0233 83.4601 54.2701C83.6209 54.5581 83.8621 54.8462 84.1033 55.1342C84.626 55.6691 85.1889 55.9982 85.6311 56.2039C86.0734 56.4097 86.3548 56.4508 86.3548 56.4508C86.3548 56.4508 86.1136 56.2039 85.8321 55.8748C86.2342 56.1628 86.6362 56.4097 86.9981 56.6977C87.1187 56.8623 87.2795 57.068 87.4403 57.2326C88.2444 58.0966 89.1289 58.5903 89.1289 58.5903C89.1289 58.5903 88.9681 58.2612 88.6867 57.7674C88.8877 57.8909 89.0485 57.9732 89.2495 58.0966C89.4103 58.3846 89.6114 58.6726 89.8526 58.9606C90.2949 59.4544 90.8175 59.7424 91.2196 59.907C91.6216 60.0716 91.8628 60.1127 91.8628 60.1127C91.8628 60.1127 91.702 59.907 91.4206 59.619C91.2598 59.4544 91.0989 59.2487 90.8979 59.0429C90.9783 59.0841 91.0989 59.1664 91.1794 59.2075C91.3402 59.4132 91.5412 59.619 91.7824 59.8247C92.2247 60.195 92.7071 60.4007 93.069 60.5653C93.27 60.8122 93.5514 61.059 93.8329 61.2648C94.4359 61.7174 95.0792 61.9231 95.5617 62.0054C96.0441 62.0877 96.3256 62.0877 96.3256 62.0877C96.3256 62.0877 96.0039 61.8819 95.6823 61.6762C95.441 61.5116 95.1194 61.3059 94.7978 61.059C94.838 61.059 94.8782 61.1002 94.9184 61.1002C100.708 63.8157 109.352 64.8855 110.156 66.4902C110.88 68.424 111.965 59.0018 109.312 53.3649ZM75.781 46.1646C75.7408 46.0823 75.6604 45.9589 75.6201 45.8766V45.8354C75.7006 45.9589 75.7408 46.1234 75.8212 46.2469C75.781 46.2057 75.781 46.1646 75.781 46.1646Z" fill="#D96D27"/>
<path d="M72.2025 42.2146C72.2025 42.2146 71.6396 41.3917 71.3984 40.2396C71.1572 39.0876 71.3582 38.1001 71.3582 38.1001C71.3582 38.1001 71.921 38.923 72.1623 40.0751C72.4035 41.2271 72.2025 42.2146 72.2025 42.2146Z" fill="#D96D27"/>
<path d="M71.4787 40.5278C71.4787 40.5278 70.9561 40.1987 70.7953 39.6226C70.6345 39.0466 70.8757 38.5117 70.8757 38.5117C70.8757 38.5117 71.3983 38.8409 71.5592 39.4169C71.72 39.9518 71.4787 40.5278 71.4787 40.5278Z" fill="#D96D27"/>
<path fill-rule="evenodd" clip-rule="evenodd" d="M43.6973 61.2237C43.6169 63.8158 43.2952 65.5027 43.054 66.0376C42.5716 67.0251 42.5314 67.848 41.8881 68.3417C41.285 68.8355 40.2397 69.1235 39.4758 68.9589C38.7119 68.7943 38.8727 68.712 38.3903 68.8355C37.9078 68.9589 37.6666 68.9589 37.3852 68.7943C37.1037 68.6297 36.9831 69.2058 36.7017 68.6297C36.4605 68.0537 36.4604 67.3131 37.2243 66.6959C37.9882 66.0788 39.315 65.7496 39.5964 65.5027C39.717 65.3793 39.717 63.3632 39.516 60.7711C39.5964 59.0841 39.1542 57.1915 38.9129 56.1628C38.8727 55.916 38.8325 55.6691 38.7521 55.4222C38.8325 55.0931 38.8325 55.916 38.9933 55.8748C39.114 55.8337 39.4356 56.5331 39.4758 56.6977C39.516 56.8623 39.3954 55.3811 39.3954 55.3811C39.3954 55.3811 39.9985 56.1217 40.1191 56.4097C40.2397 56.6977 40.2397 54.8462 40.1995 54.5582C40.1593 54.2702 40.7221 55.5045 40.883 55.9983C41.0438 56.492 40.8026 54.1879 40.8026 53.5296C40.8026 52.8712 40.9634 54.517 41.7273 56.4097C42.4509 58.3024 43.6973 59.1253 43.6973 61.2237Z" fill="#404041"/>
<path fill-rule="evenodd" clip-rule="evenodd" d="M70.0716 59.4954C69.9107 59.7423 69.7901 59.948 69.6695 60.1537C69.0664 61.1412 66.7346 65.7494 65.8099 66.6958C64.8852 67.601 64.4429 67.9713 63.88 68.465C63.3172 68.9176 60.3018 69.0822 59.4977 68.8764C58.6936 68.6707 58.774 68.5473 58.2514 68.5884C57.7287 68.6296 57.2865 68.6707 57.1659 68.3416C57.0855 68.0124 57.0452 67.1484 57.7689 66.6135C58.5328 66.0786 60.2616 66.2432 61.3472 65.4203C62.4327 64.5974 63.2368 61.5527 63.9605 59.4954C64.6841 57.4382 64.0811 54.558 63.2368 53.7351C62.8749 53.406 61.7894 52.5831 60.5029 51.5544C61.1461 51.5956 62.1914 51.719 63.1564 52.5419C64.7243 53.9408 65.448 56.9033 65.4882 56.6564C65.5284 56.4095 65.2872 54.5169 65.2872 54.5169C65.2872 54.5169 65.9305 55.7512 66.4531 56.3272C66.9758 56.9033 66.6944 57.1913 66.614 57.5205C66.4933 57.8496 67.8603 57.1913 67.8603 57.1913L68.1015 59.0017C68.1015 59.0017 69.2273 56.9033 69.5489 57.2736C69.8303 57.5205 70.1118 58.4668 70.0716 59.4954Z" fill="#404041"/>
<path fill-rule="evenodd" clip-rule="evenodd" d="M1.36184 21.2718C1.28143 21.1484 1.16081 21.0249 1.12061 20.8603C0.879381 20.3255 1.0402 19.7906 1.24122 19.5437C1.44225 19.626 1.68347 19.7906 2.00511 19.7906C2.44736 19.7906 2.7288 19.6671 2.80921 20.0374C2.88962 20.4077 2.84941 20.9015 2.44736 21.1895C2.04532 21.4364 1.9247 21.3952 1.56286 21.3129C1.48245 21.2718 1.44225 21.2718 1.36184 21.2718Z" fill="#58595B"/>
<path fill-rule="evenodd" clip-rule="evenodd" d="M14.3882 3.45615C14.5088 2.96242 14.7902 2.09837 15.0717 1.8515C15.4737 1.44005 17.2829 3.41501 18.7705 5.34882C20.2581 7.28263 20.9013 8.3524 20.9013 8.3524C20.9013 8.3524 20.5395 8.43469 20.4591 8.39354C20.3787 8.39354 20.7405 9.25759 20.8209 9.38102C20.9013 9.50446 20.1776 8.68156 20.057 8.59927C19.8962 8.55812 19.8962 8.68156 19.8962 8.68156C19.8962 8.68156 20.0972 9.09301 19.8158 8.80499C19.5344 8.51698 19.0921 8.22896 18.4086 7.32378C17.7654 6.41859 17.6045 5.01966 17.4437 4.6905C17.2829 4.36134 15.7953 2.55097 15.3933 2.63326C15.0314 2.75669 14.348 4.6905 14.1469 5.34882C13.9459 6.00714 13.6243 7.36492 13.6243 7.5295C13.6243 7.69408 13.5439 5.84256 13.7449 4.89623C14.0665 3.90875 14.2676 3.82646 14.2676 3.82646C14.2676 3.82646 14.3078 3.70302 14.3882 3.45615Z" fill="#404041"/>
<path fill-rule="evenodd" clip-rule="evenodd" d="M9.64401 0.576029C9.5636 0.16458 9.5636 0 9.5636 0C9.5636 0 9.72442 0.0822898 10.0461 0.288014C10.7295 0.699463 12.0161 1.52236 12.8604 2.34526C13.4635 2.92129 13.8253 3.29159 14.0263 3.49732C13.9861 3.6619 13.8253 3.86762 13.7449 4.0322C13.7047 4.19678 13.4232 4.11449 13.2624 4.07335C13.1016 4.0322 13.1016 4.23793 13.1418 4.32021C13.1418 4.4025 12.9006 4.36136 12.6594 4.19678C12.4181 4.0322 12.4985 4.64937 12.4181 4.73166C12.3779 4.81395 11.212 3.2093 10.7295 2.13953C10.5285 1.60465 10.0863 1.06977 9.64401 0.576029Z" fill="#404041"/>
<path fill-rule="evenodd" clip-rule="evenodd" d="M104.889 48.3452C106.618 49.2093 107.944 50.4025 109.311 53.3649C111.965 59.0017 110.879 68.4239 110.115 66.8193C109.512 65.5438 104.085 64.5975 98.9788 62.9517C98.0138 61.8819 97.0891 60.6475 97.7324 60.9767C98.6973 61.4293 99.9437 61.7996 99.5818 61.3059C99.2602 60.8533 98.0138 59.2486 98.7777 59.5778C99.5818 59.9069 100.788 60.7298 100.306 59.9892C99.7829 59.2486 98.6571 57.5617 99.3004 57.8497C99.9035 58.1377 102.436 59.0017 101.954 58.5492C101.431 58.0966 99.9839 56.2039 101.069 56.2862C102.155 56.4096 103.321 56.6153 103.281 56.3273C103.24 56.0393 102.034 54.4347 102.597 54.4758C103.16 54.5169 103.683 54.4347 104.125 54.5992C104.567 54.7638 103.321 52.8712 103.602 52.8712C103.884 52.8712 105.854 53.4883 105.894 53.3238C105.934 53.1592 104.165 51.1431 104.607 51.1842C105.05 51.2254 106.899 51.5134 106.899 51.5134C106.899 51.5134 105.934 50.4025 104.688 49.2504C104.045 48.7978 104.406 48.4686 104.889 48.3452Z" fill="#E6E7E8"/>
<path fill-rule="evenodd" clip-rule="evenodd" d="M53.266 42.0088C53.266 42.0088 50.7331 43.1197 47.7177 43.4489C44.6622 43.778 42.1695 44.1483 42.1695 44.1483C42.0891 43.2843 41.3654 39.787 41.8077 40.363C42.2499 40.939 43.5365 42.8729 43.5365 42.338C43.4963 41.8031 43.054 40.363 43.3354 40.651C43.6169 40.939 44.5014 41.6385 44.5014 41.6385L45.0642 40.8156C45.0642 40.8156 46.1096 41.8031 46.1498 41.6385C46.19 41.4739 46.4714 40.7745 46.7126 40.939C46.9539 41.0625 48.0796 41.8442 48.0796 41.6385C48.0796 41.4739 48.4816 40.8156 48.7229 41.0213C48.9641 41.2271 50.0496 41.3505 50.0898 41.1859C50.13 41.0213 50.5321 40.4865 50.8537 40.651C51.1753 40.8568 52.2207 41.2271 52.2207 41.2271L52.7433 40.5687L53.4268 40.8156L53.266 42.0088Z" fill="#E6E7E8"/>
<path fill-rule="evenodd" clip-rule="evenodd" d="M56.8041 48.3453C56.2413 47.8105 55.7186 47.2756 55.2764 46.7407C54.1104 45.3829 53.628 44.2308 53.3867 43.4079C53.2661 42.009 53.3867 40.9804 53.3867 40.8981C53.4269 40.7335 53.5073 40.2809 53.628 39.7049C54.0702 37.8945 58.4123 28.5546 59.9401 28.0198C60.1813 27.9375 58.7742 29.2541 57.568 31.5994C53.3867 39.4992 52.6228 41.4741 56.0402 47.2344C56.3217 47.5636 56.5629 47.9339 56.8041 48.3453Z" fill="#CA6928"/>
<path d="M34.0482 44.4365C34.0482 44.4365 33.9276 44.7245 33.606 45.0537C33.2844 45.3828 32.7617 45.712 32.1184 45.7943C31.7968 45.8354 31.4751 45.7532 31.2339 45.6709C31.0731 45.6297 30.9927 45.5474 30.8721 45.5063C30.7515 45.424 30.6309 45.3828 30.5102 45.2594C30.269 45.0537 30.1886 44.8068 30.1886 44.6422C30.2288 44.4777 30.269 44.4365 30.269 44.4365C30.269 44.4365 30.3092 44.5188 30.4298 44.56C30.5102 44.6011 30.6711 44.56 30.7515 44.5188C30.7917 44.4777 30.9123 44.4365 30.9927 44.3954C31.1133 44.3542 31.2339 44.3131 31.3143 44.3131C31.5154 44.2308 31.7566 44.1897 31.9978 44.1897C32.4803 44.1485 32.9627 44.2308 33.3246 44.3131C33.7668 44.3542 34.0482 44.4365 34.0482 44.4365Z" fill="#E6E7E8"/>
<path d="M33.324 40.9803C32.5199 40.1163 32.0777 40.1574 31.7962 40.1574C31.555 40.1985 32.3591 39.6225 32.7612 39.4579C33.1632 39.2522 30.1881 39.3756 29.1427 38.7585C28.0572 38.1413 28.1376 36.4544 28.1376 36.4544C28.1376 36.4544 29.0623 37.1127 29.1025 37.3184C29.1427 37.5241 29.1427 36.8658 29.2231 36.0841C29.3035 35.3023 29.2633 34.4383 29.2633 34.4383C29.2633 34.4383 30.2685 35.3023 30.3489 35.5492C30.4293 35.796 30.3891 34.4383 29.8262 32.669C29.2633 30.8998 28.0974 29.1717 28.0974 29.1717C28.0974 29.1717 29.2633 28.7603 29.6252 28.9248C29.987 29.0894 28.2582 27.4436 27.8964 27.0322C27.5345 26.6207 28.2582 26.7853 28.5799 26.9087C28.9015 27.0322 28.3386 26.4973 26.7304 24.9338C25.1223 23.3703 24.8006 21.6422 24.5192 21.4365C24.2378 21.2307 25.1223 21.1896 25.5243 21.3542C25.9264 21.5188 25.3635 21.1073 24.3986 20.2021C23.5141 19.3381 22.3079 16.8694 22.3079 16.8694L21.2224 18.2683C21.2224 18.2683 20.2575 18.186 19.9761 18.1037C19.6946 18.0214 20.4183 18.9678 20.5791 19.0912C20.6997 19.2146 19.373 19.0501 19.1318 19.0089C18.8905 18.9678 19.8152 19.7084 19.9359 19.7495C20.0565 19.7907 19.4132 19.873 18.4483 19.7495C17.4834 19.6261 17.1617 19.4615 16.9205 19.3792C16.6793 19.2969 17.7246 20.2844 17.7246 20.2844C17.7246 20.2844 17.1215 20.161 15.9154 19.6261C14.7495 19.0912 10.729 18.8032 8.35691 19.1324C5.94463 19.4615 4.73849 19.6261 3.41173 19.7495C2.60764 19.7907 1.88396 19.7084 1.32109 19.5027C1.28089 19.5438 1.28089 19.5438 1.24068 19.5849C0.999453 19.8318 0.838634 20.4078 1.12007 20.9427C1.36129 21.4776 1.80355 21.7656 2.286 22.0536C2.72825 22.3005 2.88907 23.0411 3.81378 23.288C4.73849 23.5349 5.90442 23.8229 7.59302 23.4114C9.28162 23 11.5733 22.4651 12.5382 23.1234C12.5382 23.1234 12.6186 23.2057 12.7392 23.4114C12.699 23.7817 12.6588 24.2343 12.699 24.7281C12.7392 25.2218 12.8196 25.6744 12.9 26.0447C12.9804 26.415 13.0609 26.6619 13.0609 26.6619C13.0609 26.6619 13.2619 26.4973 13.4629 26.1681C13.6639 26.9499 14.066 27.5259 14.267 27.8139C14.267 27.9785 14.267 28.1431 14.267 28.2665C14.267 28.5545 14.267 28.8014 14.2268 28.966C14.2268 29.1306 14.2268 29.254 14.2268 29.254C14.2268 29.254 14.3072 29.1717 14.3876 29.0483C14.5082 28.9248 14.6288 28.7191 14.7495 28.4722C14.7092 28.9248 14.7092 29.4186 14.7897 29.9123C14.9505 31.0644 15.3525 32.0519 15.7144 32.7102C15.9154 33.0393 16.0762 33.2862 16.1968 33.4508C16.3174 33.6154 16.3978 33.6977 16.3978 33.6977C16.3978 33.6977 16.3978 33.5742 16.3576 33.3685C16.3174 33.1216 16.2772 32.8336 16.237 32.5044C16.1968 32.2576 16.1566 32.0107 16.1566 31.7638C16.237 31.9696 16.3576 32.2164 16.4381 32.4633C16.4783 33.0805 16.7195 33.7799 17.0009 34.4794C17.1617 34.8909 17.3226 35.22 17.4432 35.5903C17.5638 35.9195 17.6442 36.2486 17.6844 36.4955C17.7246 36.7835 17.7246 36.9892 17.6844 37.195C17.6844 37.3595 17.6442 37.4418 17.6442 37.4418C17.6442 37.4418 17.7246 37.4007 17.8452 37.2361C17.9658 37.1127 18.0864 36.9481 18.1669 36.6601C18.4885 37.483 19.0112 38.1002 19.4132 38.5116C19.6544 38.7173 19.8152 38.8819 19.9761 38.9642C20.0967 39.0465 20.2173 39.1288 20.2173 39.1288C20.2173 39.1288 20.1771 39.0465 20.1369 38.8819C20.0967 38.7996 20.0565 38.6762 20.0163 38.5527C20.2575 38.8819 20.4987 39.2111 20.7802 39.4991C20.8204 39.8694 20.9008 40.2397 21.0616 40.61C21.2224 41.0626 21.4234 41.4329 21.6647 41.7621C21.9059 42.0912 22.1471 42.3792 22.3883 42.5849C22.6296 42.7907 22.8708 42.873 23.0316 42.9553C23.1924 42.9964 23.3131 42.9964 23.3131 42.9964C23.3131 42.9964 23.2326 42.9141 23.1522 42.7907C23.0718 42.6672 22.9512 42.4615 22.8306 42.2146C22.71 41.9678 22.5894 41.6386 22.4688 41.2683C22.8306 41.5975 23.1924 41.9266 23.5543 42.2146C23.6347 42.3381 23.7151 42.4204 23.8357 42.5438C24.1976 42.9141 24.5996 43.2021 25.0016 43.449C25.1223 43.5313 25.2429 43.5724 25.3635 43.6136C25.4841 43.8193 25.6449 43.9839 25.8057 44.1896C26.6098 45.0536 27.6552 45.3417 27.6552 45.3417C27.6552 45.3417 27.5345 44.8479 27.2129 44.2307C27.3335 44.2719 27.4541 44.313 27.5345 44.3542C27.816 44.7656 28.2582 45.3005 28.8613 45.6297C29.2231 45.8354 29.585 45.9588 29.9066 46.0411C30.2685 46.1234 30.6303 46.1234 30.9117 46.0823C31.1932 46.0411 31.3942 45.9177 31.5148 45.7943C31.6354 45.6708 31.6756 45.6297 31.6756 45.6297C31.6756 45.6297 31.5952 45.6297 31.4344 45.6297C31.3138 45.6297 31.1128 45.5885 30.9117 45.5062C30.7107 45.4239 30.4695 45.3005 30.2283 45.1359C30.1076 45.0536 29.987 45.0125 29.9066 44.9302C30.8313 45.0948 31.7158 45.1359 32.3993 45.0948C33.8467 44.8891 34.9724 44.6833 34.9724 44.6833C34.9724 44.6833 34.1281 41.8443 33.324 40.9803Z" fill="#E6E7E8"/>
<path fill-rule="evenodd" clip-rule="evenodd" d="M7.83472 16.7048C8.07594 16.2933 8.35738 16.0465 8.27697 15.635C8.19656 15.2236 8.07594 14.9767 8.19656 14.9355C8.31717 14.9355 8.75942 15.1001 9.28209 15.4293C9.80475 15.7584 9.68413 15.8407 10.3676 16.0053C11.0511 16.1699 11.1717 16.2933 11.1717 16.2933C11.1717 16.2933 9.96557 16.0876 9.36249 16.0876C8.75942 16.0876 8.59861 16.1287 8.35738 16.3345C8.15635 16.5813 7.83472 16.7048 7.83472 16.7048Z" fill="#58595B"/>
<path fill-rule="evenodd" clip-rule="evenodd" d="M1.24117 20.4491C1.4422 20.408 1.68343 20.5726 1.92465 20.6548C2.16588 20.7371 2.3669 20.408 2.52772 20.4491C2.64834 20.5314 2.52772 20.8194 2.3267 20.9017C2.12568 20.984 1.80404 20.7783 1.64322 20.8194C1.4422 20.8606 1.4422 20.9429 1.32158 20.7783C1.20097 20.6548 1.24117 20.4491 1.24117 20.4491Z" fill="#404041"/>
<path fill-rule="evenodd" clip-rule="evenodd" d="M3.05042 22.5472C4.13594 22.7118 5.46269 22.9998 6.58843 22.8353C7.71416 22.6295 8.75948 21.6421 9.20173 21.5598C9.64398 21.4775 10.4481 21.5598 10.4481 21.5598C10.4481 21.5598 9.28214 22.0124 8.55845 22.3004C7.87497 22.5884 7.11109 22.9175 6.3472 23.041C5.58331 23.1233 3.73389 22.7941 3.41226 22.7118C3.13082 22.5884 3.05042 22.5472 3.05042 22.5472Z" fill="#231F20"/>
<path fill-rule="evenodd" clip-rule="evenodd" d="M3.09058 20.202C3.89467 20.0374 5.9049 18.4328 6.54818 17.8156C7.19145 17.1984 7.75432 16.787 7.75432 16.9927C7.75432 17.1984 7.35227 18.1036 7.23166 18.2271C7.15125 18.3505 7.71411 18.1448 7.6337 18.2271C7.5533 18.3094 7.11104 19.0088 7.11104 19.0088C7.11104 19.0088 7.79452 18.762 7.5935 19.0088C7.39248 19.2557 7.07084 20.0786 7.07084 20.0786C7.07084 20.0786 6.86982 20.8603 6.99043 20.9015C7.15125 20.9426 7.79452 21.1895 7.51309 21.2306C7.23166 21.2718 7.03063 21.601 7.07084 21.601C7.11104 21.601 7.43268 21.8067 7.27186 21.8067C7.11104 21.8067 6.62859 22.0947 6.58838 22.2181C6.54818 22.3416 6.30695 22.6296 6.10593 22.7119C5.9049 22.753 4.33692 22.6296 3.85447 22.5061C3.37201 22.3827 3.13078 22.177 3.25139 22.2181C3.37201 22.2593 3.77406 22.3004 3.65344 22.2593C3.53283 22.177 3.17099 21.7244 3.25139 21.7244C3.3318 21.7655 4.1359 21.601 4.01528 21.5598C3.89467 21.5187 3.21119 21.0661 3.45242 21.1484C3.65344 21.1895 4.05549 20.9838 3.85447 20.9426C3.69365 20.9015 2.96996 20.6958 3.21119 20.6958C3.45242 20.6958 3.93487 20.2843 3.85447 20.2843C3.85447 20.2432 3.09058 20.202 3.09058 20.202Z" fill="#C6C7C9"/>
<path fill-rule="evenodd" clip-rule="evenodd" d="M14.1871 9.38115C13.9861 9.66917 13.584 10.3686 13.8655 10.3275C14.1067 10.2863 15.3932 10.2452 15.2324 10.3275C15.0716 10.4098 14.6696 10.8624 14.9108 10.7389C15.152 10.6566 15.8757 10.6978 15.8757 10.6978L15.6747 10.9447C15.6747 10.9447 16.5592 10.7389 16.519 10.8212C16.4386 10.9035 16.2375 11.315 16.3179 11.2327C16.3984 11.1504 16.6798 11.0269 16.6798 11.0269L16.921 11.3561H17.2427C17.2427 11.3561 17.7251 10.0395 17.9261 9.4223C18.1272 8.80512 18.2478 7.85879 18.1272 7.24162C18.0065 6.62444 17.122 3.95002 16.72 3.53857C16.3179 3.12713 15.6747 2.83911 15.6747 2.83911C15.6747 2.83911 15.3128 4.15575 15.1922 5.06094C15.0716 5.96612 15.2324 6.62444 14.8304 7.57078C14.4685 8.51711 14.1871 9.38115 14.1871 9.38115Z" fill="#58595B"/>
<path fill-rule="evenodd" clip-rule="evenodd" d="M15.9963 9.21641C15.7149 9.05183 14.9108 8.22893 15.152 8.22893C15.3933 8.27008 15.7149 7.94092 15.7149 7.94092C15.7149 7.94092 14.7902 7.61176 15.1118 7.57061C15.4335 7.52947 16.0767 7.24145 16.1973 6.99458C16.318 6.74771 15.4737 6.4597 15.5943 6.37741C15.7149 6.25398 16.1571 5.76024 16.1571 5.76024L15.6747 5.22535C15.6747 5.22535 16.0767 4.8139 15.9561 4.60818C15.8355 4.4436 15.5943 4.19673 15.7149 4.03215C15.8355 3.90872 15.8355 3.12696 15.8355 3.12696C15.8355 3.12696 16.519 3.45612 17.2829 5.10192C18.0468 6.74771 18.0468 7.73519 18.087 8.06435C18.1272 8.39351 18.0468 8.68152 18.0066 8.4758C17.9664 8.27008 17.6045 7.85863 17.6849 8.06435C17.7653 8.27008 17.6447 9.669 17.5643 9.42213C17.4437 9.17526 17.2025 8.88725 17.2427 9.17526C17.2829 9.42213 17.2829 10.4919 17.2025 10.3685C17.0819 10.245 16.8406 10.0805 16.921 10.2862C16.9612 10.4508 17.1623 11.1914 17.1623 11.1914L16.9612 11.3559C16.3582 11.8497 19.2529 10.5742 19.0921 9.54557C19.0519 9.38099 18.69 7.03573 18.69 6.99458C18.489 6.37741 17.8055 4.56703 16.9612 3.45612C16.1571 2.38635 15.6747 1.93376 15.3933 2.01605C15.1118 2.13948 14.4685 3.82643 14.2273 4.56703C13.8655 5.38993 14.6696 7.20031 13.4634 9.21641C12.2975 11.2325 14.1469 10.2862 14.1469 10.2862L15.9963 9.21641Z" fill="#E6E7E8"/>
<path d="M8.79971 16.0053C8.99955 16.0053 9.16155 15.8395 9.16155 15.635C9.16155 15.4304 8.99955 15.2646 8.79971 15.2646C8.59987 15.2646 8.43787 15.4304 8.43787 15.635C8.43787 15.8395 8.59987 16.0053 8.79971 16.0053Z" fill="#404041"/>
<path fill-rule="evenodd" clip-rule="evenodd" d="M41.7273 40.3631C42.1696 40.9391 43.4561 42.873 43.4561 42.3381C43.4159 41.8032 42.9737 40.3631 43.2551 40.6511C43.5366 40.9391 44.4211 41.6386 44.4211 41.6386L44.6221 41.3917C43.3757 40.034 42.4108 39.6637 42.5314 39.0876C42.7727 37.8944 44.0994 34.8497 44.8231 32.1753C45.5468 29.542 45.0643 25.9624 45.0643 25.9624C45.0643 25.9624 44.9035 28.3077 44.0592 31.7638C43.2149 35.22 41.5665 35.8372 41.5665 36.2898C41.5665 36.7424 37.0636 31.4758 37.0636 31.4758C37.0636 31.4758 37.8677 32.5867 39.5965 35.796C40.682 37.771 41.2047 39.0465 41.5665 40.61C41.6067 40.322 41.6469 40.1985 41.7273 40.3631Z" fill="#CA6928"/>
</svg>
