<svg viewBox="0 0 261 40" fill="none" xmlns="http://www.w3.org/2000/svg">
<path d="M3.31895 26.8275C2.31031 26.8275 1.49671 26.5541 0.878541 26.0072C0.292845 25.4282 -6.87462e-08 24.6401 -6.87462e-08 23.6429C-6.87462e-08 23.482 0.0324725 23.2408 0.0976124 22.9192C0.162752 22.5976 0.227705 22.3563 0.292845 22.1954C0.846064 22.2919 1.36662 22.3563 1.8547 22.3884C2.34278 22.3884 2.97729 22.3884 3.75821 22.3884C5.41769 22.3884 6.96321 22.3402 8.39497 22.2437C9.85921 22.1472 11.177 22.0345 12.3484 21.9059C13.5198 21.7773 14.5284 21.6647 15.3745 21.5682C16.2206 21.4717 16.8712 21.4234 17.3268 21.4234C17.945 21.4234 18.4819 21.7933 18.9375 22.5332C19.4256 23.2731 19.7836 24.3346 20.0113 25.7177C19.1979 25.6212 18.5307 25.5568 18.0102 25.5247C17.4896 25.4926 17.034 25.4765 16.6435 25.4765C15.2444 25.4765 13.9428 25.5568 12.7389 25.7177C11.535 25.8463 10.3961 25.9911 9.32233 26.152C8.24855 26.3129 7.22358 26.4736 6.24742 26.6345C5.27126 26.7631 4.29511 26.8275 3.31895 26.8275ZM54.6479 33.0036C54.6479 31.6526 54.8756 29.9156 55.3312 27.7925C55.7866 25.6695 56.3886 23.4017 57.1371 20.9891C54.9895 21.15 52.8256 21.359 50.6456 21.6164C48.4981 21.8738 46.627 22.0186 45.0327 22.0507C43.5685 25.4282 42.3971 28.5484 41.5185 31.4113C40.6725 34.242 40.0055 37.0084 39.5174 39.7105C38.2809 39.421 37.2559 38.9064 36.4425 38.1665C35.6289 37.4588 34.8806 36.558 34.1973 35.4644C34.4575 34.9498 34.7504 34.2902 35.0759 33.4861C35.4337 32.682 35.8405 31.717 36.2961 30.5911C36.7841 29.4331 37.321 28.0982 37.9067 26.5862C38.5249 25.0422 39.2245 23.2569 40.0055 21.2304C38.9317 20.78 38.2157 20.1527 37.8579 19.3486C38.0205 19.22 38.3785 19.0912 38.9317 18.9626C39.5174 18.8017 40.2332 18.641 41.0792 18.4801L41.7138 16.9361C42.3971 15.199 42.9501 13.7354 43.3732 12.5452C43.8286 11.3551 44.203 10.1971 44.4958 9.07117C44.8211 7.91315 45.114 6.64248 45.3743 5.25935C45.6672 3.87622 46.0089 2.12304 46.3993 3.39808e-07C47.7659 0.257345 49.0023 0.852427 50.1087 1.78528C51.2475 2.7182 52.2236 3.84393 53.0372 5.16285C52.7444 5.54885 52.3864 6.12786 51.9634 6.89988C51.5403 7.67189 51.0686 8.60481 50.548 9.69843C50.0599 10.76 49.523 11.9662 48.9373 13.3172C48.3516 14.6362 47.7171 16.0354 47.0338 17.5151C49.0511 17.2577 51.0849 17.0164 53.1348 16.7913C55.2172 16.5662 57.0556 16.4053 58.6501 16.3088C59.2358 14.6362 59.8377 13.0116 60.456 11.4355C61.1067 9.82704 61.7412 8.36355 62.3595 7.04463C62.9777 5.72571 63.5634 4.56769 64.1166 3.57057C64.7023 2.57344 65.2229 1.83353 65.6785 1.35102C66.0038 1.38319 66.4267 1.51187 66.9475 1.73703C67.5005 1.93004 68.0537 2.17129 68.6069 2.4608C69.16 2.7503 69.6644 3.07191 70.12 3.42581C70.5754 3.74742 70.8846 4.05308 71.0474 4.34258C70.4617 4.88949 69.876 5.59711 69.2903 6.46562C68.7046 7.33414 68.1189 8.33126 67.5332 9.45718C66.98 10.5831 66.4267 11.8053 65.8737 13.1242C65.3205 14.4432 64.7999 15.8102 64.3119 17.2256C64.9625 17.8046 65.288 18.5283 65.288 19.3969C65.288 20.008 65.1577 20.571 64.8976 21.0856C64.6047 21.0212 64.3119 20.9891 64.019 20.9891C63.7262 20.957 63.417 20.9247 63.0917 20.8926C62.5384 22.6297 62.034 24.3506 61.5786 26.0555C61.123 27.7604 60.7325 29.3848 60.4072 30.9288C60.1144 32.4729 59.8703 33.8883 59.6751 35.1749C59.5123 36.4615 59.431 37.5392 59.431 38.4077C59.431 38.7293 59.431 38.9867 59.431 39.1797C59.4635 39.3727 59.496 39.5336 59.5287 39.6622C58.8127 39.6301 58.2921 39.5013 57.9668 39.2762C57.6413 39.0832 57.3973 38.8581 57.2347 38.6007C57.0719 38.3756 56.9255 38.1344 56.7954 37.877C56.6651 37.6518 56.4538 37.4748 56.1609 37.3462C55.933 37.2497 55.7216 37.0246 55.5264 36.6707C55.3312 36.3168 55.1684 35.9148 55.0383 35.4644C54.9081 35.014 54.8104 34.5638 54.7455 34.1134C54.6803 33.663 54.6479 33.2931 54.6479 33.0036ZM86.0821 19.1556C88.5225 16.518 90.7025 13.7194 92.6224 10.76C94.5747 7.8005 96.3806 4.47119 98.0401 0.772014C98.8861 0.868515 99.6995 1.09368 100.48 1.44753C101.261 1.80137 101.88 2.20345 102.335 2.6538C100.546 4.77684 98.9186 6.70688 97.4544 8.44391C96.0226 10.1809 94.7048 11.8215 93.5009 13.3655C92.297 14.8774 91.1745 16.3409 90.1332 17.7563C89.1245 19.1395 88.132 20.5387 87.1559 21.9542C86.6678 23.5947 86.2122 25.2514 85.7892 26.924C85.3663 28.5966 84.992 30.2051 84.6667 31.7491C84.3413 33.261 84.081 34.6603 83.8857 35.9469C83.723 37.2658 83.6417 38.3916 83.6417 39.3245C83.2837 39.3245 82.7143 39.2441 81.9334 39.0832C81.1525 38.9546 80.3552 38.7937 79.5418 38.6007C78.7284 38.4077 77.98 38.2147 77.2967 38.0217C76.6458 37.8287 76.2554 37.6678 76.1253 37.5392C76.6458 36.6707 77.1502 35.6092 77.6383 34.3546C78.1589 33.068 78.6633 31.7329 79.1514 30.3498C79.6394 28.9344 80.1112 27.5192 80.5668 26.1037C81.0224 24.6562 81.4453 23.3213 81.8358 22.0989C81.0224 19.5899 80.2251 17.2417 79.4442 15.0543C78.6958 12.8347 77.9636 10.8403 77.2479 9.07117C76.5321 7.26974 75.8487 5.72571 75.1979 4.43908C74.5471 3.15246 73.9289 2.17129 73.3432 1.49578C73.6685 1.36712 74.1566 1.23843 74.8074 1.10977C75.4908 0.981107 76.2229 0.852426 77.0038 0.723763C77.8172 0.5951 78.6308 0.4986 79.4442 0.434259C80.2903 0.337757 81.0385 0.273416 81.6894 0.241255C81.6894 1.04543 81.7545 2.02654 81.8846 3.18456C82.0474 4.34258 82.2426 5.58096 82.4703 6.89988C82.7307 8.2188 83.0235 9.55368 83.3489 10.9047C83.6742 12.2557 83.9997 13.4941 84.325 14.62C84.6503 15.7459 84.9595 16.7269 85.2524 17.5633C85.5777 18.3675 85.8544 18.8982 86.0821 19.1556ZM131.634 9.21592C131.634 11.2104 131.081 12.9956 129.975 14.5718C128.867 16.1158 127.354 17.4024 125.436 18.4318C126.671 19.2683 127.647 20.2975 128.364 21.5199C129.111 22.71 129.487 24.029 129.487 25.4765C129.487 27.2135 128.95 28.9344 127.876 30.6393C126.834 32.312 125.436 33.8077 123.678 35.1267C121.921 36.4133 119.92 37.4588 117.675 38.263C115.429 39.0671 113.135 39.4692 110.793 39.4692C108.255 39.4692 106.026 38.9867 104.106 38.0217C102.219 37.0888 100.738 35.7539 99.6644 34.0169C99.9897 33.0519 100.413 31.8617 100.933 30.4463C101.487 28.9988 102.088 27.4869 102.739 25.9107C103.39 24.3023 104.041 22.71 104.692 21.1339C105.375 19.5578 106.009 18.1423 106.595 16.8878C107.832 14.1537 108.938 11.8859 109.914 10.0844C110.89 8.28301 111.785 6.85163 112.599 5.79011C110.809 6.33701 109.182 6.96428 107.718 7.67189C106.254 8.34741 105.18 9.00677 104.496 9.65018C104.204 9.45718 103.894 9.16767 103.569 8.78166C103.276 8.39566 102.983 7.97754 102.691 7.52714C102.43 7.04463 102.202 6.56212 102.007 6.07961C101.844 5.59711 101.747 5.16285 101.714 4.77684C102.56 4.19783 103.65 3.65092 104.984 3.13631C106.351 2.5894 107.832 2.12304 109.426 1.73703C111.02 1.35103 112.647 1.04543 114.307 0.820265C115.999 0.5951 117.609 0.48251 119.139 0.48251C123.043 0.48251 126.102 1.25452 128.315 2.79855C130.527 4.34258 131.634 6.48177 131.634 9.21592ZM113.038 20.7479C112.42 20.4584 111.85 20.0241 111.33 19.4451C110.581 21.0856 109.865 22.6941 109.182 24.2702C108.531 25.8463 107.945 27.31 107.425 28.661C106.904 30.0121 106.481 31.1862 106.156 32.1833C105.831 33.1805 105.651 33.9042 105.619 34.3546C106.075 34.612 106.611 34.805 107.23 34.9337C107.881 35.0623 108.678 35.1267 109.621 35.1267C111.834 35.1267 113.949 34.821 115.966 34.2099C117.984 33.5988 119.757 32.7785 121.286 31.7491C122.816 30.6876 124.036 29.4813 124.948 28.1303C125.858 26.7792 126.314 25.3638 126.314 23.8842C126.314 21.7612 125.387 20.2333 123.532 19.3004C120.994 20.3298 118.13 20.8444 114.941 20.8444C114.486 20.8444 114.128 20.8444 113.868 20.8444C113.64 20.8444 113.363 20.8123 113.038 20.7479ZM122.507 4.00483C121.823 4.00483 121.091 4.05308 120.31 4.14958C119.562 4.21397 118.765 4.32644 117.919 4.48733C118.049 4.61594 118.146 4.76069 118.211 4.92159C118.309 5.0502 118.39 5.19495 118.455 5.35585C118.163 5.74186 117.805 6.30472 117.382 7.04463C116.959 7.78454 116.487 8.65306 115.966 9.65018C115.446 10.6152 114.893 11.6929 114.307 12.883C113.754 14.0731 113.184 15.2955 112.599 16.5501C113.152 16.4215 113.819 16.3249 114.6 16.2606C115.413 16.1641 116.21 16.1158 116.991 16.1158C117.414 16.1158 117.821 16.1319 118.211 16.1641C118.634 16.1962 119.041 16.2444 119.432 16.3088C120.994 16.0514 122.393 15.6815 123.629 15.199C124.899 14.6844 125.988 14.1054 126.9 13.462C127.81 12.7865 128.511 12.0466 128.999 11.2425C129.487 10.4383 129.731 9.58578 129.731 8.68516C129.731 7.14113 129.111 5.98311 127.876 5.2111C126.639 4.40698 124.85 4.00483 122.507 4.00483ZM153.005 15.2473C154.079 15.2473 154.908 15.5368 155.494 16.1158C156.112 16.6948 156.421 17.4989 156.421 18.5283C156.421 18.7857 156.389 19.0591 156.324 19.3486C156.292 19.606 156.243 19.8311 156.177 20.0241C155.755 19.9597 155.282 19.9115 154.762 19.8794C154.242 19.815 153.622 19.7829 152.907 19.7829C151.509 19.7829 150.093 19.9115 148.661 20.1689C147.229 20.394 145.862 20.587 144.561 20.7479C143.812 22.4528 143.129 24.1093 142.511 25.7177C141.893 27.2939 141.357 28.7414 140.9 30.0603C140.478 31.3792 140.136 32.5211 139.875 33.4861C139.648 34.4511 139.517 35.1749 139.485 35.6574C142.121 35.1105 144.773 34.6441 147.441 34.2581C150.142 33.8721 152.973 33.5826 155.933 33.3896C156.292 33.9365 156.585 34.5315 156.812 35.1749C157.073 35.8183 157.202 36.5098 157.202 37.2497C157.202 37.4427 157.202 37.6518 157.202 37.877C157.202 38.1021 157.17 38.3274 157.105 38.5525C156.194 38.5204 155.233 38.4881 154.225 38.456C153.217 38.456 151.899 38.456 150.272 38.456C149.198 38.456 148.173 38.4721 147.197 38.5042C146.252 38.5686 145.293 38.649 144.317 38.7455C143.341 38.842 142.299 38.9706 141.193 39.1315C140.119 39.2924 138.899 39.4854 137.533 39.7105C136.037 39.1315 134.587 37.7161 133.189 35.4644C133.743 34.3064 134.507 32.5532 135.483 30.2051C136.491 27.8246 137.76 24.6562 139.29 20.6996C137.826 20.2492 136.866 19.4451 136.41 18.2871C136.573 18.1262 137.045 17.9332 137.826 17.7081C138.606 17.4507 139.566 17.1935 140.705 16.9361C141.193 15.6815 141.601 14.5879 141.925 13.655C142.284 12.7221 142.592 11.8536 142.853 11.0495C143.114 10.213 143.341 9.40893 143.536 8.63691C143.763 7.83279 143.975 6.96428 144.171 6.03136C143.031 5.96697 142.138 5.6615 141.486 5.1146C140.835 4.53558 140.51 3.79568 140.51 2.89505C140.51 2.63765 140.542 2.33213 140.608 1.97829C140.705 1.62444 140.803 1.31886 140.9 1.06152C141.552 1.15802 142.169 1.22236 142.755 1.25452C143.373 1.28668 144.171 1.30277 145.147 1.30277C147.197 1.30277 149.117 1.25452 150.906 1.15802C152.695 1.02936 154.306 0.900677 155.738 0.772014C157.202 0.643351 158.454 0.530761 159.496 0.434259C160.538 0.305596 161.334 0.241255 161.888 0.241255C162.637 0.241255 163.303 0.627262 163.889 1.39928C164.475 2.17129 164.914 3.26492 165.207 4.68034C164.199 4.58384 163.369 4.51944 162.718 4.48733C162.1 4.45523 161.546 4.43908 161.058 4.43908C159.269 4.43908 157.625 4.53558 156.129 4.72859C154.664 4.88949 153.249 5.06634 151.882 5.25935C151.687 5.54885 151.46 5.91872 151.199 6.36912C150.972 6.81952 150.662 7.44678 150.272 8.25091C149.881 9.05502 149.393 10.0683 148.807 11.2907C148.254 12.5131 147.57 14.041 146.757 15.8745C147.994 15.6815 149.149 15.5368 150.223 15.4403C151.328 15.3117 152.256 15.2473 153.005 15.2473ZM164.786 39.4692C163.224 39.0188 162.134 38.5686 161.516 38.1182C160.93 37.6678 160.638 37.1049 160.638 36.4294C160.638 35.9148 160.784 35.1911 161.077 34.2581C161.37 33.3252 161.792 32.2316 162.346 30.9771C162.932 29.6905 163.615 28.275 164.396 26.731C165.209 25.187 166.121 23.5303 167.129 21.7612C166.282 21.7291 165.518 21.7129 164.835 21.7129C164.184 21.6808 163.647 21.6647 163.224 21.6647C163.42 21.1821 163.973 20.764 164.884 20.4101C165.794 20.0562 167 19.7508 168.496 19.4934C169.765 17.4024 171.114 15.4082 172.547 13.5103C174.011 11.6123 175.475 9.87529 176.939 8.29916C178.404 6.69073 179.868 5.29145 181.332 4.10133C182.796 2.87891 184.195 1.91395 185.53 1.20627C185.562 0.981108 185.579 0.788103 185.579 0.627261C185.61 0.466418 185.627 0.353847 185.627 0.289506C186.083 0.289506 186.684 0.402096 187.433 0.627261C188.214 0.852426 188.963 1.12586 189.678 1.44753C190.427 1.76919 191.077 2.10695 191.631 2.4608C192.216 2.78241 192.541 3.05595 192.607 3.28106C191.533 5.1467 190.476 7.94525 189.434 11.6767C188.392 15.3759 187.531 19.815 186.848 24.994C186.684 26.2806 186.538 27.7443 186.408 29.3848C186.311 31.0253 186.262 32.8589 186.262 34.8854C186.262 35.593 186.262 36.3168 186.262 37.0567C186.262 37.7966 186.294 38.5686 186.359 39.3727C186.294 39.4048 186.23 39.421 186.164 39.421C186.098 39.421 185.969 39.421 185.774 39.421C185.318 39.421 184.781 39.3406 184.163 39.1797C183.577 39.0511 182.992 38.8741 182.406 38.649C181.852 38.456 181.364 38.2309 180.942 37.9735C180.551 37.7161 180.307 37.491 180.21 37.2979C180.178 36.8798 180.161 36.4615 180.161 36.0434C180.161 35.6574 180.161 35.2393 180.161 34.7889C180.161 32.7945 180.227 30.7679 180.356 28.7093C180.519 26.6506 180.778 24.5276 181.137 22.3402C180.681 22.3081 180.08 22.2758 179.331 22.2437C178.582 22.1793 177.737 22.131 176.793 22.0989C175.883 22.0668 174.89 22.0345 173.816 22.0024C172.774 21.938 171.749 21.8898 170.741 21.8577C169.96 23.3052 169.228 24.7527 168.545 26.2002C167.861 27.6157 167.276 29.047 166.787 30.4946C166.234 32.0386 165.779 33.5826 165.421 35.1267C165.096 36.6707 164.884 38.1182 164.786 39.4692ZM183.626 10.4704C183.756 10.02 183.902 9.40893 184.065 8.63691C184.261 7.83279 184.439 6.99638 184.602 6.12787C183.789 6.41737 182.877 6.94813 181.869 7.72014C180.893 8.49216 179.868 9.45718 178.794 10.6152C177.752 11.7411 176.679 13.0277 175.573 14.4753C174.499 15.8907 173.457 17.4024 172.449 19.0109C175.182 18.7857 178.289 18.641 181.771 18.5766C182.032 17.2256 182.308 15.8907 182.601 14.5718C182.926 13.2207 183.268 11.8536 183.626 10.4704ZM227.095 9.21592C227.095 10.76 226.737 12.2236 226.022 13.6068C225.338 14.9578 224.377 16.1802 223.142 17.2738C221.905 18.3353 220.457 19.236 218.798 19.9759C217.139 20.7158 215.333 21.2143 213.38 21.4717C213.868 22.9192 214.454 24.415 215.137 25.959C215.853 27.4709 216.617 28.9344 217.431 30.3498C218.244 31.7652 219.091 33.068 219.969 34.2581C220.848 35.4483 221.71 36.4294 222.556 37.2014C222.393 37.5231 222.149 37.8449 221.824 38.1665C221.531 38.4881 221.173 38.7776 220.75 39.035C220.36 39.3245 219.936 39.5496 219.481 39.7105C219.057 39.9035 218.652 40 218.261 40C217.544 40 216.861 39.6622 216.211 38.9867C215.56 38.3112 214.893 37.2497 214.21 35.8022C213.559 34.3225 212.858 32.4246 212.111 30.1086C211.394 27.7604 210.598 24.9457 209.72 21.6647C209.361 21.6647 209.003 21.6647 208.646 21.6647C208.287 21.6647 208.011 21.6325 207.816 21.5682C207.587 21.4395 207.343 21.2143 207.084 20.8926C206.206 22.7583 205.425 24.5115 204.741 26.152C204.058 27.7925 203.438 29.3848 202.887 30.9288C202.365 32.4408 201.894 33.9204 201.471 35.3679C201.081 36.7833 200.739 38.2309 200.446 39.7105C199.339 39.4531 198.379 38.9867 197.566 38.3112C196.752 37.6357 195.988 36.6868 195.273 35.4644C195.402 35.1749 195.532 34.9015 195.663 34.6441C195.824 34.3546 196.02 33.9686 196.249 33.4861C196.476 32.9715 196.752 32.3281 197.078 31.5561C197.435 30.7841 197.891 29.7547 198.445 28.468C199.031 27.1814 199.714 25.6051 200.495 23.7394C201.308 21.8738 202.284 19.606 203.423 16.9361C203.943 15.7459 204.383 14.7004 204.741 13.7998C205.132 12.8991 205.473 12.0466 205.766 11.2425C206.059 10.406 206.318 9.58578 206.547 8.78166C206.806 7.94525 207.067 6.99638 207.328 5.93486C205.83 6.44948 204.432 7.02849 203.131 7.67189C201.862 8.28301 200.803 8.94256 199.958 9.65018C199.665 9.45718 199.355 9.16767 199.031 8.78166C198.738 8.39566 198.46 7.97754 198.201 7.52714C197.94 7.04463 197.713 6.56212 197.518 6.07961C197.322 5.59711 197.208 5.16285 197.176 4.77684C198.152 4.13343 199.339 3.53846 200.739 2.99156C202.169 2.44465 203.683 1.97829 205.278 1.59228C206.872 1.17411 208.499 0.852426 210.159 0.627261C211.818 0.402096 213.363 0.289506 214.796 0.289506C218.7 0.289506 221.726 1.09368 223.874 2.70205C226.022 4.27818 227.095 6.44947 227.095 9.21592ZM215.186 5.16285C214.957 5.45235 214.6 6.03136 214.112 6.89988C213.624 7.76839 213.054 8.81377 212.404 10.0362C211.785 11.2263 211.118 12.5291 210.403 13.9445C209.72 15.3599 209.051 16.7592 208.402 18.1423C210.842 18.1423 213.087 17.9172 215.137 17.4668C217.187 17.0164 218.959 16.3892 220.457 15.585C221.954 14.7486 223.108 13.7836 223.923 12.69C224.768 11.5641 225.192 10.3257 225.192 8.97467C225.192 7.36624 224.606 6.14401 223.435 5.3076C222.263 4.43908 220.457 4.00483 218.017 4.00483C217.463 4.00483 216.909 4.03693 216.358 4.10133C215.804 4.13343 215.218 4.18168 214.6 4.24608L215.186 5.16285ZM244.308 26.8275C243.3 26.8275 242.487 26.5541 241.867 26.0072C241.282 25.4282 240.989 24.6401 240.989 23.6429C240.989 23.482 241.022 23.2408 241.086 22.9192C241.152 22.5976 241.218 22.3563 241.282 22.1954C241.835 22.2919 242.355 22.3563 242.843 22.3884C243.331 22.3884 243.966 22.3884 244.747 22.3884C246.406 22.3884 247.953 22.3402 249.384 22.2437C250.848 22.1472 252.166 22.0345 253.337 21.9059C254.509 21.7773 255.518 21.6647 256.363 21.5682C257.21 21.4717 257.861 21.4234 258.316 21.4234C258.935 21.4234 259.472 21.7933 259.926 22.5332C260.414 23.2731 260.773 24.3346 261 25.7177C260.187 25.6212 259.521 25.5568 258.999 25.5247C258.479 25.4926 258.023 25.4765 257.632 25.4765C256.234 25.4765 254.933 25.5568 253.728 25.7177C252.524 25.8463 251.385 25.9911 250.311 26.152C249.237 26.3129 248.212 26.4736 247.236 26.6345C246.26 26.7631 245.284 26.8275 244.308 26.8275Z" fill="#E27945"/>
</svg>
