<svg viewBox="0 0 171 80" fill="none" xmlns="http://www.w3.org/2000/svg">
<path d="M95.004 18.8855C91.6863 18.8855 89 22.4643 89 26.8855H101C101 22.4671 98.3189 18.8855 95.004 18.8855Z" fill="#E27945"/>
<ellipse cx="136.5" cy="28.3855" rx="28.5" ry="2.5" fill="#616161"/>
<path d="M152.554 14.8157C152.554 14.8157 150.953 18.722 151.333 20.2411C151.713 21.7602 153.178 24.3372 153.178 24.3372L158.305 21.4618L159.525 14.8157H152.554Z" fill="#AEB4B5"/>
<path d="M158.25 8.52205C158.25 8.52205 154.398 7.30134 153.178 8.06089C151.957 8.84758 148.593 11.289 149.081 12.3198C149.57 13.3507 150.546 15.7378 152.879 15.6836C155.212 15.6293 157.084 15.2495 157.084 15.2495C157.084 15.2495 154.452 16.3617 154.263 17.4468C154.073 18.559 155.429 20.7292 155.429 20.7292C155.429 20.7292 151.631 22.3297 150.058 26.0732C148.485 29.8167 148.457 30.7119 149.624 31.58C150.79 32.448 158.06 35.649 162.943 33.3975C167.826 31.146 165.276 30.2236 165.575 26.7514C165.873 23.2791 166.741 18.4505 165.032 17.0399C163.323 15.6293 162.536 15.0054 161.804 13.8389C161.044 12.6725 160.203 10.5566 159.525 10.0683C158.847 9.58 164.706 5.78223 164.706 5.78223L158.25 8.52205Z" fill="#DADBDD"/>
<path d="M155.483 20.4852C155.538 20.4309 155.755 20.1325 155.863 19.9969C155.863 19.9155 155.863 19.8341 155.863 19.7799C155.809 19.2373 155.7 18.6677 155.755 18.1523C155.863 17.0401 156.27 16.0906 156.948 15.3853C156.948 15.3582 156.948 15.3311 156.948 15.3311C156.379 15.6023 154.453 16.5246 154.317 17.447C154.154 18.3964 155.131 20.1597 155.402 20.6208C155.402 20.5666 155.456 20.5123 155.483 20.4852Z" fill="#CCCDCF"/>
<path d="M161.587 33.5061C160.692 33.3976 159.769 33.262 158.874 33.1263C158.793 33.1263 158.549 33.0721 158.386 33.0721C158.25 33.0721 158.115 33.0449 157.979 33.0449C156.189 32.8008 154.534 32.3668 152.771 31.9599C150.79 31.4987 149.543 29.22 150.112 27.294C150.628 25.5579 151.713 24.1202 152.988 22.8723C153.53 22.3298 154.127 21.8144 154.67 21.299C154.805 21.1633 154.941 21.0548 155.076 20.9192C154.127 21.4075 151.333 23.0351 150.031 26.1004C148.43 29.8168 148.43 30.7392 149.597 31.6072C150.709 32.421 157.491 35.4321 162.346 33.6417C162.102 33.5604 161.831 33.5332 161.587 33.5061Z" fill="#CCCDCF"/>
<path d="M152.201 15.6021C151.523 15.3037 150.926 14.7883 150.519 14.083C149.841 12.9437 149.787 11.3974 150.519 10.2581C150.628 10.0682 150.763 9.90544 150.899 9.74268C149.787 10.665 148.81 11.7229 149.081 12.3197C149.515 13.2421 150.356 15.2495 152.201 15.6021Z" fill="#CCCDCF"/>
<path d="M157.762 9.14607C157.762 9.14607 162.048 4.07332 163.377 3.58504C164.734 3.09675 168.45 2.90686 168.884 2.96112C169.318 3.01537 167.853 6.27061 166.063 7.11154C164.3 7.97961 157.762 9.14607 157.762 9.14607Z" fill="#DADBDD"/>
<path d="M158.305 10.1769C158.305 10.1769 163.784 5.29409 166.063 5.78237C168.314 6.27066 171 7.62701 171 7.62701C171 7.62701 167.88 11.2891 165.629 11.4519C163.377 11.6418 158.847 11.2078 158.305 10.1769Z" fill="#AEB4B5"/>
<path d="M161.316 35.6765C163.038 35.6765 164.435 34.2798 164.435 32.5569C164.435 30.8339 163.038 29.4373 161.316 29.4373C159.593 29.4373 158.196 30.8339 158.196 32.5569C158.196 34.2798 159.593 35.6765 161.316 35.6765Z" fill="#DADBDD"/>
<path d="M155.049 11.3978C155.484 11.3978 155.836 11.0456 155.836 10.6111C155.836 10.1767 155.484 9.82446 155.049 9.82446C154.615 9.82446 154.263 10.1767 154.263 10.6111C154.263 11.0456 154.615 11.3978 155.049 11.3978Z" fill="#31333B"/>
<path d="M154.642 10.584C154.852 10.584 155.022 10.414 155.022 10.2042C155.022 9.9945 154.852 9.82446 154.642 9.82446C154.433 9.82446 154.263 9.9945 154.263 10.2042C154.263 10.414 154.433 10.584 154.642 10.584Z" fill="white"/>
<path d="M149.027 11.8588C149.027 11.479 149.325 12.2386 149.705 12.2386C150.085 12.2386 150.383 11.5061 150.383 11.8588C150.383 12.2386 150.085 12.7811 149.705 12.7811C149.325 12.7811 149.027 12.2386 149.027 11.8588Z" fill="#AEB4B5"/>
<path d="M85.156 6.1764C85.156 6.1764 88.8544 2.52699 88.7319 0.0532227C88.7319 0.0532227 84.1518 2.20858 85.156 6.1764Z" fill="#AEB4B5"/>
<path d="M81.8249 7.84211C81.8249 7.84211 80.7962 3.164 76.8774 1.32705C72.9586 -0.485413 73.179 0.886178 73.0076 1.32705C72.8606 1.76792 74.869 6.73993 77.7592 7.84211C80.6493 8.91978 81.8249 7.84211 81.8249 7.84211Z" fill="#AEB4B5"/>
<path d="M77.049 18.3491C77.049 18.3491 73.7914 22.8068 74.2813 24.3008C74.7712 25.7949 77.9307 30.473 77.9307 30.473C77.9307 30.473 75.9958 30.3015 75.3835 30.8649C74.7712 31.4282 73.1301 32.6773 73.669 33.3386C74.2323 33.9999 75.8243 33.1672 77.9062 32.5549C80.0126 31.9426 84.5682 30.7424 84.5682 30.7424C84.5682 30.7424 87.3359 31.5752 87.7768 31.1833C88.2177 30.7914 89.9321 28.5381 90.0301 27.044C90.1281 25.55 88.879 20.8229 87.1645 19.3778C85.4745 17.9817 77.049 18.3491 77.049 18.3491Z" fill="#AEB4B5"/>
<path d="M88.6583 21.5824C86.6499 23.2479 84.617 25.4278 84.3966 28.0975C84.3966 28.1465 84.3966 28.1954 84.3721 28.2444C84.4211 28.5873 84.3231 28.9302 84.0292 29.1996C83.6128 29.616 82.7066 29.7385 82.2902 29.1996C82.2412 29.1262 82.1922 29.0527 82.1433 28.9792C81.8738 29.5181 81.335 29.8365 80.7227 29.665C80.4533 29.5915 80.2083 29.3956 80.0369 29.1752C79.743 29.1017 79.4736 28.9057 79.3266 28.6118C78.8612 27.5097 78.9347 26.3095 79.1307 25.1584C78.5918 24.2766 77.906 23.5663 77.3182 22.7091C76.7304 21.8518 76.3385 20.8966 75.9711 19.9414C75.0649 21.362 73.9872 23.3704 74.3056 24.2766C74.7954 25.7707 77.955 30.4488 77.955 30.4488C77.955 30.4488 76.0201 30.2773 75.4078 30.8407C74.7954 31.404 73.1544 32.6531 73.6933 33.3144C74.2566 33.9757 75.8486 33.143 77.9305 32.5307C80.0369 31.9183 84.5925 30.7182 84.5925 30.7182C84.5925 30.7182 87.3602 31.5509 87.8011 31.1591C88.2419 30.7672 89.9564 28.5139 90.0544 27.0198C90.1279 26.0646 89.5645 23.5418 88.6583 21.5824Z" fill="#CCCDCF"/>
<path d="M82.5107 6.1275H83.0006C83.0006 6.1275 83.4414 3.33533 84.0048 2.60055C84.7885 1.52287 88.5114 -0.338572 88.7318 0.0533116C88.9523 0.445195 86.405 2.06171 86.0866 3.06591C85.7437 4.07012 85.2049 5.56417 85.3763 5.78461C85.5478 6.00504 89.3932 7.67054 89.3932 8.60126C89.3932 9.53199 88.7808 10.3158 88.1195 11.026C87.4582 11.7363 87.5562 12.961 86.8949 13.4508C86.2336 13.9407 87.4582 14.1121 87.6052 15.3368C87.7766 16.5614 88.4379 20.3578 88.095 20.8476C87.7766 21.3375 85.009 25.0359 84.8375 25.4767C84.6661 25.9176 84.0537 28.9547 83.4659 29.0037C82.8536 29.0527 81.9719 27.7791 82.1923 26.0891C82.4127 24.3746 82.0698 22.5621 84.3477 20.1863C84.3477 20.1863 83.2945 21.2395 82.5352 21.3375C81.7514 21.4599 80.8697 19.7944 80.8697 19.7944C80.8697 19.7944 82.2413 22.3417 82.1923 23.1009C82.1433 23.8847 82.5842 28.7343 81.4085 29.0037C80.2574 29.2731 79.5226 28.2199 79.4736 27.9505C79.4246 27.6811 79.6451 25.1338 79.4736 24.8644C79.3022 24.595 75.5058 20.4557 76.0446 19.1821C76.608 17.9085 78.6409 13.0589 79.4001 12.3976C80.1839 11.7363 80.1839 9.18909 81.0656 7.86648C81.9964 6.56837 74.1587 0.420702 74.1587 0.420702C74.1587 0.420702 79.5716 0.837078 82.5107 6.1275Z" fill="#DADBDD"/>
<path d="M85.205 29.9345C85.205 29.9345 83.2701 31.9184 83.0007 32.4817C82.7313 33.045 83.0007 34.1472 83.613 34.3676C84.2253 34.5881 86.9195 33.8778 86.9195 33.8778C86.9195 33.8778 88.4136 30.5713 88.1931 29.959C87.9482 29.3221 85.205 29.9345 85.205 29.9345Z" fill="#DADBDD"/>
<path d="M82.4373 12.6182C82.4373 12.6182 83.3925 13.9408 85.5478 13.7203C85.5478 13.7203 82.8291 14.4551 82.4373 12.6182Z" fill="#AEB4B5"/>
<path d="M83.368 9.01774C83.7603 9.01774 84.0783 8.69974 84.0783 8.30746C84.0783 7.91518 83.7603 7.59717 83.368 7.59717C82.9757 7.59717 82.6577 7.91518 82.6577 8.30746C82.6577 8.69974 82.9757 9.01774 83.368 9.01774Z" fill="#31333B"/>
<path d="M83.0006 8.30713C83.19 8.30713 83.3435 8.15361 83.3435 7.96424C83.3435 7.77486 83.19 7.62134 83.0006 7.62134C82.8112 7.62134 82.6577 7.77486 82.6577 7.96424C82.6577 8.15361 82.8112 8.30713 83.0006 8.30713Z" fill="white"/>
<path d="M87.8746 8.65021C87.8746 8.30731 88.1441 8.99311 88.487 8.99311C88.8298 8.99311 89.0993 8.33181 89.0993 8.65021C89.0993 8.99311 88.8298 9.48296 88.487 9.48296C88.1441 9.48296 87.8746 8.96862 87.8746 8.65021Z" fill="#AEB4B5"/>
<path d="M111.572 56.5735C99.0047 56.5735 88.8267 61.94 88.8267 68.5712H134.33C134.323 61.94 124.137 56.5735 111.572 56.5735Z" fill="#008BDD"/>
<path d="M6.20018 74.2876C3.0633 74.2876 0.518799 76.4772 0.518799 79.1791H11.884C11.884 76.4772 9.33956 74.2876 6.20018 74.2876Z" fill="#E27945"/>
<path d="M88.8192 48.1702C85.6798 48.1702 83.1378 51.4195 83.1378 55.4337H94.4931C94.4931 51.422 91.9561 48.1702 88.8192 48.1702Z" fill="#E27945"/>
<path d="M138.122 66.199C133.123 66.199 129.084 67.8261 129.084 69.8308H147.158C147.158 67.8261 143.114 66.199 138.122 66.199Z" fill="#E27945"/>
</svg>
