<svg viewBox="0 0 87 162" fill="none" xmlns="http://www.w3.org/2000/svg">
<path d="M55.1167 0L24.1877 126.983H86.0482L55.1167 0Z" fill="#FED892"/>
<path d="M30.9315 0L0 138.036H61.8605L30.9315 0Z" fill="#008BDD"/>
<path d="M31.099 137.421V13.4248" stroke="#FED385" stroke-width="2" stroke-linecap="round" stroke-linejoin="round"/>
<path d="M31.099 54.3144L37.8202 47.0083" stroke="#FED385" stroke-width="2" stroke-linecap="round" stroke-linejoin="round"/>
<path d="M31.099 89.305L41.1995 78.3271" stroke="#FED385" stroke-width="2" stroke-linecap="round" stroke-linejoin="round"/>
<path d="M31.099 125.808L46.8084 108.731" stroke="#FED385" stroke-width="2" stroke-linecap="round" stroke-linejoin="round"/>
<path d="M31.099 54.3144L24.3778 47.0083" stroke="#FED385" stroke-width="2" stroke-linecap="round" stroke-linejoin="round"/>
<path d="M31.099 89.305L21.001 78.3271" stroke="#FED385" stroke-width="2" stroke-linecap="round" stroke-linejoin="round"/>
<path d="M31.099 125.808L15.3895 108.731" stroke="#FED385" stroke-width="2" stroke-linecap="round" stroke-linejoin="round"/>
<path d="M53.0722 98.1536H53.0697C43.7255 98.1536 36.1505 105.729 36.1505 115.073V130.515C36.1505 139.859 43.7255 147.434 53.0697 147.434H53.0722C62.4164 147.434 69.9914 139.859 69.9914 130.515V115.073C69.9914 105.729 62.4164 98.1536 53.0722 98.1536Z" fill="#1976D2"/>
<path d="M53.0697 160.291V113.528" stroke="#FED385" stroke-width="2" stroke-linecap="round" stroke-linejoin="round"/>
<path d="M53.0697 133.414C62.3179 133.414 62.3179 127.845 62.3179 119.417" stroke="#FED385" stroke-width="2" stroke-linecap="round" stroke-linejoin="round"/>
<path d="M53.0697 124.896C46.6584 124.896 46.6584 121.029 46.6584 115.188" stroke="#FED385" stroke-width="2" stroke-linecap="round" stroke-linejoin="round"/>
<path d="M18.7462 158.199C13.7472 158.199 9.70801 159.826 9.70801 161.831H27.777C27.777 159.826 23.7378 158.199 18.7462 158.199Z" fill="#E27945"/>
</svg>
