<svg width="52" height="58" viewBox="0 0 52 58" fill="none" xmlns="http://www.w3.org/2000/svg">
<g clip-path="url(#clip0)">
<path d="M48.7445 28.5294C48.7445 25.5507 46.3513 23.136 43.3991 23.136C43.2091 23.136 43.0219 23.1463 42.8372 23.1658L50.1792 1.31738H18.9784L26.3099 23.1469C26.2025 23.1403 26.0944 23.136 25.9851 23.136C23.0329 23.136 20.6397 25.5507 20.6397 28.5294C20.6397 30.9371 22.2036 32.9755 24.3622 33.6691C23.222 35.6616 21.7876 37.4561 20.1589 39.0063C17.9442 41.1144 15.4096 42.7128 12.6685 43.6978C9.40467 42.0061 7.86335 38.2437 9.25415 34.9451C9.41117 34.5727 9.57143 34.195 9.72479 33.8191C12.0892 33.2623 13.8511 31.1234 13.8511 28.5682C13.8511 25.5895 11.4579 23.1748 8.50563 23.1748C5.55321 23.1748 3.15999 25.5895 3.15999 28.5682C3.15999 30.3949 4.06085 32.008 5.43763 32.9837C4.11448 36.0233 2.16976 39.2041 1.56384 42.8907C0.837666 47.3091 1.5616 51.9991 5.34887 54.6477C14.1694 60.8158 23.7439 50.824 33.839 48.3121C37.4975 47.4018 41.5134 47.5485 44.7368 45.6648C47.1575 44.2503 48.7532 41.9061 49.2062 39.2742C49.6535 36.6742 49.0012 34.0855 47.5014 31.9865C48.2771 31.0503 48.7445 29.8452 48.7445 28.5294ZM31.3302 28.5485C31.3302 28.5421 31.3308 28.5358 31.3308 28.5294C31.3308 26.5734 30.2985 24.8605 28.7539 23.915L34.5893 12.0095L40.4348 24.0413C38.9994 25.0082 38.0534 26.6572 38.0534 28.5294C38.0534 28.5688 38.0556 28.6075 38.0565 28.6467L31.3302 28.5485Z" fill="#C63D14"/>
<path d="M50.0498 28.5292C50.0498 25.2532 47.7104 22.5196 44.6288 21.9357L52 0H17.1572L24.5395 21.9802C21.5652 22.6481 19.3341 25.33 19.3341 28.5292C19.3341 30.9318 20.5924 33.0422 22.4784 34.228C21.5713 35.5915 20.4955 36.8747 19.2628 38.048C17.3079 39.9089 15.1298 41.3202 12.7816 42.2486C10.4167 40.7496 9.41688 37.923 10.4553 35.4603L10.5365 35.2677C10.5873 35.1472 10.6383 35.0263 10.6891 34.9053C13.2866 33.9915 15.1564 31.4967 15.1564 28.568C15.1564 24.8677 12.1727 21.8574 8.50526 21.8574C4.83784 21.8574 1.85434 24.8677 1.85434 28.568C1.85434 30.4357 2.61504 32.1269 3.83948 33.3447C3.61746 33.8222 3.38407 34.3075 3.14418 34.8047C2.02455 37.1249 0.755632 39.7548 0.275648 42.6751C-0.677618 48.4749 0.859835 53.1112 4.60485 55.73C6.87741 57.3192 9.18512 57.9443 11.5074 57.944C15.8805 57.9438 20.304 55.7273 24.6305 53.559C27.7467 51.9975 30.9686 50.3827 34.1514 49.5908C35.3356 49.2961 36.5542 49.1188 37.8442 48.9311C40.4024 48.5587 43.0479 48.1738 45.3911 46.8046C48.1071 45.2172 49.9665 42.5546 50.4922 39.4994C50.9436 36.8767 50.4002 34.2501 49.0754 32.0224C49.6931 31.0042 50.0498 29.8081 50.0498 28.5292ZM47.4388 28.5292C47.4388 30.7769 45.6266 32.6056 43.3987 32.6056C41.1712 32.6056 39.3587 30.7769 39.3587 28.5292C39.3587 26.2816 41.1712 24.453 43.3987 24.453C45.6266 24.453 47.4388 26.2816 47.4388 28.5292ZM48.3578 2.63439L41.8486 22.0045C41.5665 22.0728 41.2915 22.1589 41.0244 22.2624L34.5942 9.0273L28.1454 22.1841C27.8667 22.0871 27.5799 22.0074 27.2858 21.9484L20.799 2.63439H48.3578ZM25.985 24.453C28.2126 24.453 30.0249 26.2816 30.0249 28.5292C30.0249 30.7769 28.2126 32.6056 25.985 32.6056C23.7575 32.6056 21.945 30.7769 21.945 28.5292C21.945 26.2816 23.7575 24.453 25.985 24.453ZM8.50526 24.4918C10.7331 24.4918 12.5454 26.3203 12.5454 28.568C12.5454 30.8156 10.7331 32.6444 8.50526 32.6444C6.27779 32.6444 4.4653 30.8156 4.4653 28.568C4.4653 26.3203 6.27779 24.4918 8.50526 24.4918ZM47.9196 39.0488C47.5266 41.3335 46.1279 43.3295 44.0824 44.5247C42.1757 45.639 39.8907 45.9717 37.4715 46.3236C36.1756 46.5121 34.8353 46.7072 33.5262 47.0331C30.0645 47.8943 26.7116 49.5746 23.4691 51.1997C16.9802 54.4515 11.3762 57.2597 6.09234 53.5647C2.22179 50.8582 2.40054 45.8503 2.85148 43.1061C3.2693 40.5637 4.39909 38.2222 5.49169 35.9577C5.6808 35.5659 5.86443 35.182 6.0446 34.8006C6.58654 35.0193 7.1628 35.1683 7.76344 35.2359C6.65134 38.9395 8.40044 42.9663 12.0715 44.8693L12.5739 45.1297L13.106 44.9385C16.0083 43.8958 18.6824 42.2222 21.0545 39.9643C22.5879 38.5048 23.9056 36.89 24.9891 35.1646C25.3141 35.214 25.6466 35.24 25.985 35.24C29.6524 35.24 32.6361 32.2298 32.6361 28.5292C32.6361 26.5392 31.7722 24.7496 30.404 23.5195L34.5839 14.9913L38.8062 23.682C37.5393 24.9047 36.7478 26.6249 36.7478 28.5292C36.7478 32.2298 39.7313 35.24 43.3987 35.24C44.8078 35.24 46.1149 34.7945 47.1914 34.0374C47.9389 35.5813 48.2174 37.3184 47.9196 39.0488Z" fill="white"/>
</g>
<defs>
<clipPath id="clip0">
<rect width="52" height="58" fill="white"/>
</clipPath>
</defs>
</svg>
