<svg viewBox="0 0 149 126" fill="none" xmlns="http://www.w3.org/2000/svg">
<g clip-path="url(#clip0)">
<path fill-rule="evenodd" clip-rule="evenodd" d="M85.2178 28.6344C87.5903 30.0073 88.9742 30.2034 91.3467 28.8305C91.9398 29.8112 93.3238 30.5957 94.51 30.5957C93.3238 30.9879 92.3353 30.9879 91.3467 30.0073C91.5444 30.5957 92.533 30.9879 93.1261 31.184C92.7307 31.184 92.533 31.3802 92.1375 31.3802C91.3467 31.3802 90.7536 30.9879 90.3582 30.3995C90.5559 30.9879 90.9513 31.3802 91.5444 31.5763C91.3467 31.5763 90.9513 31.5763 90.7536 31.7724C89.7651 31.5763 89.5673 31.184 89.1719 30.7918C89.3696 31.3802 89.7651 31.5763 90.1605 31.7724C89.9628 31.7724 89.5673 31.7724 89.3696 31.7724C88.7765 31.5763 88.1834 31.184 87.9857 30.3995C87.9857 30.9879 88.3811 31.3802 88.7765 31.7724C88.5788 31.7724 88.3811 31.7724 88.1834 31.5763C87.788 31.3802 87.5903 31.184 87.3926 30.7918C87.3926 30.9879 87.5903 31.184 87.788 31.3802C86.7994 30.9879 85.8109 30.2034 85.2178 28.6344Z" fill="url(#paint0_linear)"/>
<path fill-rule="evenodd" clip-rule="evenodd" d="M93.1261 0C93.1261 0 96.6848 19.8087 77.7049 34.5182C56.3525 50.7966 61.6906 75.1162 85.2178 81C73.553 81.3923 50.6189 67.0751 57.1433 44.7167C62.8768 24.7119 81.6591 23.339 93.1261 0Z" fill="url(#paint1_linear)"/>
<path fill-rule="evenodd" clip-rule="evenodd" d="M92.7306 0.784546C79.0888 44.3245 35.9885 23.7313 46.8624 62.7603C24.5215 24.5158 84.4269 21.77 92.7306 0.784546Z" fill="url(#paint2_linear)"/>
<path d="M67.8195 64.3293C68.4126 62.7603 73.553 54.523 84.2292 58.0532H84.4269C86.2063 58.6416 89.5673 59.23 92.3352 59.23C94.51 59.23 96.2894 58.8378 97.0802 57.661C97.4756 57.2687 97.6733 56.6804 97.871 56.2881C98.0687 55.6997 98.0687 55.1114 98.0687 54.7191C98.0687 53.1501 97.871 52.1695 97.871 51.5811C98.2664 51.385 98.6619 51.1888 99.0573 50.7966C99.6504 50.4043 100.046 49.816 100.244 49.0315V48.8353V48.6392C100.046 47.8547 99.8481 47.4625 99.4527 47.0702C100.244 46.4818 100.837 45.6973 101.034 45.1089C101.232 44.1283 100.441 43.3438 99.8481 42.5593C99.6504 42.3632 99.4527 42.3632 99.4527 42.167C99.4527 41.9709 100.046 41.9709 100.837 41.5787C102.023 40.7942 103.605 40.0097 104 38.8329C104.791 36.8716 103.209 35.6949 103.209 35.6949C103.209 35.6949 96.4871 30.3995 96.4871 28.4382C96.6848 27.2615 96.6848 26.0847 96.8825 25.1041C97.2779 22.9467 97.4756 20.9854 97.2779 18.2397C96.8825 14.7094 95.894 11.5714 94.1146 8.62952C95.4985 14.5133 95.894 19.0242 94.9054 24.7118C94.7077 25.6925 94.51 26.8692 94.51 28.2421C94.3123 31.184 101.43 36.8717 101.825 37.2639C101.825 37.2639 102.221 37.6562 102.023 38.2445C101.825 38.6368 100.639 39.4213 99.6504 40.0097C98.4642 40.7942 97.4756 41.3825 97.4756 42.167C97.4756 42.9516 97.871 43.3438 98.4642 43.9322C98.8596 44.3244 99.255 44.7167 99.255 44.7167C99.255 46.2857 97.2779 46.6779 96.4871 47.4625C98.4642 47.0702 98.4642 48.4431 98.4642 48.6392C98.4642 48.8353 98.2664 49.0315 98.0687 49.2276C97.6733 49.4237 97.2779 49.816 96.8825 50.0121C95.894 50.4043 96.0917 50.6005 96.2894 51.7772C96.2894 52.1695 96.4871 53.1501 96.4871 54.7191C96.4871 55.1114 96.4871 55.5036 96.2894 55.6997C96.0917 56.092 96.0917 56.2881 95.894 56.6804C95.4985 57.2687 94.1146 57.4649 92.7306 57.4649C90.1604 57.4649 86.9971 56.8765 85.4154 56.2881C85.4154 56.2881 85.4154 56.2881 85.2177 56.2881C72.5644 52.1695 68.2149 62.7603 67.8195 64.3293Z" fill="url(#paint3_linear)"/>
<path d="M64.6562 15.6901C54.7708 20.5932 43.3037 24.908 37.7679 33.3414C34.6046 38.2445 34.0115 45.6973 36.7794 50.9927C35.3954 45.8935 35.9886 40.0097 37.9656 36.0872C42.7106 27.0654 54.9685 21.9661 65.447 16.8668C74.937 12.1598 83.6361 7.64891 86.6017 1.17676C83.2407 7.25666 67.8195 14.1211 64.6562 15.6901Z" fill="url(#paint4_linear)"/>
<path d="M72.169 22.3584C53.1891 32.7531 39.9427 44.3245 54.1776 67.6635C45.4785 48.2471 53.1891 39.6175 74.9369 23.5352C83.2407 17.2592 90.9513 9.61026 92.7306 2.74585C90.5559 9.02188 74.7392 20.3972 72.169 22.3584Z" fill="url(#paint5_linear)"/>
</g>
<path d="M37.4805 90.8984C38.5 91.2969 39.332 91.959 39.9766 92.8848C40.5859 93.8105 40.9551 94.8066 41.084 95.873C41.2129 96.9277 41.1719 97.9648 40.9609 98.9844C40.7617 99.9922 40.4395 100.971 39.9941 101.92C39.5488 102.869 38.9629 103.725 38.2363 104.486C36.959 105.799 35.4707 106.73 33.7715 107.281C34.6973 107.562 35.5234 108.072 36.25 108.811C37.0703 109.783 37.4629 110.896 37.4277 112.15C37.3809 113.322 37.082 114.418 36.5312 115.438C35.9453 116.457 35.1719 117.277 34.2109 117.898C33.2031 118.531 32.1074 118.93 30.9238 119.094C30.3379 119.164 29.752 119.17 29.166 119.111C28.8848 119.076 28.6094 119.023 28.3398 118.953C28.3047 118.953 28.2754 118.947 28.252 118.936C28.1699 118.924 28.0996 118.9 28.041 118.865C27.9824 118.842 27.9473 118.783 27.9355 118.689C27.9355 118.619 27.9473 118.555 27.9707 118.496C28.0059 118.449 28.0586 118.42 28.1289 118.408C28.2812 118.385 28.4395 118.385 28.6035 118.408C28.709 118.432 28.8086 118.443 28.9023 118.443C29.3945 118.443 29.8809 118.408 30.3613 118.338C31.3574 118.174 32.2656 117.811 33.0859 117.248C34.5273 116.193 35.4238 114.793 35.7754 113.047C35.9629 112.168 35.9102 111.312 35.6172 110.48C35.3242 109.766 34.873 109.168 34.2637 108.688C33.3262 108.02 32.2832 107.744 31.1348 107.861C31.1113 107.861 31.0645 107.861 30.9941 107.861C30.8535 107.873 30.6719 107.885 30.4492 107.896C30.2383 107.908 30.0156 107.926 29.7812 107.949C29.5586 107.973 29.3652 108.002 29.2012 108.037C29.0488 108.061 28.9668 108.084 28.9551 108.107C27.748 112.467 26.7695 116.879 26.0195 121.344C26.3125 121.074 26.6113 120.799 26.916 120.518C26.916 120.506 26.9336 120.488 26.9688 120.465C27.0156 120.395 27.0801 120.318 27.1621 120.236C27.2441 120.166 27.3203 120.119 27.3906 120.096C27.4727 120.072 27.5254 120.113 27.5488 120.219C27.5605 120.254 27.5605 120.283 27.5488 120.307C27.5371 120.342 27.5254 120.371 27.5137 120.395C27.2441 120.957 26.9395 121.502 26.5996 122.029C26.5645 122.088 26.5352 122.141 26.5117 122.188C26.3594 122.422 26.1836 122.662 25.9844 122.908C25.9727 122.932 25.9551 122.949 25.9316 122.961C25.9082 122.996 25.873 123.031 25.8262 123.066C25.791 123.102 25.7266 123.143 25.6328 123.189C25.6211 123.201 25.5977 123.207 25.5625 123.207C25.5391 123.219 25.5156 123.23 25.4922 123.242C25.457 123.254 25.4102 123.254 25.3516 123.242C25.3047 123.242 25.252 123.236 25.1934 123.225C25.1348 123.201 25.0762 123.172 25.0176 123.137C24.9707 123.102 24.9355 123.066 24.9121 123.031C24.8887 123.008 24.8711 122.984 24.8594 122.961C24.8477 122.938 24.8359 122.92 24.8242 122.908L24.8066 122.838C24.7715 122.709 24.7539 122.615 24.7539 122.557C24.7539 122.545 24.7539 122.527 24.7539 122.504C24.7422 122.375 24.7422 122.252 24.7539 122.135C24.7539 122.088 24.7539 122.041 24.7539 121.994C24.8242 120.682 24.9355 119.387 25.0879 118.109C25.0996 118.039 25.1113 117.969 25.123 117.898C25.4629 115.203 25.8848 112.52 26.3887 109.848C26.4707 109.402 26.5586 108.963 26.6523 108.529C26.7109 108.307 26.7578 108.084 26.793 107.861C26.7227 107.791 26.6934 107.697 26.7051 107.58C26.7285 107.451 26.7988 107.363 26.916 107.316C27.3027 105.5 27.7246 103.689 28.1816 101.885C28.5449 100.572 28.9316 99.2656 29.3418 97.9648C29.4121 97.7656 29.4766 97.5664 29.5352 97.3672C29.6875 96.9102 29.8516 96.4531 30.0273 95.9961C30.0625 95.9023 30.0977 95.8145 30.1328 95.7324C30.2031 95.4863 30.3203 95.252 30.4844 95.0293C30.707 94.7598 30.9883 94.584 31.3281 94.502C31.668 94.4199 31.9668 94.5195 32.2246 94.8008C32.4707 95.1289 32.5527 95.4863 32.4707 95.873C32.4004 96.2598 32.2891 96.623 32.1367 96.9629C32.1133 97.0332 32.0898 97.0977 32.0664 97.1562C31.9492 97.4609 31.8438 97.7715 31.75 98.0879C31.6914 98.2871 31.627 98.4805 31.5566 98.668C31.1582 99.9336 30.7832 101.211 30.4316 102.5C30.0098 103.988 29.6055 105.482 29.2188 106.982C29.5117 106.936 29.8105 106.906 30.1152 106.895C30.2793 106.883 30.4492 106.877 30.625 106.877C30.6367 106.877 30.6543 106.877 30.6777 106.877C31.334 106.736 31.9785 106.566 32.6113 106.367C34.4043 105.758 35.9102 104.791 37.1289 103.467C38.3008 102.096 39.0508 100.496 39.3789 98.668C39.5664 97.7891 39.6309 96.9102 39.5723 96.0312C39.5371 95.1406 39.3145 94.3145 38.9043 93.5527C38.4824 92.8027 37.873 92.2227 37.0762 91.8125C36.2676 91.4258 35.3945 91.2324 34.457 91.2324C32.5586 91.2441 30.7832 91.7246 29.1309 92.6738C27.5254 93.6465 26.1426 94.877 24.9824 96.3652C24.3965 97.0918 23.8574 97.8535 23.3652 98.6504C23.1191 99.0488 22.8848 99.4531 22.6621 99.8633C22.6387 99.9102 22.6094 99.9629 22.5742 100.021C22.4805 100.256 22.3457 100.467 22.1699 100.654C22.0176 100.807 21.8594 100.877 21.6953 100.865C21.543 100.854 21.3672 100.807 21.168 100.725C21.1445 100.713 21.1152 100.695 21.0801 100.672C21.0449 100.637 21.0273 100.59 21.0273 100.531C20.9805 100.273 20.998 100.039 21.0801 99.8281C21.1621 99.6055 21.2676 99.3887 21.3965 99.1777C21.6426 98.7324 21.8945 98.2988 22.1523 97.877C22.7031 97.0449 23.3125 96.2539 23.9805 95.5039C25.3164 93.9922 26.8867 92.7676 28.6914 91.8301C30.4961 90.916 32.418 90.4297 34.457 90.3711C35.4766 90.3477 36.4844 90.5234 37.4805 90.8984ZM45.1973 108.969C45.2441 108.898 45.2793 108.857 45.3027 108.846C45.3379 108.834 45.3496 108.857 45.3379 108.916C45.2207 109.889 44.8281 110.797 44.1602 111.641C43.4922 112.484 42.6367 112.918 41.5938 112.941C41.125 112.93 40.6914 112.771 40.293 112.467C39.9297 112.15 39.6602 111.781 39.4844 111.359C39.3203 110.938 39.2148 110.516 39.168 110.094C39.0742 109.227 39.1855 108.4 39.502 107.615C39.6543 107.217 39.8828 106.836 40.1875 106.473C40.3281 106.297 40.5156 106.133 40.75 105.98C40.9844 105.828 41.2656 105.746 41.5938 105.734C41.9219 105.758 42.1855 105.881 42.3848 106.104C42.5957 106.314 42.7188 106.549 42.7539 106.807C42.7891 107.064 42.7539 107.305 42.6484 107.527C42.5664 107.727 42.4492 107.908 42.2969 108.072C41.9922 108.377 41.6348 108.576 41.2246 108.67C41.0723 108.693 40.9258 108.711 40.7852 108.723C40.6914 109.156 40.627 109.59 40.5918 110.023C40.5449 110.703 40.6738 111.283 40.9785 111.764C41.1426 112.01 41.3711 112.168 41.6641 112.238C41.9688 112.285 42.2852 112.25 42.6133 112.133C43.2695 111.898 43.7969 111.465 44.1953 110.832C44.3594 110.574 44.4941 110.311 44.5996 110.041C44.6816 109.854 44.7695 109.666 44.8633 109.479C44.8633 109.479 44.8633 109.473 44.8633 109.461C44.875 109.449 44.8984 109.414 44.9336 109.355C44.9688 109.297 45.0098 109.232 45.0566 109.162C45.1035 109.092 45.1504 109.027 45.1973 108.969ZM40.9258 108.107C40.9258 108.143 40.9199 108.178 40.9082 108.213C40.9082 108.236 40.9023 108.26 40.8906 108.283C40.9727 108.283 41.0547 108.277 41.1367 108.266C41.4883 108.195 41.7695 108.037 41.9805 107.791C42.0742 107.65 42.1328 107.51 42.1562 107.369C42.1914 107.217 42.1797 107.088 42.1211 106.982C42.0508 106.865 41.9688 106.795 41.875 106.771C41.7812 106.736 41.7051 106.736 41.6465 106.771C41.5176 106.83 41.3828 106.982 41.2422 107.229C41.125 107.486 41.0195 107.779 40.9258 108.107ZM53.0723 108.846C53.084 108.834 53.0957 108.834 53.1074 108.846C53.1309 108.846 53.1426 108.852 53.1426 108.863C53.1543 108.875 53.1602 108.887 53.1602 108.898C53.0312 109.426 52.8672 109.941 52.668 110.445C52.6211 110.586 52.5684 110.727 52.5098 110.867C52.4746 110.973 52.4395 111.084 52.4043 111.201C52.2168 111.74 52.0117 112.279 51.7891 112.818C51.7539 112.877 51.7246 112.941 51.7012 113.012C51.4785 113.598 51.0918 114.16 50.541 114.699C50.1777 115.016 49.6914 115.15 49.082 115.104C48.8711 115.057 48.6895 114.969 48.5371 114.84C48.3848 114.699 48.2676 114.564 48.1855 114.436C48.0332 114.189 47.9336 113.955 47.8867 113.732C47.793 113.029 47.793 112.385 47.8867 111.799C47.8984 111.682 47.9102 111.564 47.9219 111.447C48.0039 110.85 48.0977 110.264 48.2031 109.689C48.2266 109.584 48.25 109.479 48.2734 109.373L48.7129 107.387C48.7832 107.059 48.8418 106.742 48.8887 106.438C48.9004 106.402 48.9062 106.373 48.9062 106.35C48.9062 106.338 48.9062 106.326 48.9062 106.314C48.7539 106.525 48.6133 106.748 48.4844 106.982C48.4609 107.018 48.4434 107.047 48.4316 107.07C48.1035 107.668 47.8105 108.277 47.5527 108.898C47.3887 109.273 47.2305 109.648 47.0781 110.023C46.7383 110.914 46.3047 111.805 45.7773 112.695C45.7539 112.719 45.7363 112.742 45.7246 112.766C45.6426 112.895 45.502 113.041 45.3027 113.205C45.3027 113.205 45.2969 113.211 45.2852 113.223C45.25 113.246 45.209 113.27 45.1621 113.293C45.1152 113.316 45.0566 113.334 44.9863 113.346C44.9043 113.369 44.8105 113.369 44.7051 113.346C44.5879 113.311 44.5 113.258 44.4414 113.188C44.3477 113.094 44.2832 113.012 44.248 112.941C44.2129 112.871 44.1895 112.807 44.1777 112.748C44.1777 112.725 44.1719 112.701 44.1602 112.678C44.1133 112.268 44.1191 111.904 44.1777 111.588C44.1777 111.553 44.1777 111.518 44.1777 111.482C44.2949 110.768 44.5 110.082 44.793 109.426C45.0742 108.758 45.4492 108.143 45.918 107.58C46.1641 107.299 46.4629 107.07 46.8145 106.895C47.1543 106.73 47.5059 106.725 47.8691 106.877L47.9043 106.789C48.0684 106.496 48.2383 106.209 48.4141 105.928C48.4258 105.916 48.4375 105.898 48.4492 105.875C48.4961 105.793 48.543 105.711 48.5898 105.629C48.625 105.535 48.6719 105.436 48.7305 105.33C48.7773 105.236 48.8711 105.131 49.0117 105.014C49.082 104.955 49.1875 104.914 49.3281 104.891C49.4688 104.855 49.627 104.879 49.8027 104.961C49.9668 105.055 50.0781 105.148 50.1367 105.242C50.1953 105.336 50.2363 105.418 50.2598 105.488C50.2715 105.523 50.2773 105.547 50.2773 105.559C50.3242 105.699 50.3477 105.822 50.3477 105.928C50.3477 105.939 50.3477 105.945 50.3477 105.945C50.3711 106.156 50.377 106.355 50.3652 106.543C50.3652 106.918 50.3477 107.281 50.3125 107.633C50.2656 108.102 50.2188 108.564 50.1719 109.021C50.1367 109.244 50.1074 109.467 50.084 109.689C49.9902 110.357 49.9082 111.02 49.8379 111.676C49.7441 112.32 49.7148 112.965 49.75 113.609C49.7617 113.715 49.8145 113.768 49.9082 113.768C50.0137 113.756 50.125 113.727 50.2422 113.68C50.3594 113.621 50.4531 113.557 50.5234 113.486C50.8047 113.193 51.0449 112.877 51.2441 112.537C51.6309 111.916 51.9648 111.266 52.2461 110.586C52.375 110.293 52.5039 110 52.6328 109.707C52.6445 109.66 52.6621 109.619 52.6855 109.584C52.709 109.525 52.7266 109.467 52.7383 109.408C52.7852 109.268 52.8438 109.145 52.9141 109.039C52.9141 109.039 52.9141 109.033 52.9141 109.021C52.9258 108.998 52.9434 108.969 52.9668 108.934C53.002 108.898 53.0371 108.869 53.0723 108.846ZM46.9199 108.6L47.6582 107.229C47.4238 107.17 47.1895 107.217 46.9551 107.369C46.7324 107.521 46.5391 107.715 46.375 107.949C46.0117 108.477 45.7363 109.062 45.5488 109.707C45.3496 110.34 45.2207 110.973 45.1621 111.605C45.1621 111.629 45.1621 111.652 45.1621 111.676C45.1621 111.688 45.1621 111.699 45.1621 111.711C45.6309 110.938 46.0938 110.117 46.5508 109.25C46.6797 109.027 46.8027 108.811 46.9199 108.6ZM65.6934 101.568C65.834 101.58 65.9688 101.615 66.0977 101.674C66.2266 101.721 66.3086 101.809 66.3438 101.938C66.2969 101.984 66.25 102.02 66.2031 102.043C65.9453 102.148 65.6699 102.189 65.377 102.166C65.3066 102.166 65.2363 102.166 65.166 102.166C64.0996 102.143 63.0332 102.119 61.9668 102.096C61.9551 102.107 61.9258 102.213 61.8789 102.412C61.8438 102.6 61.8027 102.816 61.7559 103.062C61.709 103.309 61.668 103.52 61.6328 103.695C61.6094 103.824 61.5977 103.906 61.5977 103.941C61.1172 106.203 60.7598 108.488 60.5254 110.797C60.4199 111.945 60.373 113.094 60.3848 114.242C60.3848 114.816 60.4082 115.391 60.4551 115.965C60.4668 116.059 60.4961 116.188 60.543 116.352C60.5898 116.516 60.625 116.68 60.6484 116.844C60.6719 117.008 60.666 117.131 60.6309 117.213C60.5723 117.295 60.502 117.336 60.4199 117.336C60.3496 117.336 60.2793 117.312 60.209 117.266C60.1387 117.23 60.0742 117.189 60.0156 117.143C59.8398 116.943 59.7109 116.715 59.6289 116.457C59.5 116.059 59.4121 115.648 59.3652 115.227C59.3535 115.145 59.3418 115.062 59.3301 114.98C59.1309 113.516 59.1016 112.057 59.2422 110.604C59.3828 109.139 59.5879 107.674 59.8574 106.209C60.0918 104.826 60.2852 103.443 60.4375 102.061C59.7109 105.447 58.8262 108.793 57.7832 112.098C57.6895 112.379 57.5547 112.637 57.3789 112.871C57.2148 113.105 56.998 113.229 56.7285 113.24C56.4004 113.217 56.1543 113.053 55.9902 112.748C55.8496 112.467 55.7793 112.168 55.7793 111.852C55.6855 110.551 55.8789 109.297 56.3594 108.09C55.9023 109.145 55.4453 110.199 54.9883 111.254C54.8711 111.523 54.7246 111.775 54.5488 112.01C54.373 112.244 54.1445 112.379 53.8633 112.414C53.582 112.426 53.3418 112.326 53.1426 112.115C52.9434 111.893 52.8145 111.635 52.7559 111.342C52.6035 110.029 52.7676 108.764 53.248 107.545C53.2949 107.439 53.3594 107.34 53.4414 107.246C53.5234 107.141 53.6113 107.082 53.7051 107.07C53.8105 107.047 53.916 107.094 54.0215 107.211C54.1035 107.316 54.1387 107.451 54.127 107.615C54.127 107.779 54.1152 107.926 54.0918 108.055C53.8574 109.238 53.7988 110.439 53.916 111.658C54.291 111.248 54.5781 110.791 54.7773 110.287C54.9883 109.771 55.1758 109.244 55.3398 108.705C55.5742 107.791 55.9316 106.941 56.4121 106.156C56.5059 106.027 56.6172 105.91 56.7461 105.805C56.875 105.699 57.0215 105.652 57.1855 105.664C57.3262 105.688 57.4434 105.752 57.5371 105.857C57.6309 105.951 57.6953 106.068 57.7305 106.209C57.7891 106.479 57.7832 106.754 57.7129 107.035C57.6777 107.281 57.6426 107.521 57.6074 107.756C57.3965 109.115 57.1797 110.469 56.957 111.816C58.3164 108.664 59.2305 105.389 59.6992 101.99C58.6094 101.967 57.5312 101.85 56.4648 101.639C56.3828 101.627 56.3066 101.604 56.2363 101.568C56.166 101.533 56.125 101.48 56.1133 101.41C56.0898 101.305 56.1309 101.223 56.2363 101.164C56.3418 101.105 56.4531 101.07 56.5703 101.059C57.707 100.977 58.8438 100.988 59.9805 101.094C60.3086 99.6875 60.6426 98.2812 60.9824 96.875C61.0293 96.6406 61.0938 96.4062 61.1758 96.1719C61.2695 95.9375 61.4102 95.7383 61.5977 95.5742C61.7148 95.4688 61.8496 95.416 62.002 95.416C62.2129 95.4395 62.3535 95.5625 62.4238 95.7852C62.5059 95.9961 62.541 96.2129 62.5293 96.4355C62.459 98.041 62.2949 99.6348 62.0371 101.217C62.6348 101.275 63.2383 101.334 63.8477 101.393C64.457 101.451 65.0723 101.51 65.6934 101.568ZM57.2734 106.631C57.2734 106.631 57.2734 106.625 57.2734 106.613C57.2852 106.613 57.291 106.613 57.291 106.613C57.291 106.613 57.2852 106.613 57.2734 106.613C57.2734 106.613 57.2734 106.619 57.2734 106.631ZM60.7012 101.059C60.7246 100.883 60.748 100.701 60.7715 100.514C60.7949 100.373 60.8184 100.227 60.8418 100.074C60.8418 100.086 60.8418 100.092 60.8418 100.092C60.8418 100.092 60.8359 100.098 60.8242 100.109L60.5957 101.146C60.6074 101.146 60.6191 101.146 60.6309 101.146C60.6543 101.146 60.6719 101.146 60.6836 101.146L60.7012 101.059ZM70.8613 112.801C70.8848 112.801 70.9141 112.801 70.9492 112.801C71.0312 112.801 71.1191 112.807 71.2129 112.818C71.3066 112.818 71.377 112.842 71.4238 112.889C71.5176 113.018 71.5117 113.111 71.4062 113.17C71.3008 113.217 71.1543 113.246 70.9668 113.258C70.7793 113.258 70.6211 113.252 70.4922 113.24C70.4336 113.24 70.3926 113.24 70.3691 113.24C70.3574 113.24 70.334 113.24 70.2988 113.24C70.1816 113.24 70.0117 113.246 69.7891 113.258C69.5664 113.258 69.3613 113.27 69.1738 113.293C68.9863 113.305 68.8867 113.334 68.875 113.381C68.6523 114.553 68.3711 115.713 68.0312 116.861C67.7031 118.01 67.3164 119.141 66.8711 120.254C66.4492 121.402 65.8516 122.492 65.0781 123.523C64.6914 124.051 64.1641 124.473 63.4961 124.789C63.1562 124.953 62.7754 125.023 62.3535 125C62.1309 124.988 61.9199 124.924 61.7207 124.807C61.5215 124.689 61.3633 124.549 61.2461 124.385C60.8359 123.764 60.6309 123.131 60.6309 122.486C60.6074 121.854 60.6543 121.238 60.7715 120.641C61.0059 119.434 61.4746 118.32 62.1777 117.301C62.8809 116.316 63.7305 115.479 64.7266 114.787C65.4648 114.271 66.2617 113.844 67.1172 113.504C67.375 112.227 67.5742 110.943 67.7148 109.654C67.832 108.635 67.8672 107.65 67.8203 106.701C67.7031 106.936 67.5977 107.176 67.5039 107.422L66.1855 110.709C66.1621 110.744 66.1445 110.785 66.1328 110.832C65.9219 111.336 65.6816 111.84 65.4121 112.344C65.2598 112.613 65.0898 112.877 64.9023 113.135C64.8789 113.17 64.8555 113.205 64.832 113.24C64.6797 113.498 64.4336 113.732 64.0938 113.943C63.8828 114.061 63.6426 114.113 63.373 114.102C63.0801 114.078 62.8281 113.967 62.6172 113.768C62.4297 113.58 62.2949 113.393 62.2129 113.205C62.1309 113.018 62.0723 112.842 62.0371 112.678C62.0254 112.666 62.0195 112.654 62.0195 112.643C61.9023 111.963 61.8789 111.318 61.9492 110.709C62.0195 110.088 62.125 109.484 62.2656 108.898C62.2891 108.793 62.3184 108.67 62.3535 108.529C62.3887 108.318 62.4355 108.107 62.4941 107.896C62.5527 107.686 62.6406 107.521 62.7578 107.404C62.9336 107.252 63.1094 107.205 63.2852 107.264C63.4609 107.322 63.5723 107.451 63.6191 107.65C63.6543 107.955 63.6191 108.266 63.5137 108.582C63.4668 108.77 63.4316 108.945 63.4082 109.109C63.3262 109.672 63.2793 110.234 63.2676 110.797C63.2441 111.359 63.2734 111.875 63.3555 112.344C63.3789 112.461 63.4082 112.561 63.4434 112.643C63.4785 112.713 63.5078 112.76 63.5312 112.783C63.5312 112.783 63.5312 112.789 63.5312 112.801C63.5312 112.801 63.5312 112.807 63.5312 112.818C63.5312 112.818 63.5371 112.824 63.5488 112.836C63.5605 112.848 63.5723 112.859 63.584 112.871C63.6074 112.871 63.6367 112.871 63.6719 112.871C63.7539 112.871 63.8418 112.848 63.9355 112.801C64.041 112.742 64.1406 112.666 64.2344 112.572C64.4102 112.385 64.5684 112.168 64.709 111.922C65.002 111.441 65.2539 110.938 65.4648 110.41C65.8281 109.52 66.1504 108.611 66.4316 107.686C66.4902 107.486 66.5547 107.293 66.625 107.105C66.7305 106.812 66.8242 106.514 66.9062 106.209C66.9883 105.928 67.082 105.635 67.1875 105.33C67.1992 105.295 67.2109 105.266 67.2227 105.242C67.2461 105.172 67.2812 105.096 67.3281 105.014C67.375 104.932 67.4512 104.838 67.5566 104.732C67.6152 104.674 67.7207 104.609 67.873 104.539C67.9434 104.516 68.0312 104.504 68.1367 104.504C68.2422 104.492 68.3477 104.504 68.4531 104.539C68.6055 104.598 68.7168 104.662 68.7871 104.732C68.8691 104.791 68.9277 104.85 68.9629 104.908C68.9746 104.932 68.9922 104.955 69.0156 104.979C69.1445 105.178 69.2266 105.354 69.2617 105.506C69.3086 105.658 69.3438 105.805 69.3672 105.945C69.3789 106.004 69.3906 106.062 69.4023 106.121C69.5195 107.398 69.5137 108.629 69.3848 109.812C69.2793 110.879 69.1328 111.934 68.9453 112.977C69.5781 112.848 70.2168 112.789 70.8613 112.801ZM66.4492 116.422C66.6602 115.613 66.8477 114.805 67.0117 113.996C66.2969 114.312 65.6172 114.699 64.9727 115.156C64.0352 115.836 63.2383 116.645 62.582 117.582C61.9609 118.555 61.5742 119.609 61.4219 120.746C61.3516 121.309 61.3516 121.865 61.4219 122.416C61.4922 122.979 61.6738 123.43 61.9668 123.77C62.2129 124.004 62.5293 123.98 62.916 123.699C63.2793 123.418 63.6133 123.061 63.918 122.627C64.5391 121.748 65.0371 120.77 65.4121 119.691C65.8105 118.625 66.1562 117.535 66.4492 116.422ZM91.6387 90.7051C92.8223 90.9395 93.9062 91.4141 94.8906 92.1289C95.875 92.8438 96.6426 93.7578 97.1934 94.8711C97.7676 95.9609 98.084 97.1387 98.1426 98.4043C98.1543 99.6465 97.9902 100.848 97.6504 102.008C96.9355 104.41 95.5879 106.396 93.6074 107.967C91.5801 109.502 89.3125 110.234 86.8047 110.164C86.4062 110.129 86.0078 110.082 85.6094 110.023C85.2109 111.863 84.8594 113.715 84.5547 115.578C84.3555 116.762 84.1738 117.945 84.0098 119.129C83.9395 119.715 83.8867 120.301 83.8516 120.887C83.8516 121.039 83.8633 121.215 83.8867 121.414C83.9453 121.766 83.9395 122.076 83.8691 122.346C83.7988 122.51 83.6992 122.609 83.5703 122.645C83.4531 122.68 83.3301 122.627 83.2012 122.486C83.084 122.299 82.9961 122.076 82.9375 121.818C82.8906 121.572 82.8555 121.332 82.832 121.098C82.8203 121.039 82.8145 120.98 82.8145 120.922C82.7441 120.324 82.7148 119.732 82.7266 119.146C82.7266 119.111 82.7266 119.076 82.7266 119.041C82.7266 117.799 82.7969 116.568 82.9375 115.35C83.1484 113.416 83.4238 111.494 83.7637 109.584C83.7168 109.572 83.6699 109.555 83.623 109.531C83.5176 109.508 83.418 109.479 83.3242 109.443C82.7383 109.209 82.1992 108.904 81.707 108.529C81.6484 108.494 81.5781 108.447 81.4961 108.389C81.2969 108.26 81.0977 108.113 80.8984 107.949C80.7109 107.773 80.5996 107.586 80.5645 107.387C80.5527 107.305 80.5645 107.258 80.5996 107.246C80.6348 107.223 80.6816 107.223 80.7402 107.246C80.8105 107.27 80.875 107.305 80.9336 107.352C80.9922 107.387 81.0332 107.416 81.0566 107.439C81.2793 107.639 81.5195 107.826 81.7773 108.002C82.3398 108.33 82.9316 108.582 83.5527 108.758C83.623 108.781 83.6934 108.799 83.7637 108.811C83.8105 108.822 83.8516 108.834 83.8867 108.846C83.9102 108.752 83.9277 108.658 83.9395 108.564C83.9746 108.412 84.0039 108.26 84.0273 108.107C84.4844 105.693 85.0352 103.309 85.6797 100.953C86.0195 99.7695 86.3828 98.5918 86.7695 97.4199C86.9805 96.7637 87.2324 96.1191 87.5254 95.4863C87.5605 95.4277 87.5957 95.3574 87.6309 95.2754C87.7598 94.9941 87.918 94.7305 88.1055 94.4844C88.2812 94.2734 88.457 94.1738 88.6328 94.1855C88.8203 94.1973 89.0312 94.2793 89.2656 94.4316C89.3242 94.4551 89.3711 94.502 89.4062 94.5723C89.4414 94.6426 89.4473 94.7188 89.4238 94.8008C89.248 95.9023 88.9785 96.9805 88.6152 98.0352C88.2637 99.1719 87.9355 100.32 87.6309 101.48C87.0098 103.801 86.4414 106.139 85.9258 108.494C85.9023 108.611 85.8789 108.723 85.8555 108.828C85.832 108.934 85.8086 109.033 85.7852 109.127C86.1367 109.15 86.4824 109.162 86.8223 109.162C89.0488 109.045 90.9824 108.248 92.623 106.771C94.2285 105.33 95.3828 103.572 96.0859 101.498C96.4609 100.479 96.6953 99.4414 96.7891 98.3867C96.8594 97.3203 96.7012 96.2832 96.3145 95.2754C95.916 94.2559 95.3008 93.3828 94.4688 92.6562C93.6133 91.9414 92.6348 91.4902 91.5332 91.3027C90.4316 91.127 89.3359 91.1621 88.2461 91.4082C87.1562 91.6309 86.1426 92.0293 85.2051 92.6035C83.3418 93.8105 81.9355 95.416 80.9863 97.4199C80.5879 98.2285 80.2715 99.0664 80.0371 99.9336L80.3535 99.9512C80.834 99.9395 81.3027 99.9805 81.7598 100.074C81.7832 100.074 81.8066 100.08 81.8301 100.092C81.9121 100.104 82 100.127 82.0938 100.162C82.1875 100.186 82.2578 100.227 82.3047 100.285C82.3633 100.344 82.375 100.42 82.3398 100.514C82.293 100.596 82.2285 100.666 82.1465 100.725C81.7598 101.006 81.3496 101.199 80.916 101.305C80.4941 101.41 80.043 101.469 79.5625 101.48C79.4805 101.48 79.3867 101.48 79.2812 101.48C79.2578 101.48 79.2402 101.48 79.2285 101.48C79.1816 101.469 79.123 101.457 79.0527 101.445C78.9941 101.434 78.9121 101.41 78.8066 101.375L78.7188 101.322C78.6953 101.311 78.6719 101.299 78.6484 101.287C78.625 101.264 78.6016 101.24 78.5781 101.217C78.5312 101.193 78.4785 101.146 78.4199 101.076C78.373 100.994 78.3379 100.906 78.3145 100.812C78.2793 100.73 78.2617 100.648 78.2617 100.566C78.2617 100.52 78.2617 100.479 78.2617 100.443L78.2793 100.373L78.2969 100.303L78.332 100.092C78.6133 98.8965 79.0527 97.7715 79.6504 96.7168C80.8457 94.5371 82.5391 92.8789 84.7305 91.7422C86.9336 90.6523 89.2363 90.3066 91.6387 90.7051ZM102.994 108.846C103.006 108.834 103.018 108.834 103.029 108.846C103.053 108.846 103.064 108.852 103.064 108.863C103.076 108.875 103.082 108.887 103.082 108.898C102.953 109.426 102.789 109.941 102.59 110.445C102.543 110.586 102.49 110.727 102.432 110.867C102.396 110.973 102.361 111.084 102.326 111.201C102.139 111.74 101.934 112.279 101.711 112.818C101.676 112.877 101.646 112.941 101.623 113.012C101.4 113.598 101.014 114.16 100.463 114.699C100.1 115.016 99.6133 115.15 99.0039 115.104C98.793 115.057 98.6113 114.969 98.459 114.84C98.3066 114.699 98.1895 114.564 98.1074 114.436C97.9551 114.189 97.8555 113.955 97.8086 113.732C97.7148 113.029 97.7148 112.385 97.8086 111.799C97.8203 111.682 97.832 111.564 97.8438 111.447C97.9258 110.85 98.0195 110.264 98.125 109.689C98.1484 109.584 98.1719 109.479 98.1953 109.373L98.6348 107.387C98.7051 107.059 98.7637 106.742 98.8105 106.438C98.8223 106.402 98.8281 106.373 98.8281 106.35C98.8281 106.338 98.8281 106.326 98.8281 106.314C98.6758 106.525 98.5352 106.748 98.4062 106.982C98.3828 107.018 98.3652 107.047 98.3535 107.07C98.0254 107.668 97.7324 108.277 97.4746 108.898C97.3105 109.273 97.1523 109.648 97 110.023C96.6602 110.914 96.2266 111.805 95.6992 112.695C95.6758 112.719 95.6582 112.742 95.6465 112.766C95.5645 112.895 95.4238 113.041 95.2246 113.205C95.2246 113.205 95.2188 113.211 95.207 113.223C95.1719 113.246 95.1309 113.27 95.084 113.293C95.0371 113.316 94.9785 113.334 94.9082 113.346C94.8262 113.369 94.7324 113.369 94.627 113.346C94.5098 113.311 94.4219 113.258 94.3633 113.188C94.2695 113.094 94.2051 113.012 94.1699 112.941C94.1348 112.871 94.1113 112.807 94.0996 112.748C94.0996 112.725 94.0938 112.701 94.082 112.678C94.0352 112.268 94.041 111.904 94.0996 111.588C94.0996 111.553 94.0996 111.518 94.0996 111.482C94.2168 110.768 94.4219 110.082 94.7148 109.426C94.9961 108.758 95.3711 108.143 95.8398 107.58C96.0859 107.299 96.3848 107.07 96.7363 106.895C97.0762 106.73 97.4277 106.725 97.791 106.877L97.8262 106.789C97.9902 106.496 98.1602 106.209 98.3359 105.928C98.3477 105.916 98.3594 105.898 98.3711 105.875C98.418 105.793 98.4648 105.711 98.5117 105.629C98.5469 105.535 98.5938 105.436 98.6523 105.33C98.6992 105.236 98.793 105.131 98.9336 105.014C99.0039 104.955 99.1094 104.914 99.25 104.891C99.3906 104.855 99.5488 104.879 99.7246 104.961C99.8887 105.055 100 105.148 100.059 105.242C100.117 105.336 100.158 105.418 100.182 105.488C100.193 105.523 100.199 105.547 100.199 105.559C100.246 105.699 100.27 105.822 100.27 105.928C100.27 105.939 100.27 105.945 100.27 105.945C100.293 106.156 100.299 106.355 100.287 106.543C100.287 106.918 100.27 107.281 100.234 107.633C100.188 108.102 100.141 108.564 100.094 109.021C100.059 109.244 100.029 109.467 100.006 109.689C99.9121 110.357 99.8301 111.02 99.7598 111.676C99.666 112.32 99.6367 112.965 99.6719 113.609C99.6836 113.715 99.7363 113.768 99.8301 113.768C99.9355 113.756 100.047 113.727 100.164 113.68C100.281 113.621 100.375 113.557 100.445 113.486C100.727 113.193 100.967 112.877 101.166 112.537C101.553 111.916 101.887 111.266 102.168 110.586C102.297 110.293 102.426 110 102.555 109.707C102.566 109.66 102.584 109.619 102.607 109.584C102.631 109.525 102.648 109.467 102.66 109.408C102.707 109.268 102.766 109.145 102.836 109.039C102.836 109.039 102.836 109.033 102.836 109.021C102.848 108.998 102.865 108.969 102.889 108.934C102.924 108.898 102.959 108.869 102.994 108.846ZM96.8418 108.6L97.5801 107.229C97.3457 107.17 97.1113 107.217 96.877 107.369C96.6543 107.521 96.4609 107.715 96.2969 107.949C95.9336 108.477 95.6582 109.062 95.4707 109.707C95.2715 110.34 95.1426 110.973 95.084 111.605C95.084 111.629 95.084 111.652 95.084 111.676C95.084 111.688 95.084 111.699 95.084 111.711C95.5527 110.938 96.0156 110.117 96.4727 109.25C96.6016 109.027 96.7246 108.811 96.8418 108.6ZM107.178 105.453C107.271 105.488 107.371 105.535 107.477 105.594C107.582 105.641 107.658 105.705 107.705 105.787C107.752 105.857 107.74 105.945 107.67 106.051C107.588 106.156 107.494 106.215 107.389 106.227C107.283 106.238 107.172 106.232 107.055 106.209C106.902 106.186 106.762 106.186 106.633 106.209C106.516 106.256 106.387 106.332 106.246 106.438C106.176 106.484 106.117 106.537 106.07 106.596C106.023 106.654 105.971 106.719 105.912 106.789C105.525 107.41 105.25 108.113 105.086 108.898C104.898 109.66 104.729 110.428 104.576 111.201C104.541 111.354 104.506 111.5 104.471 111.641C104.365 112.273 104.189 112.9 103.943 113.521C103.896 113.627 103.838 113.727 103.768 113.82C103.498 114.172 103.205 114.189 102.889 113.873C102.678 113.627 102.555 113.352 102.52 113.047C102.473 112.742 102.455 112.432 102.467 112.115C102.502 111.318 102.566 110.521 102.66 109.725C102.754 108.939 102.871 108.154 103.012 107.369L103.258 106.191C103.293 106.004 103.352 105.799 103.434 105.576C103.527 105.342 103.656 105.178 103.82 105.084C103.984 104.99 104.189 105.043 104.436 105.242C104.576 105.371 104.646 105.523 104.646 105.699C104.658 105.863 104.652 106.027 104.629 106.191C104.617 106.273 104.605 106.35 104.594 106.42C104.594 106.432 104.588 106.496 104.576 106.613C104.564 106.719 104.547 106.848 104.523 107C104.512 107.152 104.5 107.287 104.488 107.404C104.477 107.521 104.471 107.58 104.471 107.58L104.242 109.9L104.102 111.324C104.113 111.301 104.119 111.277 104.119 111.254C104.131 111.207 104.143 111.16 104.154 111.113L104.646 108.793C104.682 108.699 104.711 108.6 104.734 108.494C104.875 107.826 105.086 107.146 105.367 106.455C105.566 106.033 105.9 105.711 106.369 105.488C106.639 105.395 106.908 105.383 107.178 105.453ZM103.293 113.592C103.293 113.592 103.299 113.592 103.311 113.592C103.322 113.592 103.328 113.586 103.328 113.574C103.328 113.574 103.322 113.574 103.311 113.574L103.293 113.592ZM115.141 102.096C115.012 102.189 114.801 102.236 114.508 102.236C114.227 102.236 113.945 102.225 113.664 102.201C113.477 102.189 113.33 102.184 113.225 102.184C113.119 102.184 113.014 102.184 112.908 102.184C112.322 102.195 111.73 102.213 111.133 102.236C110.512 104.732 109.996 107.258 109.586 109.812C109.398 111.09 109.281 112.385 109.234 113.697C109.234 114.166 109.258 114.646 109.305 115.139C109.387 115.865 109.381 116.586 109.287 117.301C108.947 117.324 108.684 117.148 108.496 116.773C108.309 116.41 108.18 116 108.109 115.543C108.027 115.086 107.98 114.734 107.969 114.488C107.84 112.426 107.939 110.381 108.268 108.354C108.607 106.314 109.023 104.287 109.516 102.271C108.906 102.283 108.303 102.254 107.705 102.184C107.271 102.113 107.008 101.967 106.914 101.744C106.82 101.521 107.008 101.34 107.477 101.199C107.535 101.188 107.682 101.176 107.916 101.164C108.15 101.141 108.408 101.129 108.689 101.129C108.982 101.117 109.234 101.117 109.445 101.129C109.656 101.129 109.762 101.146 109.762 101.182C110.148 99.6699 110.588 98.1758 111.08 96.6992C111.139 96.5 111.221 96.3125 111.326 96.1367C111.432 95.9492 111.578 95.8203 111.766 95.75C112.141 95.7266 112.381 95.8555 112.486 96.1367C112.592 96.418 112.604 96.6992 112.521 96.9805C112.322 97.707 112.123 98.4277 111.924 99.1426C111.713 99.8574 111.508 100.578 111.309 101.305C112.211 101.375 113.119 101.445 114.033 101.516C114.221 101.527 114.408 101.539 114.596 101.551C114.666 101.562 114.766 101.592 114.895 101.639C115.023 101.674 115.123 101.732 115.193 101.814C115.264 101.896 115.246 101.99 115.141 102.096ZM116.898 106.42C116.91 106.455 116.916 106.484 116.916 106.508C116.928 106.531 116.939 106.555 116.951 106.578C116.951 106.59 116.951 106.607 116.951 106.631C116.975 106.736 116.986 106.824 116.986 106.895C116.939 107.738 116.852 108.518 116.723 109.232C116.664 109.537 116.617 109.848 116.582 110.164C116.5 110.68 116.436 111.189 116.389 111.693C116.377 111.811 116.377 111.939 116.389 112.08C116.4 112.291 116.389 112.502 116.354 112.713C116.33 112.912 116.248 113.07 116.107 113.188C115.932 113.281 115.762 113.293 115.598 113.223C115.434 113.141 115.322 113.012 115.264 112.836C115.182 112.508 115.152 112.162 115.176 111.799C115.176 111.74 115.176 111.688 115.176 111.641C115.188 111.078 115.234 110.521 115.316 109.971C115.375 109.572 115.445 109.18 115.527 108.793C115.551 108.652 115.574 108.512 115.598 108.371C115.727 107.832 115.82 107.328 115.879 106.859C115.891 106.848 115.896 106.836 115.896 106.824C115.896 106.824 115.896 106.818 115.896 106.807C115.768 106.83 115.639 106.9 115.51 107.018C115.158 107.357 114.848 107.762 114.578 108.23C114.051 109.145 113.641 110.117 113.348 111.148C113.242 111.488 113.143 111.834 113.049 112.186C113.002 112.361 112.955 112.531 112.908 112.695C112.885 112.754 112.867 112.812 112.855 112.871C112.797 113.07 112.756 113.281 112.732 113.504C112.709 113.598 112.697 113.697 112.697 113.803C112.709 113.979 112.674 114.207 112.592 114.488C112.58 114.5 112.568 114.518 112.557 114.541C112.557 114.553 112.551 114.564 112.539 114.576C112.539 114.576 112.533 114.582 112.521 114.594C112.51 114.629 112.475 114.676 112.416 114.734C112.416 114.734 112.41 114.734 112.398 114.734C112.375 114.758 112.352 114.781 112.328 114.805C112.258 114.852 112.188 114.887 112.117 114.91C111.977 114.957 111.83 114.969 111.678 114.945C111.537 114.91 111.42 114.863 111.326 114.805C111.244 114.734 111.186 114.676 111.15 114.629C111.139 114.629 111.133 114.623 111.133 114.611C111.051 114.518 110.998 114.436 110.975 114.365C110.904 114.236 110.857 114.125 110.834 114.031C110.811 113.938 110.793 113.85 110.781 113.768C110.746 113.439 110.729 113.129 110.729 112.836C110.717 112.25 110.752 111.682 110.834 111.131C110.986 110.006 111.244 108.916 111.607 107.861C111.795 107.334 112.012 106.812 112.258 106.297C112.258 106.273 112.264 106.25 112.275 106.227C112.393 105.98 112.527 105.74 112.68 105.506C112.844 105.26 113.061 105.096 113.33 105.014C113.576 104.955 113.74 104.996 113.822 105.137C113.916 105.277 113.951 105.465 113.928 105.699C113.916 105.934 113.881 106.168 113.822 106.402C113.764 106.625 113.717 106.789 113.682 106.895C113.518 107.363 113.377 107.85 113.26 108.354C113.002 109.361 112.797 110.369 112.645 111.377C112.633 111.471 112.621 111.559 112.609 111.641L112.855 110.99C112.867 110.955 112.879 110.926 112.891 110.902C113.242 109.906 113.658 108.934 114.139 107.984C114.385 107.492 114.707 107.029 115.105 106.596C115.141 106.549 115.182 106.502 115.229 106.455C115.311 106.373 115.404 106.291 115.51 106.209C115.627 106.115 115.768 106.045 115.932 105.998C116.049 105.963 116.172 105.957 116.301 105.98C116.43 105.992 116.547 106.033 116.652 106.104C116.688 106.115 116.717 106.139 116.74 106.174C116.775 106.209 116.805 106.244 116.828 106.279C116.852 106.303 116.863 106.326 116.863 106.35C116.875 106.373 116.887 106.391 116.898 106.402C116.898 106.414 116.898 106.42 116.898 106.42ZM124.229 108.969C124.275 108.898 124.311 108.857 124.334 108.846C124.369 108.834 124.381 108.857 124.369 108.916C124.252 109.889 123.859 110.797 123.191 111.641C122.523 112.484 121.668 112.918 120.625 112.941C120.156 112.93 119.723 112.771 119.324 112.467C118.961 112.15 118.691 111.781 118.516 111.359C118.352 110.938 118.246 110.516 118.199 110.094C118.105 109.227 118.217 108.4 118.533 107.615C118.686 107.217 118.914 106.836 119.219 106.473C119.359 106.297 119.547 106.133 119.781 105.98C120.016 105.828 120.297 105.746 120.625 105.734C120.953 105.758 121.217 105.881 121.416 106.104C121.627 106.314 121.75 106.549 121.785 106.807C121.82 107.064 121.785 107.305 121.68 107.527C121.598 107.727 121.48 107.908 121.328 108.072C121.023 108.377 120.666 108.576 120.256 108.67C120.104 108.693 119.957 108.711 119.816 108.723C119.723 109.156 119.658 109.59 119.623 110.023C119.576 110.703 119.705 111.283 120.01 111.764C120.174 112.01 120.402 112.168 120.695 112.238C121 112.285 121.316 112.25 121.645 112.133C122.301 111.898 122.828 111.465 123.227 110.832C123.391 110.574 123.525 110.311 123.631 110.041C123.713 109.854 123.801 109.666 123.895 109.479C123.895 109.479 123.895 109.473 123.895 109.461C123.906 109.449 123.93 109.414 123.965 109.355C124 109.297 124.041 109.232 124.088 109.162C124.135 109.092 124.182 109.027 124.229 108.969ZM119.957 108.107C119.957 108.143 119.951 108.178 119.939 108.213C119.939 108.236 119.934 108.26 119.922 108.283C120.004 108.283 120.086 108.277 120.168 108.266C120.52 108.195 120.801 108.037 121.012 107.791C121.105 107.65 121.164 107.51 121.188 107.369C121.223 107.217 121.211 107.088 121.152 106.982C121.082 106.865 121 106.795 120.906 106.771C120.812 106.736 120.736 106.736 120.678 106.771C120.549 106.83 120.414 106.982 120.273 107.229C120.156 107.486 120.051 107.779 119.957 108.107ZM128.447 105.453C128.541 105.488 128.641 105.535 128.746 105.594C128.852 105.641 128.928 105.705 128.975 105.787C129.021 105.857 129.01 105.945 128.939 106.051C128.857 106.156 128.764 106.215 128.658 106.227C128.553 106.238 128.441 106.232 128.324 106.209C128.172 106.186 128.031 106.186 127.902 106.209C127.785 106.256 127.656 106.332 127.516 106.438C127.445 106.484 127.387 106.537 127.34 106.596C127.293 106.654 127.24 106.719 127.182 106.789C126.795 107.41 126.52 108.113 126.355 108.898C126.168 109.66 125.998 110.428 125.846 111.201C125.811 111.354 125.775 111.5 125.74 111.641C125.635 112.273 125.459 112.9 125.213 113.521C125.166 113.627 125.107 113.727 125.037 113.82C124.768 114.172 124.475 114.189 124.158 113.873C123.947 113.627 123.824 113.352 123.789 113.047C123.742 112.742 123.725 112.432 123.736 112.115C123.771 111.318 123.836 110.521 123.93 109.725C124.023 108.939 124.141 108.154 124.281 107.369L124.527 106.191C124.562 106.004 124.621 105.799 124.703 105.576C124.797 105.342 124.926 105.178 125.09 105.084C125.254 104.99 125.459 105.043 125.705 105.242C125.846 105.371 125.916 105.523 125.916 105.699C125.928 105.863 125.922 106.027 125.898 106.191C125.887 106.273 125.875 106.35 125.863 106.42C125.863 106.432 125.857 106.496 125.846 106.613C125.834 106.719 125.816 106.848 125.793 107C125.781 107.152 125.77 107.287 125.758 107.404C125.746 107.521 125.74 107.58 125.74 107.58L125.512 109.9L125.371 111.324C125.383 111.301 125.389 111.277 125.389 111.254C125.4 111.207 125.412 111.16 125.424 111.113L125.916 108.793C125.951 108.699 125.98 108.6 126.004 108.494C126.145 107.826 126.355 107.146 126.637 106.455C126.836 106.033 127.17 105.711 127.639 105.488C127.908 105.395 128.178 105.383 128.447 105.453ZM124.562 113.592C124.562 113.592 124.568 113.592 124.58 113.592C124.592 113.592 124.598 113.586 124.598 113.574C124.598 113.574 124.592 113.574 124.58 113.574L124.562 113.592Z" fill="black"/>
<defs>
<linearGradient id="paint0_linear" x1="104.742" y1="6.45919" x2="57.9913" y2="80.3758" gradientUnits="userSpaceOnUse">
<stop offset="0.1365" stop-color="#F891C2"/>
<stop offset="0.369" stop-color="#F87DC2"/>
<stop offset="0.6605" stop-color="#C579C7"/>
<stop offset="0.821" stop-color="#7F73CE"/>
</linearGradient>
<linearGradient id="paint1_linear" x1="105.955" y1="7.21528" x2="59.1883" y2="81.1562" gradientUnits="userSpaceOnUse">
<stop offset="0.1365" stop-color="#F891C2"/>
<stop offset="0.369" stop-color="#F87DC2"/>
<stop offset="0.6605" stop-color="#C579C7"/>
<stop offset="0.821" stop-color="#7F73CE"/>
</linearGradient>
<linearGradient id="paint2_linear" x1="85.7387" y1="-5.57092" x2="38.9725" y2="68.3699" gradientUnits="userSpaceOnUse">
<stop offset="0.1365" stop-color="#F891C2"/>
<stop offset="0.369" stop-color="#F87DC2"/>
<stop offset="0.6605" stop-color="#C579C7"/>
<stop offset="0.821" stop-color="#7F73CE"/>
</linearGradient>
<linearGradient id="paint3_linear" x1="110.464" y1="10.0677" x2="63.6976" y2="84.0083" gradientUnits="userSpaceOnUse">
<stop offset="0.1365" stop-color="#F891C2"/>
<stop offset="0.369" stop-color="#F87DC2"/>
<stop offset="0.6605" stop-color="#C579C7"/>
<stop offset="0.821" stop-color="#7F73CE"/>
</linearGradient>
<linearGradient id="paint4_linear" x1="79.4692" y1="-9.53662" x2="32.7032" y2="64.4041" gradientUnits="userSpaceOnUse">
<stop offset="0.1365" stop-color="#F891C2"/>
<stop offset="0.369" stop-color="#F87DC2"/>
<stop offset="0.6605" stop-color="#C579C7"/>
<stop offset="0.821" stop-color="#7F73CE"/>
</linearGradient>
<linearGradient id="paint5_linear" x1="89.2249" y1="-3.36563" x2="42.4585" y2="70.5757" gradientUnits="userSpaceOnUse">
<stop offset="0.1365" stop-color="#F891C2"/>
<stop offset="0.369" stop-color="#F87DC2"/>
<stop offset="0.6605" stop-color="#C579C7"/>
<stop offset="0.821" stop-color="#7F73CE"/>
</linearGradient>
<clipPath id="clip0">
<rect x="35" width="69" height="81" fill="white"/>
</clipPath>
</defs>
</svg>
