<svg width="523" height="703" viewBox="0 0 523 703" fill="none" xmlns="http://www.w3.org/2000/svg">
<g filter="url(#filter0_i)">
<path d="M221.187 156.907L234.632 156.914L234.684 263.804L221.239 263.798L221.187 156.907Z" fill="#C4C4C4"/>
<path d="M242.122 196.848L255.568 196.855L255.62 303.745L242.175 303.739L242.122 196.848Z" fill="#C4C4C4"/>
<path d="M264.436 139.34L277.881 139.347L277.934 246.237L264.489 246.23L264.436 139.34Z" fill="#C4C4C4"/>
<path d="M241.587 75.6301L255.033 75.6367L255.085 182.527L241.64 182.52L241.587 75.6301Z" fill="#C4C4C4"/>
<path d="M264.377 18.5976L277.822 18.6043L277.875 125.495L264.429 125.488L264.377 18.5976Z" fill="#C4C4C4"/>
<path d="M264.02 260.558L277.466 260.564L277.518 367.455L264.073 367.448L264.02 260.558Z" fill="#C4C4C4"/>
<path d="M220.767 270.519L234.212 270.526L234.265 377.416L220.82 377.409L220.767 270.519Z" fill="#C4C4C4"/>
<path d="M242.182 317.591L255.627 317.597L255.679 424.488L242.234 424.481L242.182 317.591Z" fill="#C4C4C4"/>
<path d="M264.08 381.3L277.525 381.307L277.578 488.197L264.132 488.191L264.08 381.3Z" fill="#C4C4C4"/>
<path d="M284.85 85.6341L298.296 85.6407L298.348 192.531L284.903 192.524L284.85 85.6341Z" fill="#C4C4C4"/>
<path d="M284.91 206.377L298.355 206.383L298.408 313.273L284.962 313.267L284.91 206.377Z" fill="#C4C4C4"/>
<path d="M284.969 327.119L298.414 327.126L298.467 434.016L285.022 434.009L284.969 327.119Z" fill="#C4C4C4"/>
<path d="M285.028 447.861L298.474 447.868L298.526 554.758L285.081 554.752L285.028 447.861Z" fill="#C4C4C4"/>
<path d="M383.557 434.533L370.112 434.526L370.059 327.636L383.505 327.643L383.557 434.533Z" fill="#C4C4C4"/>
<path d="M362.622 394.592L349.176 394.586L349.124 287.695L362.569 287.702L362.622 394.592Z" fill="#C4C4C4"/>
<path d="M340.308 452.1L326.863 452.094L326.81 345.203L340.255 345.21L340.308 452.1Z" fill="#C4C4C4"/>
<path d="M363.157 515.81L349.711 515.804L349.659 408.913L363.104 408.92L363.157 515.81Z" fill="#C4C4C4"/>
<path d="M340.367 572.843L326.922 572.836L326.869 465.946L340.315 465.952L340.367 572.843Z" fill="#C4C4C4"/>
<path d="M340.724 330.883L327.278 330.876L327.226 223.986L340.671 223.992L340.724 330.883Z" fill="#C4C4C4"/>
<path d="M383.977 320.921L370.532 320.915L370.479 214.024L383.924 214.031L383.977 320.921Z" fill="#C4C4C4"/>
<path d="M362.562 273.85L349.117 273.843L349.064 166.953L362.51 166.959L362.562 273.85Z" fill="#C4C4C4"/>
<path d="M340.664 210.14L327.219 210.134L327.166 103.243L340.612 103.25L340.664 210.14Z" fill="#C4C4C4"/>
<path d="M319.894 505.806L306.448 505.8L306.396 398.909L319.841 398.916L319.894 505.806Z" fill="#C4C4C4"/>
<path d="M319.834 385.064L306.389 385.057L306.336 278.167L319.782 278.174L319.834 385.064Z" fill="#C4C4C4"/>
<path d="M319.775 264.321L306.33 264.315L306.277 157.424L319.722 157.431L319.775 264.321Z" fill="#C4C4C4"/>
<path d="M319.716 143.579L306.27 143.572L306.218 36.682L319.663 36.6886L319.716 143.579Z" fill="#C4C4C4"/>
<path d="M469.183 557.219L455.738 557.212L455.685 450.322L469.131 450.329L469.183 557.219Z" fill="#C4C4C4"/>
<path d="M448.248 517.278L434.802 517.272L434.75 410.381L448.195 410.388L448.248 517.278Z" fill="#C4C4C4"/>
<path d="M425.934 574.786L412.488 574.78L412.436 467.889L425.881 467.896L425.934 574.786Z" fill="#C4C4C4"/>
<path d="M448.783 638.496L435.337 638.49L435.285 531.599L448.73 531.606L448.783 638.496Z" fill="#C4C4C4"/>
<path d="M425.993 695.529L412.548 695.522L412.495 588.632L425.941 588.638L425.993 695.529Z" fill="#C4C4C4"/>
<path d="M426.349 453.569L412.904 453.562L412.852 346.672L426.297 346.678L426.349 453.569Z" fill="#C4C4C4"/>
<path d="M469.603 443.607L456.157 443.601L456.105 336.71L469.55 336.717L469.603 443.607Z" fill="#C4C4C4"/>
<path d="M448.188 396.536L434.743 396.529L434.69 289.639L448.136 289.645L448.188 396.536Z" fill="#C4C4C4"/>
<path d="M426.29 332.826L412.845 332.82L412.792 225.929L426.238 225.936L426.29 332.826Z" fill="#C4C4C4"/>
<path d="M405.519 628.492L392.074 628.486L392.022 521.595L405.467 521.602L405.519 628.492Z" fill="#C4C4C4"/>
<path d="M405.46 507.75L392.015 507.743L391.962 400.853L405.408 400.86L405.46 507.75Z" fill="#C4C4C4"/>
<path d="M405.401 387.007L391.955 387.001L391.903 280.11L405.348 280.117L405.401 387.007Z" fill="#C4C4C4"/>
<path d="M405.341 266.265L391.896 266.258L391.843 159.368L405.289 159.375L405.341 266.265Z" fill="#C4C4C4"/>
</g>
<defs>
<filter id="filter0_i" x="0" y="0" width="702.248" height="706.248" filterUnits="userSpaceOnUse" color-interpolation-filters="sRGB">
<feFlood flood-opacity="0" result="BackgroundImageFix"/>
<feBlend mode="normal" in="SourceGraphic" in2="BackgroundImageFix" result="shape"/>
<feColorMatrix in="SourceAlpha" type="matrix" values="0 0 0 0 0 0 0 0 0 0 0 0 0 0 0 0 0 0 127 0" result="hardAlpha"/>
<feOffset dy="4"/>
<feGaussianBlur stdDeviation="5"/>
<feComposite in2="hardAlpha" operator="arithmetic" k2="-1" k3="1"/>
<feColorMatrix type="matrix" values="0 0 0 0 0 0 0 0 0 0 0 0 0 0 0 0 0 0 0.25 0"/>
<feBlend mode="normal" in2="shape" result="effect1_innerShadow"/>
</filter>
</defs>
</svg>
