<svg viewBox="0 0 24 24" fill="none" xmlns="http://www.w3.org/2000/svg">
<path d="M24 0H0V24H24V0Z" fill="#12100E"/>
<path d="M6.14571 8.02645C6.16574 7.82853 6.09027 7.63291 5.94248 7.4997L4.43706 5.68618V5.41528H9.1114L12.7244 13.3391L15.9009 5.41528H20.3569V5.68618L19.0698 6.92028C18.9588 7.00486 18.9038 7.14388 18.9268 7.28148V16.3491C18.9038 16.4867 18.9588 16.6257 19.0698 16.7103L20.3268 17.9444V18.2153H14.004V17.9444L15.3062 16.6802C15.4342 16.5523 15.4342 16.5146 15.4342 16.319V8.98965L11.8136 18.1852H11.3244L7.10918 8.98965V15.1526C7.07404 15.4117 7.16009 15.6726 7.34252 15.86L9.03613 17.9143V18.1852H4.23383V17.9143L5.92743 15.86C6.10853 15.6723 6.18957 15.4097 6.14571 15.1526V8.02645Z" fill="white"/>
</svg>
