<svg width="54" height="59" viewBox="0 0 54 59" fill="none" xmlns="http://www.w3.org/2000/svg">
<path d="M24.5697 0.748789C26.0379 -0.0849519 27.9503 -0.0887179 29.4173 0.748789C36.7974 4.8859 44.1799 9.01653 51.5587 13.1562C52.9466 13.9317 53.875 15.4641 53.8608 17.0506V41.941C53.8712 43.5932 52.8511 45.1622 51.3869 45.9202C44.031 50.0345 36.6789 54.1538 29.3242 58.2681C27.8257 59.1182 25.8749 59.0527 24.4231 58.133C22.2178 56.8647 20.0087 55.6027 17.8032 54.3356C17.3526 54.0691 16.8445 53.8569 16.5263 53.4234C16.8076 53.0473 17.3106 53.0004 17.7193 52.8362C18.6399 52.5458 19.4853 52.0796 20.331 51.6273C20.5448 51.4821 20.8059 51.5377 21.0109 51.6677C22.8967 52.7403 24.7658 53.8442 26.6579 54.9066C27.0616 55.1378 27.4703 54.8309 27.8153 54.64C35.0337 50.5927 42.261 46.5606 49.4781 42.512C49.7455 42.3844 49.8933 42.1028 49.8716 41.8122C49.8767 33.6013 49.8729 25.389 49.8741 17.1782C49.9047 16.8485 49.7124 16.5453 49.4119 16.4104C42.0815 12.3149 34.7549 8.21313 27.4258 4.1166C27.2988 4.02999 27.1484 3.98353 26.9943 3.9833C26.8402 3.98308 26.6896 4.02911 26.5624 4.11535C19.2333 8.21313 11.908 12.3186 4.57888 16.4139C4.27941 16.5491 4.07843 16.8472 4.11407 17.1782C4.11534 25.389 4.11407 33.6013 4.11407 41.8134C4.10136 41.9552 4.13275 42.0975 4.20402 42.221C4.27528 42.3446 4.383 42.4435 4.51266 42.5045C6.46846 43.6048 8.4268 44.6973 10.3839 45.7938C11.4864 46.3826 12.8401 46.7324 14.0549 46.2813C15.1268 45.8999 15.8782 44.8147 15.8578 43.6855C15.8679 35.5226 15.8527 27.3584 15.8654 19.1967C15.8386 18.8344 16.1851 18.535 16.5402 18.5691C17.4799 18.5628 18.4209 18.5565 19.3607 18.5716C19.7529 18.5628 20.0229 18.953 19.9744 19.3181C19.9706 27.5327 19.9845 35.7475 19.968 43.9621C19.9706 46.1514 19.064 48.5336 17.0227 49.6048C14.5081 50.8971 11.3999 50.623 8.91565 49.3838C6.76498 48.3189 4.71258 47.0621 2.60008 45.9212C1.13207 45.1674 0.117045 43.5922 0.127379 41.9412V17.0506C0.111984 15.4312 1.07723 13.8711 2.50834 13.1068C9.86297 8.98912 17.2163 4.86833 24.5697 0.748789Z" fill="#8CC84B"/>
<path d="M30.9858 17.9908C34.1935 17.786 37.6274 17.8695 40.5139 19.4371C42.7487 20.6385 43.9877 23.1598 44.0271 25.6229C43.9647 25.9552 43.6146 26.1385 43.2949 26.1157C42.3643 26.1144 41.4334 26.1282 40.5027 26.1094C40.1079 26.1244 39.8785 25.7633 39.8289 25.4171C39.5615 24.2385 38.9136 23.0713 37.7955 22.5028C36.0791 21.6503 34.0889 21.6932 32.2172 21.7109C30.8508 21.7829 29.3816 21.9003 28.224 22.6974C27.3353 23.3012 27.0653 24.5201 27.3825 25.5018C27.6816 26.2067 28.5017 26.4341 29.1728 26.6437C33.0384 27.6467 37.1348 27.5469 40.9266 28.8669C42.4965 29.405 44.0322 30.4511 44.5695 32.0818C45.2724 34.2673 44.9643 36.8796 43.397 38.6342C42.1259 40.078 40.2747 40.8638 38.4284 41.2906C35.9721 41.834 33.4231 41.8478 30.9287 41.6065C28.5831 41.3413 26.1423 40.7299 24.3316 39.1444C22.7832 37.8107 22.0269 35.7325 22.102 33.7267C22.1199 33.3879 22.4599 33.1517 22.787 33.1796C23.7242 33.172 24.6614 33.1695 25.5986 33.1808C25.9729 33.1543 26.2505 33.4752 26.2696 33.8252C26.4426 34.9481 26.8679 36.1266 27.8549 36.7924C29.7597 38.0115 32.1497 37.928 34.3308 37.9621C36.1377 37.8826 38.166 37.8586 39.6406 36.6738C40.4186 35.998 40.6491 34.8673 40.4388 33.8947C40.211 33.0735 39.3451 32.6908 38.6015 32.4406C34.7854 31.243 30.6433 31.6776 26.8642 30.3233C25.3299 29.7854 23.8463 28.7684 23.2569 27.2047C22.4344 24.9915 22.8112 22.2541 24.5429 20.5588C26.2313 18.8725 28.6685 18.223 30.9858 17.9906V17.9908Z" fill="#8CC84B"/>
</svg>
