<svg width="69" height="73" viewBox="0 0 69 73" fill="none" xmlns="http://www.w3.org/2000/svg">
<path d="M67.3973 69.5098C63.489 62.8938 47.195 59.4457 44.7769 55.521C42.3447 51.6102 23.4639 55.563 23.4639 55.563C19.5275 59.2495 5.13142 63.9031 0.829462 71.3601C0.53423 71.8787 0.253056 72.4253 0 73H69C68.522 71.7105 68.0018 70.519 67.3973 69.5098Z" fill="#FCC14A"/>
<path d="M23.0422 33.6126L23.478 55.563C23.478 55.563 27.4847 60.0905 35.2311 59.8101C42.9774 59.5298 44.791 55.521 44.791 55.521L43.6944 32.4912L23.0422 33.6126Z" fill="url(#peep9_linear)"/>
<path d="M47.0122 25.5108C47.0122 25.5108 50.1052 24.7259 50.2598 28.8048C50.4285 32.8837 46.6608 32.3371 46.6608 32.3371L47.0122 25.5108Z" fill="#DE4E31"/>
<path d="M20.6101 25.5108C20.6101 25.5108 17.5171 24.7259 17.3625 28.8048C17.1938 32.8837 20.9615 32.3371 20.9615 32.3371L20.6101 25.5108Z" fill="#DE4E31"/>
<path d="M46.8997 29.6598C46.8997 39.2334 40.3203 46.7324 34.0079 46.5642C27.6956 46.396 20.5959 38.7147 20.5959 29.1412C20.5959 19.5677 22.1986 9.51754 34.0501 9.4054C47.7714 9.26523 46.8997 20.0863 46.8997 29.6598Z" fill="#E87950"/>
<path d="M34.275 26.0151L31.6882 32.0704L33.6143 32.6311C34.022 32.7433 34.4578 32.7432 34.8514 32.6171L36.8197 31.9723L34.275 26.0151Z" fill="#DE4E31"/>
<path d="M27.2035 26.4358C27.5685 26.4358 27.8643 26.1408 27.8643 25.777C27.8643 25.4131 27.5685 25.1182 27.2035 25.1182C26.8386 25.1182 26.5428 25.4131 26.5428 25.777C26.5428 26.1408 26.8386 26.4358 27.2035 26.4358Z" fill="#011E41"/>
<path d="M41.3466 26.6601C41.7115 26.6601 42.0073 26.3652 42.0073 26.0013C42.0073 25.6375 41.7115 25.3425 41.3466 25.3425C40.9816 25.3425 40.6858 25.6375 40.6858 26.0013C40.6858 26.3652 40.9816 26.6601 41.3466 26.6601Z" fill="#011E41"/>
<path d="M46.8998 29.6598C46.8998 29.5196 46.8998 29.3935 46.8998 29.2673C46.6889 30.5148 46.2953 32.4492 45.6626 34.1452C44.6082 36.9486 42.4854 39.2474 42.4854 39.2474C42.4854 39.2474 41.1076 36.5141 39.3643 34.832C37.6211 33.15 32.574 32.6594 29.8325 34.2153C27.0911 35.7712 25.8399 38.8829 25.8399 38.8829C24.6589 37.8036 21.9316 33.8929 20.6944 30.9774C21.5098 39.6959 28.1033 46.424 34.022 46.5922C40.3203 46.7464 46.8998 39.2334 46.8998 29.6598Z" fill="#1B4E61"/>
<path d="M30.7463 35.7709C30.7463 37.0044 32.2366 38.0136 34.1064 38.0276C35.9621 38.0416 37.4805 37.0464 37.4805 35.813C37.4805 34.5795 36.0886 35.7989 34.2329 35.7989C32.3771 35.7849 30.7604 34.5374 30.7463 35.7709Z" fill="white"/>
<path d="M25.6993 33.3041C26.8872 33.3041 27.8502 32.3439 27.8502 31.1595C27.8502 29.9751 26.8872 29.0149 25.6993 29.0149C24.5113 29.0149 23.5483 29.9751 23.5483 31.1595C23.5483 32.3439 24.5113 33.3041 25.6993 33.3041Z" fill="#DE4E31"/>
<path d="M41.9652 33.3041C43.1531 33.3041 44.1162 32.3439 44.1162 31.1595C44.1162 29.9751 43.1531 29.0149 41.9652 29.0149C40.7772 29.0149 39.8142 29.9751 39.8142 31.1595C39.8142 32.3439 40.7772 33.3041 41.9652 33.3041Z" fill="#DE4E31"/>
<path d="M20.596 29.141C20.596 29.141 20.5116 23.1418 22.761 20.843C24.3075 19.2591 23.956 16.4277 23.956 16.4277C23.956 16.4277 29.945 16.9182 33.4878 15.9931C37.0446 15.054 43.4554 12.6992 43.4554 12.6992C43.4554 12.6992 42.9915 18.404 44.9456 19.3852C46.9419 20.3804 46.8435 28.8887 46.8435 28.8887C46.8435 28.8887 50.4285 18.6003 50.4847 17.549C50.541 16.4977 49.3741 16.4557 48.7274 17.535C48.7274 17.535 49.6131 15.8109 50.077 14.1289C50.541 12.4469 49.3741 12.587 48.868 13.1898C48.3478 13.7925 47.7433 15.1521 47.7433 15.1521C47.7433 15.1521 48.5446 13.4701 49.0086 11.4236C49.4725 9.37716 48.7274 9.51733 48.3478 9.7416C47.9682 9.97988 46.9419 12.4048 46.6608 12.8674C46.6608 12.8674 48.0104 9.13887 47.1247 7.69513C46.239 6.25139 44.791 9.46126 44.791 9.46126C44.791 9.46126 45.4939 5.69071 43.4835 3.06955C41.5012 0.476426 37.2977 -0.785095 36.1308 0.518477C34.964 1.82205 37.5789 2.00427 38.4224 3.22374C39.2659 4.42919 39.4487 5.36832 39.4487 5.36832C39.4487 5.36832 38.563 3.32186 35.6107 2.38272C32.6583 1.44359 29.5795 1.72393 28.7781 2.76118C28.7781 2.76118 27.3723 2.76118 26.0226 3.74236C24.673 4.72355 23.5905 6.12524 23.5905 6.12524C23.5905 6.12524 22.986 5.74678 22.3814 6.22336C21.7769 6.68591 21.3973 7.56898 21.3973 7.56898C21.3973 7.56898 20.7366 7.19052 20.132 7.84932C19.5275 8.50811 19.2885 10.4144 19.7103 11.9563C19.7103 11.9563 18.2201 13.2178 18.3044 16.3856C18.3888 19.5534 20.132 23.8846 20.2164 25.5246C20.3289 27.1366 20.596 29.141 20.596 29.141Z" fill="#1B4E61"/>
<defs>
<linearGradient id="peep9_linear" x1="33.6984" y1="40.1219" x2="33.8842" y2="46.926" gradientUnits="userSpaceOnUse">
<stop stop-color="#E0653D"/>
<stop offset="1" stop-color="#E87950"/>
</linearGradient>
</defs>
</svg>
