<svg width="56" height="74" viewBox="0 0 56 74" fill="none" xmlns="http://www.w3.org/2000/svg">
<path d="M25.9537 2.99305C25.9537 2.99305 22.1492 -0.494669 15.8806 1.75455C11.053 3.47705 7.23415 8.31715 6.29745 13.0434C4.89961 20.0615 6.02365 26.2113 6.67213 31.2649C7.32061 36.3185 4.91402 39.2083 3.97733 40.8597C3.04063 42.511 3.32885 44.0769 4.25113 44.7175C5.17342 45.3581 9.17959 43.0662 9.17959 43.0662C9.17959 43.0662 3.51618 47.7497 5.08695 49.4864C6.67213 51.2232 11.8744 46.4542 11.8744 46.4542C11.8744 46.4542 7.42149 50.3975 8.71845 51.8637C10.0154 53.33 14.843 49.5718 14.843 49.5718C14.843 49.5718 9.07872 53.7998 10.563 55.9921C12.0473 58.1986 22.913 52.1342 25.2475 49.3868C27.5677 46.6393 39.0962 30.5673 40.2058 25.6134C40.2058 25.6134 39.1827 22.0402 39.2836 17.5418C39.37 13.0434 37.7993 6.80818 33.1014 3.86141C28.9223 1.24207 25.9537 2.99305 25.9537 2.99305Z" fill="#1B4E61"/>
<path d="M54.4292 64.5191C52.5414 58.0989 46.806 55.4368 42.2666 53.0737C37.5543 50.6252 33.4328 48.5468 32.4241 43.2227C31.3721 37.7135 30.3634 27.5493 30.3634 27.5493L16.63 38.4538C17.0911 41.2012 17.3793 47.9062 16.8173 50.9384C16.2553 53.9705 8.45908 58.1843 5.57694 61.131C2.83891 63.907 0.691714 67.9072 0 74H56C55.5821 70.1421 55.0633 66.6829 54.4292 64.5191Z" fill="url(#peep4_linear)"/>
<path d="M10.246 14.4669C8.67526 18.6379 8.50233 23.535 9.36698 29.0441C10.2316 34.5248 13.0273 39.1372 17.2929 39.9913C21.5584 40.8454 24.6567 39.0802 27.2074 35.2224C29.6284 31.5496 30.9254 27.0512 31.1704 25.9265C31.6027 23.962 30.8677 23.6631 29.9311 22.994C29.0088 22.3249 28.3891 21.4993 28.7782 16.588C29.0376 13.2854 26.2996 13.385 23.2013 12.417C20.91 11.691 20.2326 8.65879 20.2326 8.65879C20.2326 8.65879 17.5667 8.18902 14.8863 9.52716C12.1482 10.8795 10.9666 12.5878 10.246 14.4669Z" fill="#E87950"/>
<path d="M13.5749 31.265C13.5749 32.475 15.0592 33.4715 16.9038 33.4857C18.7483 33.5 20.247 32.5177 20.2615 31.3077C20.2615 30.0977 18.878 31.2935 17.0335 31.2935C15.1889 31.265 13.5893 30.0407 13.5749 31.265Z" fill="white"/>
<path d="M17.0623 21.7981L18.0134 27.9336L15.0736 28.4319C14.3098 28.56 13.719 27.8482 14.0648 27.2218L17.0623 21.7981Z" fill="#DE4E31"/>
<path d="M11.3556 23.1364C11.7138 23.1364 12.0041 22.8496 12.0041 22.4958C12.0041 22.142 11.7138 21.8552 11.3556 21.8552C10.9975 21.8552 10.7072 22.142 10.7072 22.4958C10.7072 22.8496 10.9975 23.1364 11.3556 23.1364Z" fill="#011E41"/>
<path d="M22.8698 22.7663C23.2279 22.7663 23.5183 22.4795 23.5183 22.1257C23.5183 21.7719 23.2279 21.4851 22.8698 21.4851C22.5116 21.4851 22.2213 21.7719 22.2213 22.1257C22.2213 22.4795 22.5116 22.7663 22.8698 22.7663Z" fill="#011E41"/>
<path d="M24.4838 29.4286C25.6617 29.4286 26.6166 28.4853 26.6166 27.3217C26.6166 26.1581 25.6617 25.2148 24.4838 25.2148C23.3059 25.2148 22.351 26.1581 22.351 27.3217C22.351 28.4853 23.3059 29.4286 24.4838 29.4286Z" fill="#DE4E31"/>
<path d="M12.1914 27.6347C12.1914 26.4674 11.2403 25.5278 10.0587 25.5278C9.65515 25.5278 9.28048 25.6417 8.96344 25.8268C9.06431 26.8944 9.20842 27.9621 9.38135 29.044C9.41017 29.2575 9.4534 29.4568 9.49664 29.6704C9.68398 29.7273 9.87131 29.7558 10.0731 29.7558C11.2259 29.7416 12.1914 28.802 12.1914 27.6347Z" fill="#DE4E31"/>
<path d="M31.2424 20.8729C31.2424 20.8729 34.3695 20.3461 34.1966 24.3606C34.0237 28.375 30.3489 27.5493 30.3489 27.5493L31.2424 20.8729Z" fill="#DE4E31"/>
<path d="M37.2805 65.7435C38.1163 59.4513 41.229 55.1949 42.9439 53.4297C42.7133 53.3158 42.4828 53.1877 42.2522 53.0738C41.4884 52.6752 40.7535 52.2909 40.0329 51.9065C38.1884 53.871 36.3006 56.8462 33.4905 61.4159C30.2913 66.6403 26.703 70.8113 17.2064 69.7437C10.0731 68.9465 13.3155 58.341 15.405 53.1735C14.4395 54.1984 13.0705 55.2946 11.6294 56.3622C10.8945 58.6257 7.23418 66.9393 4.92847 73.9716H39.8168C38.2316 71.8648 36.8482 68.9892 37.2805 65.7435Z" fill="#FCC14A"/>
<path d="M40.2059 25.6135C41.6037 31.3932 42.9007 39.2797 39.8312 45.7996C36.2141 53.5152 25.8096 59.0102 21.616 59.2949C17.4369 59.5654 20.1317 56.7182 22.5383 54.9815C22.5383 54.9815 17.9846 58.1987 14.3675 58.1987C10.7504 58.1987 12.5085 55.8072 15.0159 54.0704C17.5234 52.3337 22.7257 48.1057 26.631 42.7816C30.5363 37.4575 31.7468 30.7668 31.7468 30.7668L40.2059 25.6135Z" fill="#1B4E61"/>
<path d="M28.4179 14.8371C28.3603 14.8371 28.317 14.8086 28.2882 14.7659C28.2594 14.6947 28.2738 14.6093 28.3459 14.5809L32.9861 12.1893C33.0582 12.1608 33.1446 12.175 33.1734 12.2462C33.2023 12.3174 33.1879 12.4028 33.1158 12.4313L28.4755 14.8229C28.4611 14.8229 28.4323 14.8371 28.4179 14.8371Z" fill="#FCC14A"/>
<defs>
<linearGradient id="peep4_linear" x1="24.7856" y1="38.5212" x2="25.4546" y2="46.0836" gradientUnits="userSpaceOnUse">
<stop stop-color="#E0653D"/>
<stop offset="1" stop-color="#E87950"/>
</linearGradient>
</defs>
</svg>
