<svg width="75" height="74" viewBox="0 0 75 74" fill="none" xmlns="http://www.w3.org/2000/svg">
<path d="M70.3864 61.8428C63.5656 53.8994 54.7513 52.9313 51.9318 49.6714C49.0982 54.1841 40.7537 65.8857 39.344 65.6295C37.9201 65.3732 27.7957 54.8247 24.9763 50.2693C19.6507 53.3015 6.13727 57.0597 1.79419 68.2915C1.09645 70.1137 0.498386 72.0497 0 73.9858H75C74.1029 69.1172 72.6789 64.5049 70.3864 61.8428Z" fill="#37BC9B"/>
<path d="M51.9318 49.6713C49.0981 54.1839 40.7537 65.8856 39.344 65.6293C37.9201 65.3731 27.7957 54.8245 24.9763 50.2692C27.6248 49.1018 28.5362 36.5603 29.718 30.1543L50.0237 31.5351C50.0237 31.5494 50.0237 47.8064 51.9318 49.6713Z" fill="url(#peep2)"/>
<path d="M31.4268 9.69768C29.2339 13.7975 28.6074 18.9935 28.052 24.3603C27.5109 29.7414 29.3336 39.6635 38.3473 40.7597C47.3752 41.8558 51.0205 34.1117 52.473 30.1969C53.9254 26.2821 56.574 15.9898 54.2956 11.7049C52.0173 7.41998 47.1901 4.33087 42.1777 4.41628C37.1654 4.51593 32.9362 6.8648 31.4268 9.69768Z" fill="#E87950"/>
<path d="M54.3811 22.638C54.3811 22.638 57.4853 22.5668 56.7448 26.4816C56.0044 30.3964 52.5584 29.0725 52.5584 29.0725L54.3811 22.638Z" fill="#DE4E31"/>
<path d="M29.0346 18.0258C29.0346 18.0258 26.2294 16.7161 25.318 20.6024C24.4067 24.4887 28.109 24.6596 28.109 24.6596L29.0346 18.0258Z" fill="#DE4E31"/>
<path d="M28.3511 21.7839C28.3511 21.7839 29.3906 15.4633 31.8113 13.8831C34.7874 11.9328 35.2715 10.1819 36.2398 8.41665C37.4502 10.4239 41.5085 13.0005 45.9512 13.4276C50.3798 13.8546 52.9571 12.4311 52.9571 12.4311C52.9571 12.4311 52.2167 15.9188 53.3274 18.0114C54.5377 20.3176 53.2704 26.5101 53.2704 26.5101C53.2704 26.5101 56.3746 22.3817 56.6167 17.8264C56.8588 13.271 54.851 11.3919 54.851 11.3919C54.851 11.3919 56.2465 10.7655 57.3144 9.96833C58.7526 8.88643 58.6814 6.75109 57.3714 7.17816C56.0186 7.61946 55.2782 7.84723 55.2782 7.84723C55.2782 7.84723 58.0264 6.38097 58.4251 5.04282C58.8381 3.6335 57.941 3.16373 57.0297 3.34879C56.1183 3.53385 54.794 4.40222 53.6406 4.81505C53.6406 4.81505 56.1183 3.46267 56.3604 2.5516C56.7449 1.08533 55.7054 0.800623 54.1533 1.35581C52.5869 1.911 52.06 2.18147 50.1804 2.3523C48.3008 2.53736 46.293 0.587089 41.7933 1.0711C37.2936 1.55511 35.599 5.56954 35.599 5.56954C35.599 5.56954 31.9252 5.00012 29.889 9.51279C27.5679 14.6234 28.3511 21.7839 28.3511 21.7839Z" fill="#FCC14A"/>
<path d="M33.7621 21.5134C34.116 21.5134 34.4029 21.2266 34.4029 20.8728C34.4029 20.519 34.116 20.2322 33.7621 20.2322C33.4082 20.2322 33.1213 20.519 33.1213 20.8728C33.1213 21.2266 33.4082 21.5134 33.7621 21.5134Z" fill="#011E41"/>
<path d="M48.6425 24.3178C48.9964 24.3178 49.2833 24.031 49.2833 23.6772C49.2833 23.3234 48.9964 23.0366 48.6425 23.0366C48.2886 23.0366 48.0017 23.3234 48.0017 23.6772C48.0017 24.031 48.2886 24.3178 48.6425 24.3178Z" fill="#011E41"/>
<path d="M41.4373 21.5986L37.9628 27.0081L39.7285 27.8623C40.0988 28.0473 40.5117 28.1043 40.9247 28.0473L42.9182 27.7484L41.4373 21.5986Z" fill="#DE4E31"/>
<path d="M32.6656 27.8339C33.8217 27.8339 34.7588 26.897 34.7588 25.7413C34.7588 24.5856 33.8217 23.6487 32.6656 23.6487C31.5096 23.6487 30.5724 24.5856 30.5724 25.7413C30.5724 26.897 31.5096 27.8339 32.6656 27.8339Z" fill="#DE4E31"/>
<path d="M47.247 31.1081C48.4031 31.1081 49.3403 30.1712 49.3403 29.0155C49.3403 27.8598 48.4031 26.9229 47.247 26.9229C46.091 26.9229 45.1538 27.8598 45.1538 29.0155C45.1538 30.1712 46.091 31.1081 47.247 31.1081Z" fill="#DE4E31"/>
<path d="M36.3964 29.5422C36.1686 30.7238 37.4359 31.9623 39.2159 32.3039C40.9958 32.6456 42.6191 31.948 42.847 30.7665C43.0748 29.5849 41.5084 30.5102 39.7285 30.1686C37.9485 29.8412 36.6243 28.3607 36.3964 29.5422Z" fill="white"/>
<defs>
<linearGradient id="peep2" x1="38.988" y1="39.0348" x2="38.6805" y2="45.3423" gradientUnits="userSpaceOnUse">
<stop stop-color="#E0653D"/>
<stop offset="1" stop-color="#E87950"/>
</linearGradient>
</defs>
</svg>
