<svg width="54" height="73" viewBox="0 0 54 73" fill="none" xmlns="http://www.w3.org/2000/svg">
<path d="M51.75 65.4349C48.6461 59.9292 44.7154 58.8523 41.2455 54.6794C39.9985 53.1717 39.4563 50.0891 38.9819 48.2449C38.7786 47.4507 38.0738 46.8988 37.2605 46.8584L25.0211 46.3873C24.4111 46.3603 23.8419 46.643 23.4895 47.1276C22.3645 48.6757 20.5617 52.2025 17.9458 54.289C14.5708 56.9812 4.55422 60.3331 1.58584 68.3963C1.09789 69.702 0.569277 71.277 0 73H54C53.3494 69.702 52.5904 66.9021 51.75 65.4349Z" fill="#1B4E61"/>
<path d="M35.5392 6.81139C35.241 4.06531 33.0181 -0.0538104 29.2365 3.42959e-05C25.4548 0.053879 24.0723 2.15382 23.2319 3.58071C22.3916 5.00759 19.9925 6.56909 16.8615 6.91908C13.7304 7.28254 12.4699 10.3786 13.0798 12.8824C13.6762 15.3862 12.4835 17.4727 10.491 18.6169C8.51207 19.7476 6.70936 22.911 8.26809 25.6032C9.82683 28.2954 11.1551 29.48 10.125 32.8857C9.10845 36.2914 12.6461 39.5759 15.5332 38.674C18.4202 37.7721 19.1928 37.7183 20.5211 38.7952C21.8494 39.8721 23.8825 42.1335 26.8916 40.8278C29.9006 39.5221 35.5392 6.81139 35.5392 6.81139Z" fill="#FCC14A"/>
<path d="M24.75 27.7839C24.4789 34.8511 24.3027 48.4603 24.3027 48.4603C24.3027 48.4603 27.5422 49.9814 31.5136 49.9814C35.485 49.9814 38.3585 49.443 38.3585 49.443L38.7244 41.2047L24.75 27.7839Z" fill="url(#peep12_linear)"/>
<path d="M24.75 27.7839C24.4789 32.1722 28.5859 43.6681 34.6717 44.7046C41.5166 45.8622 47.2907 38.2567 49.9067 32.8857C52.0482 28.4839 52.6175 23.2205 50.991 17.9303C49.3645 12.6535 38.6431 11.3074 32.9639 13.6362C27.2711 15.9649 25.1431 21.4975 24.75 27.7839Z" fill="#E87950"/>
<path d="M36.0813 35.6184C35.7153 36.7492 36.8132 38.1087 38.5211 38.6472C40.2289 39.1856 41.9096 38.7145 42.2756 37.5838C42.6416 36.453 40.9879 37.1799 39.2801 36.6415C37.5723 36.0896 36.4473 34.4877 36.0813 35.6184Z" fill="white"/>
<path d="M41.9638 29.8706L39.8087 34.2186L42.384 35.1339C42.7364 35.2551 43.0753 35.0397 43.0075 34.7301L41.9638 29.8706Z" fill="#DE4E31"/>
<path d="M34.4006 27.9052C34.7524 27.9052 35.0376 27.622 35.0376 27.2726C35.0376 26.9232 34.7524 26.6399 34.4006 26.6399C34.0488 26.6399 33.7635 26.9232 33.7635 27.2726C33.7635 27.622 34.0488 27.9052 34.4006 27.9052Z" fill="#011E41"/>
<path d="M46.6536 33.3435C47.0054 33.3435 47.2906 33.0602 47.2906 32.7108C47.2906 32.3614 47.0054 32.0781 46.6536 32.0781C46.3018 32.0781 46.0165 32.3614 46.0165 32.7108C46.0165 33.0602 46.3018 33.3435 46.6536 33.3435Z" fill="#011E41"/>
<path d="M32.11 33.8144C33.2553 33.8144 34.1838 32.8923 34.1838 31.7549C34.1838 30.6174 33.2553 29.6953 32.11 29.6953C30.9647 29.6953 30.0362 30.6174 30.0362 31.7549C30.0362 32.8923 30.9647 33.8144 32.11 33.8144Z" fill="#DE4E31"/>
<path d="M46.4232 36.1973C45.2847 36.1973 44.3494 37.1126 44.3494 38.2568C44.3494 38.9433 44.6883 39.5356 45.1898 39.9126C46.125 38.8895 46.9789 37.7722 47.7244 36.6549C47.372 36.3723 46.9112 36.1973 46.4232 36.1973Z" fill="#DE4E31"/>
<path d="M34.3329 14.9822C34.3329 14.9822 30.4293 17.0687 28.3826 19.8821C26.3359 22.6955 25.6717 26.2627 25.6717 26.2627C25.6717 26.2627 22.6085 22.9243 23.3268 17.9033C23.8012 14.6323 26.9865 7.28244 36.244 6.44785C45.5016 5.61325 50.7877 12.6535 51.9263 15.763C53.0648 18.8725 53.729 24.1762 51.3299 29.0088C51.3299 29.0088 51.872 24.0551 51.4519 20.5283C51.4519 20.5283 48.6326 21.1879 43.4549 19.5187C38.3043 17.8495 34.3329 14.9822 34.3329 14.9822Z" fill="#FCC860"/>
<path d="M25.8343 21.2821C25.8343 21.2821 23.015 20.084 22.2424 23.9204C21.4698 27.7703 25.1295 27.8107 25.1295 27.8107L25.8343 21.2821Z" fill="#DE4E31"/>
<defs>
<linearGradient id="peep12_linear" x1="35.6234" y1="39.9598" x2="26.0253" y2="38.6588" gradientUnits="userSpaceOnUse">
<stop stop-color="#E0653D"/>
<stop offset="1" stop-color="#E87950"/>
</linearGradient>
</defs>
</svg>
