<svg width="59" height="73" viewBox="0 0 59 73" fill="none" xmlns="http://www.w3.org/2000/svg">
<path d="M44.4654 4.12744C44.4654 4.12744 53.4418 6.73358 53.5808 17.3272C53.7058 27.9208 47.9948 37.486 47.036 43.7971C46.0772 50.1081 48.773 56.6024 48.773 56.6024L34.8497 42.2334L40.9498 7.95917L44.4654 4.12744Z" fill="#FAF8DC"/>
<path d="M58.6388 69.3233C57.7911 61.533 53.4697 57.8281 49.5234 54.4753C46.3691 56.0108 41.4918 59.9553 36.1282 66.1114C34.0855 68.4499 32.2374 70.8588 30.6812 73H59C58.9028 71.8026 58.7777 70.577 58.6388 69.3233Z" fill="#1B4E61"/>
<path d="M20.732 67.5623C18.2447 57.1095 19.0367 51.7423 19.4814 46.53C19.0367 46.5864 18.5921 46.6427 18.1335 46.685C13.0339 47.178 7.44795 50.2913 3.98799 58.2929C2.55676 61.6034 1.15332 67.365 0 72.9999H22.3022C21.7741 71.4785 21.2322 69.6753 20.732 67.5623Z" fill="#1B4E61"/>
<path d="M36.1281 66.0974C41.4917 59.9412 46.369 55.9968 49.5233 54.4613C48.1338 53.278 46.7859 52.1369 45.6604 50.8691C41.325 46.0372 42.7701 36.7255 43.0619 32.8233L28.1521 32.1331C28.1521 32.1331 28.2494 34.9646 27.8603 39.7402C27.5129 44.0931 23.9696 45.854 19.4814 46.502C19.0367 51.7143 18.2447 57.0956 20.732 67.5343C21.2322 69.6473 21.7741 71.4505 22.3022 72.9719H30.6811C32.2235 70.8448 34.0855 68.4358 36.1281 66.0974Z" fill="url(#peep1)"/>
<path d="M47.5224 22.5256C47.5224 31.4006 41.5334 38.3456 35.7807 38.1906C30.028 38.0357 23.5667 30.9216 23.5667 22.0466C23.5667 13.1717 27.513 5.90269 35.7807 6.07174C44.7016 6.24078 47.5224 13.6648 47.5224 22.5256Z" fill="#E87950"/>
<path d="M29.1943 21.2154C29.5627 21.2154 29.8613 20.9127 29.8613 20.5392C29.8613 20.1658 29.5627 19.863 29.1943 19.863C28.826 19.863 28.5273 20.1658 28.5273 20.5392C28.5273 20.9127 28.826 21.2154 29.1943 21.2154Z" fill="#011E41"/>
<path d="M42.2838 21.0181C42.6522 21.0181 42.9508 20.7154 42.9508 20.342C42.9508 19.9685 42.6522 19.6658 42.2838 19.6658C41.9154 19.6658 41.6168 19.9685 41.6168 20.342C41.6168 20.7154 41.9154 21.0181 42.2838 21.0181Z" fill="#011E41"/>
<path d="M35.9475 19.2854L36.3088 25.85L33.4046 25.681C33.0017 25.6528 32.7654 25.2161 32.96 24.8639L35.9475 19.2854Z" fill="#DE4E31"/>
<path d="M32.0151 28.5969C32.0151 29.893 33.5575 30.9495 35.4611 30.9636C37.3787 30.9777 38.935 29.9352 38.935 28.6392C38.935 27.3432 37.5038 28.6251 35.5862 28.6251C33.6825 28.5969 32.029 27.3009 32.0151 28.5969Z" fill="white"/>
<path d="M27.1378 27.8223C28.358 27.8223 29.3472 26.8194 29.3472 25.5824C29.3472 24.3454 28.358 23.3425 27.1378 23.3425C25.9176 23.3425 24.9284 24.3454 24.9284 25.5824C24.9284 26.8194 25.9176 27.8223 27.1378 27.8223Z" fill="#DE4E31"/>
<path d="M42.923 27.5688C44.1432 27.5688 45.1324 26.566 45.1324 25.329C45.1324 24.0919 44.1432 23.0891 42.923 23.0891C41.7028 23.0891 40.7136 24.0919 40.7136 25.329C40.7136 26.566 41.7028 27.5688 42.923 27.5688Z" fill="#DE4E31"/>
<path d="M47.1889 20.0038C47.1889 20.0038 50.3709 19.1867 50.5377 23.4552C50.7044 27.7236 46.8415 27.1601 46.8415 27.1601L47.1889 20.0038Z" fill="#DE4E31"/>
<path d="M44.4654 4.12757C44.4654 4.12757 42.7979 -0.366254 35.1693 0.0281883C27.5408 0.422631 21.8297 5.87439 19.7037 12.7771C17.5916 19.6658 19.6343 29.6254 20.2179 35.0772C20.8015 40.543 16.4939 44.1212 16.6189 47.3753C16.744 50.6295 18.9951 52.7708 22.2605 51.5311C25.5259 50.2914 29.764 44.572 29.3194 38.5286C28.8747 32.4852 24.7061 27.9913 24.8867 20.187C25.0118 15.2424 26.1651 11.5093 28.0271 10.2414C30.2087 8.74818 31.5565 9.57933 35.211 9.32576C38.0318 9.12854 40.9221 8.80453 42.0754 8.08608C43.2426 7.36763 44.4654 4.12757 44.4654 4.12757Z" fill="#FAF8DC"/>
<defs>
<linearGradient id="peep1" x1="33.1392" y1="37.4335" x2="33.5629" y2="43.9538" gradientUnits="userSpaceOnUse">
<stop stop-color="#E0653D"/>
<stop offset="1" stop-color="#E87950"/>
</linearGradient>
</defs>
</svg>
