<svg width="60" height="73" viewBox="0 0 60 73" fill="none" xmlns="http://www.w3.org/2000/svg">
<path d="M36.7266 0.444199C42.169 1.62878 45.9215 7.33633 46.2808 12.0881C46.7332 18.213 44.9102 21.1744 43.5795 22.8975L19.8669 20.0571C19.8669 20.0571 18.7625 12.0747 20.2928 8.30553C21.823 4.5364 25.2429 1.81724 28.5429 0.632656C31.843 -0.551929 35.8749 0.255743 36.7266 0.444199Z" fill="#1B4E61"/>
<path d="M34.7704 3.91728C39.3346 4.79225 43.0206 7.91525 43.7525 12.3709C44.4843 16.8266 42.9541 22.0226 42.9541 22.0226C42.9541 22.0226 44.8968 17.8361 44.8968 14.0266C44.8968 10.2171 43.7525 6.87874 40.5456 4.52303C37.4052 2.20771 34.1317 1.69618 30.5921 2.20771C27.0658 2.71923 23.6726 5.03455 21.7032 9.11329C19.8403 12.9767 20.0532 17.7823 20.0532 17.7823C20.0532 17.7823 20.5988 13.0574 21.8895 10.4594C23.167 7.8614 24.9102 6.2326 27.2122 4.94033C29.501 3.63459 33.0805 3.59421 34.7704 3.91728Z" fill="#FAF8DC"/>
<path d="M48.2103 50.991C47.4385 53.1718 45.2562 55.8505 40.7452 59.0678C35.1564 63.0523 27.9042 65.1926 20.1996 64.0753C13.8656 63.16 11.1245 58.0312 10.3527 54.9083C14.704 52.5795 19.5077 50.4122 20.6521 48.6757C22.3952 46.0777 21.6101 31.5127 21.4372 28.3628L37.7645 29.8435C37.7645 29.8435 37.4451 39.9529 37.6314 42.7393C37.8177 45.5258 40.4258 47.3834 43.0473 48.6353C43.9787 49.093 45.9614 49.8334 48.2103 50.991Z" fill="url(#peep9_linear)"/>
<path d="M58.1504 61.3022C56.6733 56.2004 52.0559 52.9832 48.1969 50.991C47.4252 53.1717 45.2429 55.8505 40.7319 59.0677C35.143 63.0522 27.8909 65.1925 20.1863 64.0752C13.8523 63.1599 11.1111 58.0312 10.3393 54.9082C8.13041 56.0793 6.04125 57.3043 4.60413 58.5158C1.87625 60.8042 0.585496 67.2117 0 73H60C59.7206 69.2443 59.1883 64.8694 58.1504 61.3022Z" fill="#E289A9"/>
<path d="M43.1138 25.5762C45.7751 28.1742 46.507 30.4895 45.7751 33.3702C45.0432 36.2509 43.0206 37.1797 43.3 39.8585C43.5795 42.5507 45.4025 44.5026 44.2182 47.5583C43.0206 50.614 41.1976 51.3678 38.8024 52.2832C36.2874 53.2658 35.6886 55.81 36.4205 58.5022C37.1523 61.1945 35.968 63.8867 34.318 64.9905C32.668 66.1078 31.5635 66.377 31.4704 68.3289C31.3772 70.2808 31.6567 70.8327 30.2328 71.6673C28.6094 72.623 26.7997 71.7615 26.3872 70.5096C26.0545 69.5 27.1989 67.6424 25.4291 67.2655C24.1517 66.9828 22.2222 66.5655 22.6746 63.604C23.1936 60.2791 24.6973 61.1003 24.6973 58.1253C24.6973 55.1504 21.3972 55.4331 21.8496 50.614C22.302 45.7949 24.8702 44.3949 26.3473 43.6545C27.811 42.9142 30.2861 42.443 31.7631 40.3162C33.2269 38.1893 31.9095 38.0951 33.5728 36.2913C35.2229 34.5009 35.4092 35.3086 36.6334 34.0702C37.7378 32.9529 38.1637 31.7818 38.7758 30.3549C39.3879 28.928 41.1044 27.9992 41.1044 27.9992L43.1138 25.5762Z" fill="#1B4E61"/>
<path d="M42.3287 24.3378C40.4657 32.5626 33.4398 37.7048 28.1304 36.3183C22.821 34.9318 18.3101 26.9493 20.173 18.7245C22.0359 10.4997 25.7751 5.64024 34.5842 7.30943C43.513 8.99208 44.1916 16.113 42.3287 24.3378Z" fill="#E87950"/>
<path d="M24.8038 19.1014C25.1565 19.1014 25.4425 18.8121 25.4425 18.4552C25.4425 18.0984 25.1565 17.8091 24.8038 17.8091C24.451 17.8091 24.165 18.0984 24.165 18.4552C24.165 18.8121 24.451 19.1014 24.8038 19.1014Z" fill="#011E41"/>
<path d="M37.9774 22.4397C38.3302 22.4397 38.6161 22.1504 38.6161 21.7936C38.6161 21.4367 38.3302 21.1475 37.9774 21.1475C37.6246 21.1475 37.3387 21.4367 37.3387 21.7936C37.3387 22.1504 37.6246 22.4397 37.9774 22.4397Z" fill="#011E41"/>
<path d="M31.8297 19.0205L30.4857 24.3377L32.9607 25.0242C33.5995 25.1992 34.1717 24.6204 33.9188 24.0415L31.8297 19.0205Z" fill="#DE4E31"/>
<path d="M27.0658 26.7609C26.7864 27.9589 27.9973 29.2647 29.7804 29.6954C31.5502 30.1127 33.2136 29.4935 33.493 28.2955C33.7724 27.0974 32.1623 27.9724 30.3925 27.5551C28.6094 27.1243 27.3453 25.5628 27.0658 26.7609Z" fill="white"/>
<path d="M24.3646 25.0379C25.5258 25.0379 26.4671 24.0857 26.4671 22.911C26.4671 21.7364 25.5258 20.7842 24.3646 20.7842C23.2035 20.7842 22.2621 21.7364 22.2621 22.911C22.2621 24.0857 23.2035 25.0379 24.3646 25.0379Z" fill="#DE4E31"/>
<path d="M37.3121 28.053C38.4732 28.053 39.4145 27.1008 39.4145 25.9262C39.4145 24.7515 38.4732 23.7993 37.3121 23.7993C36.1509 23.7993 35.2096 24.7515 35.2096 25.9262C35.2096 27.1008 36.1509 28.053 37.3121 28.053Z" fill="#DE4E31"/>
<path d="M42.6613 21.7533C42.6613 21.7533 45.7884 21.6725 45.0432 25.6705C44.2981 29.6685 40.825 28.3089 40.825 28.3089L42.6613 21.7533Z" fill="#DE4E31"/>
<path d="M21.0113 16.7323C21.0113 16.7323 18.2302 15.2919 17.1789 19.2091C16.1277 23.1263 19.8403 23.436 19.8403 23.436L21.0113 16.7323Z" fill="#DE4E31"/>
<defs>
<linearGradient id="peep9_linear" x1="28.5931" y1="34.0843" x2="28.9059" y2="42.5362" gradientUnits="userSpaceOnUse">
<stop stop-color="#E0653D"/>
<stop offset="1" stop-color="#E87950"/>
</linearGradient>
</defs>
</svg>
