<svg width="70" height="74" viewBox="0 0 70 74" fill="none" xmlns="http://www.w3.org/2000/svg">
<path d="M65.3539 64.9947C59.9178 60.4852 45.6312 53.3642 43.9977 50.6316C42.3642 47.899 24.2751 50.9008 24.2751 50.9008C22.6415 51.4527 11.8898 60.3371 6.85539 63.8908C4.21767 65.7619 1.79419 69.6522 0 73.9867H70C68.9824 70.3253 67.4962 66.7715 65.3539 64.9947Z" fill="#E85F5B"/>
<path d="M23.4583 24.5975C22.4942 22.9014 21.3963 17.3016 22.3068 13.7747C23.2173 10.2479 26.8993 8.84794 26.8993 8.84794C26.8993 8.84794 26.8324 5.80571 28.8408 4.5269C30.8358 3.24808 34.5849 3.97499 38.2134 3.36923C41.842 2.76348 45.832 0.0847059 46.9166 1.29621C48.0011 2.50772 44.4395 4.99804 44.4395 4.99804C44.4395 4.99804 47.3986 2.87117 48.1216 3.71923C48.8446 4.56728 47.3316 6.20954 47.3316 6.20954C47.3316 6.20954 49.3266 5.11919 49.5141 6.33069C49.7016 7.5422 46.4881 9.06332 46.4881 9.06332C46.4881 9.06332 49.9292 11.9844 50.0497 15.9285C50.1702 19.8861 47.8672 24.9879 47.8672 24.9879L23.4583 24.5975Z" fill="#46ACC3"/>
<path d="M24.2215 23.1301C24.2215 23.1301 21.1419 22.9416 21.731 26.8992C22.3202 30.8568 25.8014 29.6318 25.8014 29.6318L24.2215 23.1301Z" fill="#DE4E31"/>
<path d="M24.6767 22.5918C24.409 28.7436 25.3596 41.1952 24.6767 45.4354C23.9939 49.6757 23.86 52.1391 23.86 52.1391C23.86 52.1391 29.2961 66.233 35.1473 66.0983C40.9985 65.9637 44.3994 55.1544 44.5333 52.9602C44.6672 50.7661 44.6672 42.1509 44.6672 38.1933C44.6672 34.2357 45.8856 25.4725 45.8856 25.4725L24.6767 22.5918Z" fill="url(#peep10_linear)"/>
<path d="M47.0773 22.4168C47.0773 30.7089 41.4269 37.2107 36.0042 37.0626C30.5815 36.9145 24.4893 30.2647 24.4893 21.9726C24.4893 13.6805 26.7789 7.32686 35.9105 7.51532C47.6396 7.74416 47.0773 14.1248 47.0773 22.4168Z" fill="#E87950"/>
<path d="M46.8229 23.8571C46.8229 23.8571 49.9024 23.6687 49.3133 27.6263C48.7242 31.5704 45.2429 30.3589 45.2429 30.3589L46.8229 23.8571Z" fill="#DE4E31"/>
<path d="M38.5214 25.7957C38.575 24.7995 37.1557 23.9111 35.3481 23.8303C33.5405 23.7496 32.0409 24.4765 32.0007 25.4861C31.9472 26.4822 33.3531 25.5534 35.1473 25.6341C36.9549 25.7149 38.4679 26.7918 38.5214 25.7957Z" fill="white"/>
<path d="M29.497 18.4187C29.8445 18.4187 30.1263 18.1354 30.1263 17.786C30.1263 17.4366 29.8445 17.1533 29.497 17.1533C29.1494 17.1533 28.8677 17.4366 28.8677 17.786C28.8677 18.1354 29.1494 18.4187 29.497 18.4187Z" fill="#011E41"/>
<path d="M41.8955 18.6074C42.2431 18.6074 42.5248 18.3241 42.5248 17.9747C42.5248 17.6253 42.2431 17.342 41.8955 17.342C41.548 17.342 41.2662 17.6253 41.2662 17.9747C41.2662 18.3241 41.548 18.6074 41.8955 18.6074Z" fill="#011E41"/>
<path d="M35.5624 16.2651L33.0585 21.0977L34.9331 21.5419C35.3213 21.6362 35.7498 21.6362 36.1381 21.5285L38.0528 21.0169L35.5624 16.2651Z" fill="#DE4E31"/>
<defs>
<linearGradient id="peep10_linear" x1="40.0982" y1="35.5665" x2="32.44" y2="42.8211" gradientUnits="userSpaceOnUse">
<stop stop-color="#E0653D"/>
<stop offset="1" stop-color="#E87950"/>
</linearGradient>
</defs>
</svg>
