<svg width="65" height="75" viewBox="0 0 65 75" fill="none" xmlns="http://www.w3.org/2000/svg">
<path d="M46.4065 58.189C44.9331 62.2399 39.4462 67.8046 33.8191 67.4682C27.9534 67.1178 22.242 62.4081 20.7686 56.2827C22.3122 55.4557 23.3787 54.4885 23.6032 53.1429C24.5855 47.2558 24.4873 35.776 24.4873 35.776L40.3022 35.2854C40.3022 35.2854 40.8916 50.7881 43.0527 55.1053C43.5719 56.1566 44.7927 57.1658 46.4065 58.189Z" fill="url(#peep7_linear)"/>
<path d="M28.5147 7.41979C33.3139 6.9292 42.758 7.61603 43.8385 19.5865C44.919 31.5569 41.6775 41.9574 33.2297 41.7612C24.782 41.5649 22.5227 35.1873 21.0492 26.8472C19.5758 18.5072 21.8351 8.10662 28.5147 7.41979Z" fill="#E87950"/>
<path d="M33.1455 23.7075L30.4232 30.0852L32.4579 30.6739C32.8789 30.8001 33.342 30.786 33.763 30.6599L35.8258 29.9871L33.1455 23.7075Z" fill="#DE4E31"/>
<path d="M25.3713 30.9682C26.4021 30.9682 27.2377 30.1336 27.2377 29.104C27.2377 28.0744 26.4021 27.2397 25.3713 27.2397C24.3405 27.2397 23.5049 28.0744 23.5049 29.104C23.5049 30.1336 24.3405 30.9682 25.3713 30.9682Z" fill="#DE4E31"/>
<path d="M39.9093 30.9682C40.9401 30.9682 41.7757 30.1336 41.7757 29.104C41.7757 28.0744 40.9401 27.2397 39.9093 27.2397C38.8786 27.2397 38.043 28.0744 38.043 29.104C38.043 30.1336 38.8786 30.9682 39.9093 30.9682Z" fill="#DE4E31"/>
<path d="M26.1572 24.4923C26.5369 24.4923 26.8448 24.1848 26.8448 23.8055C26.8448 23.4262 26.5369 23.1187 26.1572 23.1187C25.7774 23.1187 25.4695 23.4262 25.4695 23.8055C25.4695 24.1848 25.7774 24.4923 26.1572 24.4923Z" fill="#011E41"/>
<path d="M38.927 24.6886C39.3068 24.6886 39.6147 24.3811 39.6147 24.0018C39.6147 23.6224 39.3068 23.3149 38.927 23.3149C38.5473 23.3149 38.2394 23.6224 38.2394 24.0018C38.2394 24.3811 38.5473 24.6886 38.927 24.6886Z" fill="#011E41"/>
<path d="M61.3234 67.7204C57.3241 63.6555 50.5603 60.8661 46.4066 58.2029C44.9331 62.2538 39.4463 67.8185 33.8191 67.4821C27.9534 67.1317 22.2421 62.422 20.7686 56.2966C15.8431 58.9178 5.97803 60.0111 2.39966 66.529C5.96399 66.8093 8.4057 70.2575 9.388 74.014H53.5212C55.0367 68.0428 58.4888 67.2298 61.3234 67.7204Z" fill="#46ACC3"/>
<path d="M2.39961 66.5149C2.16105 66.9354 1.96459 67.3839 1.78217 67.8605C1.08053 69.7388 0.491149 71.8413 0 73.9999H12.4331C11.2122 70.1873 6.74978 66.8653 2.39961 66.5149Z" fill="#E87950"/>
<path d="M63.288 70.2154C62.7548 69.3324 62.0952 68.4913 61.3234 67.7204C58.4888 67.2298 55.0367 68.0428 53.5352 74.014H65C64.4948 72.5983 63.9335 71.3087 63.288 70.2154Z" fill="#E87950"/>
<path d="M28.5147 72.8647C28.9076 71.6872 27.6306 71.2948 27.8271 70.0192C28.0235 68.7437 29.3987 69.3324 30.0863 67.1738C30.7739 65.0152 28.8093 64.6227 28.8093 63.2491C28.8093 61.8754 29.9881 62.4641 30.0863 60.5018C30.1846 58.5394 28.3182 58.6375 28.0235 57.0676C27.7288 55.4977 29.2023 55.694 28.8093 53.9278C28.4164 52.1617 26.5781 51.8954 26.8728 50.5217C27.1675 49.1481 28.5147 49.3163 28.3182 47.2558C28.1217 45.1953 26.6202 45.5597 26.2273 44.1861C25.8344 42.8124 27.1114 42.42 26.8167 40.0651C26.522 37.7103 25.3152 38.8176 24.5293 37.0515C23.7435 35.2854 24.6276 35.2854 24.5293 32.9305C24.4311 30.5757 22.5928 30.9682 22.691 29.3983C22.7893 27.8284 24.0663 27.2677 23.4769 25.2072C22.8875 23.1467 21.7929 23.9877 22.4244 20.6938C22.5647 19.9649 23.9259 19.7126 24.7819 17.2877C25.3011 15.7879 23.7996 14.6104 24.8521 12.578C25.3152 11.6949 26.2834 11.8211 27.0131 11.2043C28.0375 10.3353 28.8093 8.87753 28.8093 8.87753C28.8093 8.87753 30.9423 7.79823 32.1211 8.90556C33.2016 9.9288 32.093 11.0081 33.8892 11.8491C35.9801 12.8303 36.5835 11.1763 37.7483 12.1715C39.1235 13.3489 38.2815 14.7786 38.4078 15.7738C38.6744 17.8063 40.4005 16.5308 40.4987 17.8063C40.5969 19.0818 39.5164 19.25 39.6427 20.5536C39.8391 22.502 41.8037 22.9084 41.8739 24.5765C41.902 25.3614 40.7934 26.2445 40.9898 27.7162C41.1863 29.188 41.9721 30.0711 41.7757 31.1504C41.5792 32.2297 40.6951 32.7203 40.4005 33.8977C40.1058 35.0751 40.8916 36.4488 40.5969 38.2149C40.3022 39.981 38.8288 39.7848 39.0252 40.766C39.2217 41.7472 39.4182 42.8265 39.2217 44.2001C39.0252 45.5738 38.6323 45.4756 38.7305 47.1437C38.8288 48.8117 40.6951 49.6947 40.3022 50.8722C39.9093 52.0496 40.204 53.6195 40.6951 55.1894C41.1863 56.7592 39.4182 58.0348 38.927 59.016C38.4359 59.9972 38.6323 61.2727 39.6146 62.6463C40.5969 64.02 39.7128 64.5106 39.4182 65.9824C39.1235 67.4541 39.9093 67.6504 40.4005 69.3184C40.8916 70.9864 39.9093 71.7713 39.3199 73.0469C39.1375 73.4394 39.1796 73.7337 39.334 73.986H56.019C56.3417 72.9908 55.2612 72.5843 55.5278 71.5751C55.8225 70.4958 57.0995 71.8695 58.0818 70.4958C59.0641 69.1221 57.1977 69.024 57.7871 67.9447C58.3765 66.8654 59.8499 67.4541 60.4393 66.2767C61.0287 65.0993 59.2606 64.1181 59.3588 62.9407C59.457 61.7633 60.6358 62.1558 61.4216 60.684C62.2075 59.2122 59.8499 58.9179 60.0464 57.6423C60.2429 56.3668 61.1269 57.1517 62.2074 55.4837C63.288 53.8157 61.3234 53.8157 61.8145 52.442C62.3057 51.0684 63.6809 51.4609 63.8774 50.3816C64.0738 49.3023 62.7968 47.8305 62.8951 46.5549C62.9933 45.2794 64.3685 44.8869 64.3685 43.2189C64.3685 41.5509 62.4039 41.2566 62.4039 39.6867C62.4039 38.1168 63.6809 38.1168 63.4844 36.9394C63.288 35.7619 61.2252 35.4676 60.734 33.8977C60.2429 32.3278 62.8951 32.1316 62.6986 30.5617C62.5021 28.9918 60.5375 29.2861 60.2429 27.8144C59.9482 26.3426 62.3057 26.2445 62.1092 24.6746C61.9128 23.1047 60.3411 23.4972 59.7517 21.731C59.1623 19.9649 60.9305 19.7687 60.6358 17.8063C60.3411 15.8439 58.4747 16.2364 57.7871 15.059C57.0995 13.8816 58.2783 12.9004 57.8853 11.5267C57.4924 10.1531 55.5278 10.5455 54.9385 9.56436C54.3491 8.58318 55.5278 7.99447 54.3491 6.32646C53.1703 4.65844 52.4827 6.55073 50.1954 4.06973C48.8763 2.64001 47.6133 4.49024 46.196 4.06973C45.3821 3.83145 44.8348 1.89712 43.9087 1.64481C42.6457 1.29439 41.6915 2.73813 40.5688 2.42976C39.2919 2.07934 38.3938 1.30841 37.8886 1.12619C36.0222 0.439359 35.1101 2.59796 33.7349 2.30361C32.3596 2.00925 31.672 1.12619 29.8057 2.20549C27.9393 3.28479 27.7429 5.24715 27.7429 5.24715C27.7429 5.24715 26.5641 4.75656 25.4836 5.05092C24.7679 5.24715 23.94 6.39654 22.242 6.81705C21.386 7.0273 20.0248 5.96202 18.7759 6.42457C15.8992 7.47584 18.4672 10.2932 14.9169 10.7418C13.3452 10.938 11.7033 10.3213 10.721 11.0642C9.07921 12.3117 9.31777 13.7414 9.02308 14.9188C8.72839 16.0962 6.07619 16.1944 5.58504 17.7642C5.09389 19.3341 5.36051 20.9321 5.26228 22.2076C5.16405 23.4831 3.59238 23.4831 3.69061 25.9361C3.78884 28.389 4.77113 27.8704 5.45874 29.5384C6.14635 31.2064 3.88707 32.0615 3.69061 33.7295C3.49415 35.3975 4.8413 36.4067 4.74307 37.3879C4.64484 38.3691 3.26962 38.9578 2.97493 40.7239C2.68025 42.49 4.27999 42.6162 4.37822 44.088C4.47645 45.5597 2.90477 45.9522 2.80654 47.8165C2.66621 49.7088 4.63081 49.905 4.9255 51.4749C5.22018 53.0448 3.9432 53.7316 4.23789 55.3996C4.53258 57.0676 6.49717 57.0676 7.18478 58.7356C7.87239 60.4036 6.5954 60.9924 6.69363 62.9547C6.79186 64.9171 8.36354 64.2303 8.95291 66.0945C9.54229 67.9587 8.36354 68.5475 8.36354 70.6079C8.36354 72.6684 10.9175 72.0797 11.7033 73.6496C11.7595 73.7758 11.8156 73.8879 11.8577 74H27.0131C27.5464 73.6917 28.2901 73.5235 28.5147 72.8647Z" fill="#FAF8DC"/>
<path d="M29.4969 32.6221C29.4969 33.9256 31.0686 34.9909 33.0192 34.9909C34.9697 35.0049 36.5554 33.9537 36.5695 32.6501C36.5695 31.3465 35.1101 32.6361 33.1455 32.6361C31.1949 32.6221 29.4969 31.3185 29.4969 32.6221Z" fill="white"/>
<defs>
<linearGradient id="peep7_linear" x1="33.7017" y1="41.5715" x2="33.6037" y2="54.7211" gradientUnits="userSpaceOnUse">
<stop stop-color="#E0653D"/>
<stop offset="1" stop-color="#E87950"/>
</linearGradient>
</defs>
</svg>
