<svg width="65" height="74" viewBox="0 0 65 74" fill="none" xmlns="http://www.w3.org/2000/svg">
<path d="M61.4553 65.435C55.66 58.3209 45.9543 57.0953 43.1692 53.8693C40.3841 50.6434 23.0405 53.3199 23.0405 53.3199C17.6812 55.8838 7.56763 59.9973 3.0805 65.9984C1.58948 67.9707 0.63298 70.8867 0 74H65C64.3108 70.7036 63.2136 67.5762 61.4553 65.435Z" fill="#E289A9"/>
<path d="M40.4403 2.0282C40.4403 2.0282 34.0824 -0.59202 28.0902 2.52126C21.6057 5.90219 19.0456 14.1432 20.2272 20.5106C20.2272 20.5106 17.9766 21.5672 17.6109 25.6384C17.2311 29.6955 19.9177 32.203 21.7323 32.4425C21.7323 32.4425 21.1133 34.1893 19.6786 35.9362C18.2438 37.683 16.6262 41.0639 18.8065 43.6137C20.9868 46.1776 24.2923 47.7413 27.8511 48.3611C27.8511 48.3611 48.8097 22.6942 48.9926 22.4969C49.1755 22.3138 53.0296 14.6926 50.1179 7.94484C47.0515 0.901226 40.4403 2.0282 40.4403 2.0282Z" fill="#46ACC3"/>
<path d="M23.0405 53.3058C23.0405 53.3058 27.2885 56.4895 33.0837 56.4895C39.0759 56.4895 43.4927 54.3201 43.4927 54.3201C43.4927 54.3201 43.2114 51.9253 43.113 48.6993C43.0145 45.2338 43.0567 41.1908 43.0567 41.1908C37.4443 41.1908 30.2564 38.6269 27.4432 33.3865C26.557 31.7383 25.8115 30.4986 25.1926 29.5688C24.9113 38.6269 23.0405 53.3058 23.0405 53.3058Z" fill="url(#peep5_linear)"/>
<path d="M25.1926 29.5687C25.8115 30.4984 26.5711 31.7381 27.4432 33.3863C30.2424 38.6408 34.5467 42.1908 40.1591 42.1908C41.4672 42.1908 45.5886 40.8807 47.6423 36.1897C49.696 31.4986 50.7228 19.6935 49.3443 15.3265C48.2753 11.9033 46.1091 6.77553 40.3701 8.02929C38.9916 7.28267 36.741 7.19815 34.3779 7.64894C26.7962 9.52254 25.3474 19.454 25.1926 29.456C25.1926 29.4841 25.1926 29.5264 25.1926 29.5687Z" fill="#E87950"/>
<path d="M31.7756 23.8493C32.1407 23.8493 32.4367 23.5529 32.4367 23.1872C32.4367 22.8216 32.1407 22.5251 31.7756 22.5251C31.4104 22.5251 31.1144 22.8216 31.1144 23.1872C31.1144 23.5529 31.4104 23.8493 31.7756 23.8493Z" fill="#011E41"/>
<path d="M46.3341 24.0185C46.6993 24.0185 46.9953 23.7221 46.9953 23.3564C46.9953 22.9908 46.6993 22.6943 46.3341 22.6943C45.969 22.6943 45.673 22.9908 45.673 23.3564C45.673 23.7221 45.969 24.0185 46.3341 24.0185Z" fill="#011E41"/>
<path d="M31.1426 31.6537C32.3312 31.6537 33.2947 30.6887 33.2947 29.4984C33.2947 28.308 32.3312 27.343 31.1426 27.343C29.954 27.343 28.9905 28.308 28.9905 29.4984C28.9905 30.6887 29.954 31.6537 31.1426 31.6537Z" fill="#DE4E31"/>
<path d="M46.531 31.5128C47.7196 31.5128 48.6832 30.5479 48.6832 29.3575C48.6832 28.1671 47.7196 27.2021 46.531 27.2021C45.3424 27.2021 44.3789 28.1671 44.3789 29.3575C44.3789 30.5479 45.3424 31.5128 46.531 31.5128Z" fill="#DE4E31"/>
<path d="M43.5771 33.3301C43.5771 34.5698 42.0861 35.5841 40.2153 35.5982C38.3586 35.6122 36.8394 34.6121 36.8394 33.3724C36.8394 32.1327 38.232 33.3583 40.0887 33.3583C41.9595 33.3301 43.5771 32.0764 43.5771 33.3301Z" fill="white"/>
<path d="M25.1645 22.5111C25.1645 22.5111 22.0699 21.7222 21.9152 25.8216C21.7604 29.921 25.5161 29.3716 25.5161 29.3716L25.1645 22.5111Z" fill="#DE4E31"/>
<path d="M39.4698 23.6804L39.1182 29.9774L41.9455 29.8084C42.3393 29.7802 42.5644 29.3576 42.3815 29.0195L39.4698 23.6804Z" fill="#DE4E31"/>
<defs>
<linearGradient id="peep5_linear" x1="36.7447" y1="49.1676" x2="21.4431" y2="39.8557" gradientUnits="userSpaceOnUse">
<stop stop-color="#E0653D"/>
<stop offset="1" stop-color="#E87950"/>
</linearGradient>
</defs>
</svg>
