<svg width="69" height="72" viewBox="0 0 69 72" fill="none" xmlns="http://www.w3.org/2000/svg">
<path d="M66.0781 64.8956C62.4435 58.9565 53.4069 55.5867 48.0905 51.8379C46.4799 53.7474 42.4604 57.412 34.9205 58.1421C25.6986 59.0267 20.8525 56.1764 17.617 52.7084C12.9705 56.5415 5.61578 61.3153 2.32328 66.3839C1.42533 67.7739 0.65565 69.7256 0 72.0001H69C68.2588 69.3605 67.3039 66.9034 66.0781 64.8956Z" fill="#E85F5B"/>
<path d="M48.0762 51.8376C46.4656 53.7471 42.4462 57.4117 34.9062 58.1418C25.6844 59.0264 20.8383 56.1761 17.6028 52.7081C19.5127 51.1356 20.9523 49.7175 21.4797 48.51C23.2898 44.3399 22.791 35.8875 22.8907 33.1075L41.2489 32.7144C41.2489 32.7144 41.7478 42.3462 44.3704 48.0186C45.0261 49.3805 46.3659 50.6301 48.0762 51.8376Z" fill="url(#peep3_linear)"/>
<path d="M31.1291 0.014086C35.3624 -0.238644 38.6406 2.85028 40.9639 5.02657C43.2872 7.21689 45.1971 9.84248 44.9548 13.3667C44.6982 16.8908 44.3562 20.2185 44.3562 20.2185C44.3562 20.2185 44.6982 27.1124 42.7883 27.3511C40.8784 27.5757 22.9193 27.7302 22.1638 27.5757C21.4084 27.4213 20.3964 21.4119 19.9403 20.2185C19.4842 19.025 18.0304 14.5601 18.8856 11.5273C19.7408 8.49459 21.8075 5.71455 23.8742 3.62251C25.9267 1.55855 29.4615 0.11237 31.1291 0.014086Z" fill="#1B4E61"/>
<path d="M19.983 11.1905C20.7527 8.14369 23.0902 6.51498 28.4067 7.51186C33.7232 8.50874 37.0869 7.44166 38.6976 6.80983C41.0208 5.91124 43.2871 8.00328 44.0995 11.1764C44.912 14.3496 43.7289 19.334 43.2586 22.1281C42.7882 24.9081 42.5174 30.9596 41.9758 33.5431C41.4342 36.1265 37.0014 42.529 32.8965 42.7396C28.7915 42.9362 23.7744 36.1827 23.019 34.7927C21.7077 32.4058 22.0925 28.5867 21.3513 24.6133C20.5959 20.6257 19.0993 14.6304 19.983 11.1905Z" fill="#E87950"/>
<path d="M44.3419 20.2325C44.3419 20.2325 47.7627 19.9517 47.2211 24.2621C46.6794 28.5866 42.774 27.3511 42.774 27.3511L44.3419 20.2325Z" fill="#DE4E31"/>
<path d="M20.1684 20.2325C20.1684 20.2325 16.7476 19.9517 17.2892 24.2621C17.8308 28.5866 21.7362 27.3511 21.7362 27.3511L20.1684 20.2325Z" fill="#DE4E31"/>
<path d="M32.5402 21.2012L33.5664 27.8424L30.3737 28.3899C29.547 28.5303 28.9056 27.7581 29.2904 27.0701L32.5402 21.2012Z" fill="#DE4E31"/>
<path d="M26.1832 22.3806C26.5768 22.3806 26.8959 22.0663 26.8959 21.6786C26.8959 21.2909 26.5768 20.9766 26.1832 20.9766C25.7897 20.9766 25.4706 21.2909 25.4706 21.6786C25.4706 22.0663 25.7897 22.3806 26.1832 22.3806Z" fill="#011E41"/>
<path d="M38.2843 22.2825C38.6779 22.2825 38.9969 21.9682 38.9969 21.5804C38.9969 21.1927 38.6779 20.8784 38.2843 20.8784C37.8907 20.8784 37.5716 21.1927 37.5716 21.5804C37.5716 21.9682 37.8907 22.2825 38.2843 22.2825Z" fill="#011E41"/>
<path opacity="0.21" d="M42.0471 33.1357C40.5363 32.2371 35.3481 29.3026 31.8846 29.429C28.1645 29.5694 24.986 32.5881 22.9193 34.624C22.9478 34.6802 22.9763 34.7363 23.0048 34.7925C23.7602 36.1825 28.7916 42.936 32.8823 42.7395C36.9872 42.5429 41.42 36.1264 41.9616 33.5429C41.9901 33.4165 42.0186 33.2761 42.0471 33.1357Z" fill="#1B4E61"/>
<path d="M25.0287 28.2216C26.0835 28.2216 26.9386 27.3793 26.9386 26.3402C26.9386 25.3011 26.0835 24.4587 25.0287 24.4587C23.9739 24.4587 23.1188 25.3011 23.1188 26.3402C23.1188 27.3793 23.9739 28.2216 25.0287 28.2216Z" fill="#DE4E31"/>
<path d="M38.7403 28.2216C39.7951 28.2216 40.6503 27.3793 40.6503 26.3402C40.6503 25.3011 39.7951 24.4587 38.7403 24.4587C37.6855 24.4587 36.8304 25.3011 36.8304 26.3402C36.8304 27.3793 37.6855 28.2216 38.7403 28.2216Z" fill="#DE4E31"/>
<path d="M28.5065 32.3917C28.4922 33.7115 30.1171 34.7786 32.1268 34.7926C34.1365 34.8067 35.7614 33.7396 35.7757 32.4338C35.7899 31.114 34.2648 32.4198 32.2694 32.4198C30.2454 32.3917 28.5065 31.0719 28.5065 32.3917Z" fill="white"/>
<defs>
<linearGradient id="peep3_linear" x1="32.7708" y1="42.3269" x2="32.8687" y2="55.9384" gradientUnits="userSpaceOnUse">
<stop stop-color="#E0653D"/>
<stop offset="1" stop-color="#E87950"/>
</linearGradient>
</defs>
</svg>
