<svg width="74" height="75" viewBox="0 0 74 75" fill="none" xmlns="http://www.w3.org/2000/svg">
<path d="M70.6044 63.9791C65.2336 55.1315 48.3503 46.7575 48.3503 46.7575L28.2336 45.7834C20.8336 50.329 6.18245 57.1472 2.11042 67.1582C1.16344 69.4851 0.48702 71.8255 0 74.0306H74C73.3101 70.3915 72.2413 66.6983 70.6044 63.9791Z" fill="#1B4E61"/>
<path d="M56.5214 70.662C56.1967 61.111 53.7887 52.8046 52.517 49.0301C50.0413 47.6097 48.3503 46.7709 48.3503 46.7709L28.2336 45.7969C26.4479 46.8927 24.2428 48.1238 21.8753 49.4901C21.483 53.278 20.2925 65.4265 19.9137 74.044H56.6161C56.589 72.9753 56.562 71.8389 56.5214 70.662Z" fill="#37BC9B"/>
<path d="M28.3283 30.51L28.2336 45.797C28.2336 45.797 32.9686 51.1137 39.5569 50.3426C46.1316 49.5714 48.3638 46.7575 48.3638 46.7575L48.8508 30.51H28.3283Z" fill="url(#peep11_linear)"/>
<path d="M50.8395 20.9588C50.8395 20.9588 54.0322 20.1471 54.208 24.3815C54.3839 28.6159 50.4877 28.0477 50.4877 28.0477L50.8395 20.9588Z" fill="#DE4E31"/>
<path d="M27.4219 20.9588C27.4219 20.9588 24.2293 20.1471 24.0534 24.3815C23.8775 28.6159 27.7737 28.0477 27.7737 28.0477L27.4219 20.9588Z" fill="#DE4E31"/>
<path d="M50.8665 25.7748C50.8665 34.5682 45.0088 41.4677 39.3945 41.3054C33.7667 41.1565 27.4625 34.1083 27.4625 25.3013C27.4625 16.5079 28.0307 9.22967 39.3945 9.45965C52.7605 9.73022 50.8665 16.9814 50.8665 25.7748Z" fill="#E87950"/>
<path d="M27.5166 23.7728C27.5166 23.7728 24.5539 21.5812 24.608 18.0909C24.6757 14.6141 25.4468 13.126 25.4468 13.126C25.4468 13.126 25.1898 11.1238 25.5821 10.2174C25.9744 9.31103 26.6102 8.53991 26.6102 8.53991C26.6102 8.53991 27.706 4.92785 31.0611 2.92565C34.4161 0.936986 40.1656 0.42291 42.6142 0.815231C45.0629 1.20755 48.3503 2.04631 48.3503 2.04631C48.3503 2.04631 56.2238 1.00463 56.5484 1.77574C56.8731 2.54686 54.4786 7.71468 54.4786 7.71468C54.4786 7.71468 54.9927 7.01121 55.2497 7.45764C55.5068 7.90408 54.411 11.7732 53.2475 13.9107C53.2475 13.9107 53.5722 14.8847 53.3152 16.7516C53.0581 18.6185 50.8665 22.3659 50.8665 22.3659C50.8665 22.3659 50.4472 19.9984 50.0278 18.0503C49.3784 15.02 47.3898 12.7608 47.3221 11.5973C47.3221 11.5973 43.8453 12.6255 39.8409 12.6255C35.8366 12.6255 32.1027 11.5973 32.1027 11.5973C32.1027 11.5973 29.9111 15.1417 29.14 17.4686C28.3689 19.7955 27.5166 23.7728 27.5166 23.7728Z" fill="#FCC14A"/>
<path d="M39.2728 23.5833L36.5942 29.8739L38.5964 30.4556C39.0157 30.5774 39.4622 30.5774 39.8816 30.4421L41.9243 29.7792L39.2728 23.5833Z" fill="#DE4E31"/>
<path d="M32.7386 24.8416C33.1121 24.8416 33.415 24.5388 33.415 24.1652C33.415 23.7916 33.1121 23.4888 32.7386 23.4888C32.365 23.4888 32.0621 23.7916 32.0621 24.1652C32.0621 24.5388 32.365 24.8416 32.7386 24.8416Z" fill="#011E41"/>
<path d="M45.6446 24.8416C46.0182 24.8416 46.321 24.5388 46.321 24.1652C46.321 23.7916 46.0182 23.4888 45.6446 23.4888C45.271 23.4888 44.9682 23.7916 44.9682 24.1652C44.9682 24.5388 45.271 24.8416 45.6446 24.8416Z" fill="#011E41"/>
<path d="M32.2921 31.6058C33.5175 31.6058 34.5108 30.6124 34.5108 29.3871C34.5108 28.1618 33.5175 27.1685 32.2921 27.1685C31.0668 27.1685 30.0735 28.1618 30.0735 29.3871C30.0735 30.6124 31.0668 31.6058 32.2921 31.6058Z" fill="#DE4E31"/>
<path d="M46.294 31.6058C47.5193 31.6058 48.5126 30.6124 48.5126 29.3871C48.5126 28.1618 47.5193 27.1685 46.294 27.1685C45.0686 27.1685 44.0753 28.1618 44.0753 29.3871C44.0753 30.6124 45.0686 31.6058 46.294 31.6058Z" fill="#DE4E31"/>
<path d="M35.6472 32.7557C35.6337 34.0409 37.1894 35.0826 39.124 35.0961C41.045 35.1096 42.6143 34.0815 42.6143 32.7963C42.6278 31.5111 41.1667 32.7828 39.2457 32.7828C37.3247 32.7692 35.6607 31.4705 35.6472 32.7557Z" fill="white"/>
<defs>
<linearGradient id="peep11_linear" x1="38.5793" y1="35.711" x2="37.8054" y2="45.1918" gradientUnits="userSpaceOnUse">
<stop stop-color="#E0653D"/>
<stop offset="1" stop-color="#E87950"/>
</linearGradient>
</defs>
</svg>
