<svg width="77" height="74" viewBox="0 0 77 74" fill="none" xmlns="http://www.w3.org/2000/svg">
<path d="M71.4689 61.0402C66.0434 53.6251 52.4994 50.0811 48.8164 47.4655C48.1167 46.9686 47.5491 46.2231 47.0739 45.3469C46.0046 47.6355 43.1929 51.9773 37.2261 52.5528C30.2693 53.2197 27.2332 49.5318 25.7547 45.9223C25.1738 47.1255 24.4214 48.1979 23.4049 49.0348C19.7219 52.0427 8.26367 55.953 3.26059 65.9967C2.03292 68.4553 0.950454 71.2147 0 74.0003H77C75.6535 69.1354 73.845 64.2835 71.4689 61.0402Z" fill="#FAF8DC"/>
<path d="M47.0871 45.3599C46.0047 47.6485 43.2061 51.9903 37.2393 52.5658C30.2825 53.2327 27.2464 49.5448 25.7679 45.9353C27.2728 42.7574 27.4576 38.6641 27.3652 35.7347L45.0146 35.4731C45.0014 35.4731 45.0938 41.6328 47.0871 45.3599Z" fill="url(#peep6_linear)"/>
<path d="M37.8862 54.6975C43.2061 54.0567 46.6911 50.3034 48.5656 47.3086C48.4336 47.2301 47.5359 46.2493 47.0739 45.373C45.9914 47.6617 43.1929 52.0035 37.2261 52.5789C30.2693 53.2459 27.2332 49.5579 25.7547 45.9485C25.2398 47.0339 25.0682 47.6617 24.1838 48.4463C26.5335 52.3696 30.3617 55.5999 37.8862 54.6975Z" fill="#1B4E61"/>
<path d="M26.7447 13.9863C24.9098 17.0726 24.461 21.7283 25.0815 26.3317C25.7019 30.935 26.5731 44.7321 37.3714 44.1567C48.8692 43.542 48.1432 19.5705 46.6779 15.8041C44.5658 10.4161 39.4835 8.1536 35.5233 8.49362C31.5762 8.8598 28.7645 10.5991 26.7447 13.9863Z" fill="#E87950"/>
<path d="M27.1803 13.3455C26.2431 12.1293 27.0615 9.00372 29.7017 7.2513C32.8567 5.15886 35.3252 4.46574 34.5068 0.987061C34.5068 0.987061 40.8827 3.01411 42.9289 6.20508C44.975 9.39605 44.0377 11.8285 44.0377 11.8285C44.0377 11.8285 39.9983 13.1755 35.7872 13.2409C31.5762 13.2932 27.1803 13.3455 27.1803 13.3455Z" fill="#1B4E61"/>
<path d="M30.6918 26.0308C31.0344 26.0308 31.3122 25.7556 31.3122 25.4162C31.3122 25.0767 31.0344 24.8015 30.6918 24.8015C30.3491 24.8015 30.0714 25.0767 30.0714 25.4162C30.0714 25.7556 30.3491 26.0308 30.6918 26.0308Z" fill="#011E41"/>
<path d="M41.9256 25.9134C42.2683 25.9134 42.546 25.6382 42.546 25.2987C42.546 24.9593 42.2683 24.6841 41.9256 24.6841C41.583 24.6841 41.3052 24.9593 41.3052 25.2987C41.3052 25.6382 41.583 25.9134 41.9256 25.9134Z" fill="#011E41"/>
<path d="M35.9192 24.7102L33.4903 31.4714L35.2988 32.0991C35.6816 32.2299 36.0909 32.2299 36.4605 32.073L38.3086 31.3668L35.9192 24.7102Z" fill="#DE4E31"/>
<path d="M30.0449 33.5638C31.1604 33.5638 32.0646 32.668 32.0646 31.5629C32.0646 30.4578 31.1604 29.562 30.0449 29.562C28.9295 29.562 28.0252 30.4578 28.0252 31.5629C28.0252 32.668 28.9295 33.5638 30.0449 33.5638Z" fill="#DE4E31"/>
<path d="M41.9916 33.616C43.107 33.616 44.0113 32.7202 44.0113 31.6152C44.0113 30.5101 43.107 29.6143 41.9916 29.6143C40.8761 29.6143 39.9719 30.5101 39.9719 31.6152C39.9719 32.7202 40.8761 33.616 41.9916 33.616Z" fill="#DE4E31"/>
<path d="M44.4734 38.9779C44.2357 38.1409 43.7209 36.9509 43.0345 35.7869C41.3976 33.0014 38.1238 32.3867 35.8401 32.4783C33.728 32.5698 31.4178 33.4983 29.7545 36.0093C29.0549 37.0686 28.6589 38.481 28.5269 39.4095C30.2826 42.2866 33.0283 44.379 37.3714 44.1567C40.6319 43.9998 42.9157 41.9335 44.4734 38.9779Z" fill="#1B4E61"/>
<path d="M35.9325 34.0999C37.6354 33.956 40.0247 34.2176 40.2887 35.1592C40.5527 36.1269 39.4703 38.2847 36.6057 38.3501C34.0844 38.4024 31.9722 36.7677 32.3287 35.5646C32.6851 34.3876 34.2164 34.2437 35.9325 34.0999Z" fill="#E87950"/>
<path d="M42.0576 28.9864C40.6055 28.9864 39.5362 28.6202 38.8102 27.8879C37.6749 26.7371 37.6749 24.9323 37.7541 23.3368C37.7673 23.1668 37.8597 23.0099 38.0181 22.9314C38.0841 22.8922 39.6682 22.1206 41.952 22.0552C44.0641 21.9898 45.6482 22.5653 45.7142 22.5914C45.8594 22.6437 45.965 22.7614 46.0178 22.9053C46.0442 23.023 46.7966 25.7824 45.4634 27.561C44.7901 28.4633 43.7077 28.9472 42.282 28.9733C42.2028 28.9864 42.1368 28.9864 42.0576 28.9864ZM38.7046 23.6769C38.6386 25.2593 38.7706 26.4755 39.4966 27.2209C40.0643 27.7964 40.9619 28.0579 42.2424 28.0317C43.3644 28.0056 44.1829 27.6656 44.6713 26.9986C45.5294 25.8608 45.2654 24.0561 45.1201 23.4022C44.6317 23.2584 43.4305 22.9576 41.9652 23.0099C40.4207 23.0622 39.2062 23.4807 38.7046 23.6769Z" fill="#011E41"/>
<path d="M30.573 28.9865C30.507 28.9865 30.4277 28.9865 30.3617 28.9865C28.9229 28.9473 27.8536 28.4765 27.1804 27.5741C25.8471 25.7955 26.5995 23.0361 26.6259 22.9184C26.6655 22.7746 26.7843 22.6569 26.9295 22.6046C26.9956 22.5784 28.5796 22.0161 30.6918 22.0684C32.9755 22.1338 34.5596 22.9054 34.6256 22.9446C34.784 23.0231 34.8764 23.18 34.8896 23.35C34.9688 24.9455 34.9688 26.7502 33.8335 27.9011C33.0943 28.6334 32.025 28.9865 30.573 28.9865ZM27.484 23.4154C27.352 24.0693 27.088 25.874 27.9328 27.0118C28.4212 27.6657 29.2397 28.0188 30.3617 28.0449C31.6422 28.0711 32.5531 27.8095 33.1075 27.2341C33.8467 26.4887 33.9655 25.2724 33.8995 23.69C33.3979 23.4938 32.1834 23.0754 30.6258 23.023C29.1869 22.9707 27.9856 23.2715 27.484 23.4154Z" fill="#011E41"/>
<path d="M34.388 23.8339C34.1768 23.8339 33.9788 23.69 33.926 23.4808C33.86 23.2323 34.0184 22.9707 34.2692 22.8923C35.4441 22.5915 37.807 22.4738 38.5198 22.9576C38.7443 23.1015 38.7971 23.4023 38.6518 23.6246C38.5066 23.8469 38.203 23.8992 37.9786 23.7554C37.6882 23.5723 35.8269 23.4808 34.52 23.8208C34.4672 23.8339 34.4276 23.8339 34.388 23.8339Z" fill="#011E41"/>
<path d="M48.4336 24.5139H48.4204C48.1563 24.5008 47.9451 24.2785 47.9583 24.0169C47.9583 23.86 47.9055 23.7423 47.7735 23.6377C47.3775 23.3369 46.4667 23.2715 45.701 23.5069C45.4502 23.5853 45.173 23.4415 45.107 23.1799C45.0278 22.9315 45.173 22.6568 45.437 22.5914C46.3214 22.3299 47.6283 22.3037 48.3808 22.8791C48.7636 23.1669 48.9484 23.5723 48.9352 24.0561C48.8956 24.3046 48.6844 24.5139 48.4336 24.5139Z" fill="#011E41"/>
<path d="M23.8934 24.4748C23.867 24.4748 23.8406 24.4748 23.8142 24.4748C23.5502 24.4355 23.3785 24.1871 23.4181 23.9255C23.7218 22.0554 25.7943 22.3692 27.154 22.5785C27.418 22.6177 27.6028 22.8662 27.55 23.1278C27.5104 23.3893 27.2596 23.5724 26.9956 23.5201C25.0814 23.2324 24.4742 23.3501 24.3554 24.0694C24.329 24.3048 24.1178 24.4748 23.8934 24.4748Z" fill="#011E41"/>
<path d="M47.3511 24.0171C47.3511 24.0171 50.2685 23.3371 50.3477 27.1427C50.4401 30.9483 46.9155 30.386 46.9155 30.386L47.3511 24.0171Z" fill="#DE4E31"/>
<path d="M24.8306 23.9517C24.8306 23.9517 21.8869 23.4155 21.9925 27.2211C22.0849 31.0268 25.5699 30.2944 25.5699 30.2944L24.8306 23.9517Z" fill="#DE4E31"/>
<path d="M33.1471 35.46C33.1471 36.6108 34.5464 37.5524 36.3021 37.5655C38.0446 37.5786 39.4702 36.6501 39.4702 35.4992C39.4702 34.3484 38.1634 35.4861 36.4209 35.4861C34.6652 35.46 33.1603 34.3091 33.1471 35.46Z" fill="white"/>
<defs>
<linearGradient id="peep6_linear" x1="36.4215" y1="42.909" x2="36.4215" y2="49.0409" gradientUnits="userSpaceOnUse">
<stop stop-color="#E0653D"/>
<stop offset="1" stop-color="#E87950"/>
</linearGradient>
</defs>
</svg>
