<svg width="47" height="56" viewBox="0 0 47 56" fill="none" xmlns="http://www.w3.org/2000/svg">
<path fill-rule="evenodd" clip-rule="evenodd" d="M42.3222 44.4189L16.8362 51.8564C16.0576 52.0839 15.3114 51.4194 15.475 50.6446L24.5797 7.6207C24.7499 6.81657 25.8771 6.68882 26.2327 7.43388L43.0906 42.756C43.4085 43.4223 43.0458 44.208 42.3222 44.4189ZM46.6927 42.6645L27.1735 1.76606V1.76518C26.931 1.26156 26.5549 0.832079 26.085 0.522288C25.6152 0.212497 25.0691 0.0339405 24.5047 0.00555226C23.3169 -0.0626979 22.2527 0.502554 21.6524 1.46462L0.482872 35.2966C0.161266 35.8076 -0.00604257 36.3986 0.000554011 37.0001C0.00715059 37.6016 0.187379 38.1888 0.520117 38.6929L10.8681 54.5094C11.4849 55.4536 12.5534 56 13.6642 56C13.979 56 14.2955 55.9563 14.6068 55.8653L44.6442 47.0995C45.0964 46.9688 45.5149 46.7438 45.8713 46.4398C46.2278 46.1357 46.5139 45.7598 46.7105 45.3372C46.9045 44.9171 47.0034 44.4604 47.0003 43.9987C46.9972 43.5371 46.8923 43.0821 46.6927 42.6645Z" fill="#0C344B"/>
</svg>
