<svg viewBox="0 0 68 67" fill="none" xmlns="http://www.w3.org/2000/svg">
<path d="M33.518 40.1999C31.1623 40.1999 28.8594 39.5013 26.9006 38.1925C24.9418 36.8837 23.4151 35.0234 22.5136 32.847C21.6121 30.6705 21.3762 28.2756 21.8358 25.9651C22.2954 23.6545 23.4298 21.5322 25.0956 19.8664C26.7614 18.2006 28.8838 17.0662 31.1943 16.6066C33.5048 16.147 35.8998 16.3828 38.0762 17.2844C40.2527 18.1859 42.113 19.7126 43.4218 21.6713C44.7306 23.6301 45.4291 25.933 45.4291 28.2888C45.4291 31.4478 44.1742 34.4775 41.9405 36.7112C39.7067 38.945 36.6771 40.1999 33.518 40.1999ZM33.518 20.0999C31.8984 20.0999 30.3152 20.5802 28.9685 21.48C27.6219 22.3798 26.5723 23.6587 25.9525 25.155C25.3327 26.6514 25.1705 28.2979 25.4865 29.8864C25.8025 31.4749 26.5824 32.934 27.7276 34.0792C28.8729 35.2244 30.332 36.0044 31.9205 36.3203C33.509 36.6363 35.1555 36.4741 36.6518 35.8543C38.1481 35.2345 39.427 34.1849 40.3269 32.8383C41.2267 31.4916 41.7069 29.9084 41.7069 28.2888C41.7069 26.117 40.8442 24.0341 39.3085 22.4984C37.7727 20.9627 35.6899 20.0999 33.518 20.0999V20.0999Z" />
<path d="M15.4652 60.6426C15.1892 60.6426 14.9167 60.5813 14.6673 60.463C14.4179 60.3447 14.198 60.1725 14.0234 59.9587C13.8488 59.7449 13.7239 59.495 13.6579 59.227C13.5918 58.959 13.5862 58.6797 13.6414 58.4092C14.586 53.7879 17.0837 49.6291 20.7193 46.6238C24.3549 43.6186 28.9094 41.948 33.6259 41.8898C38.3425 41.8315 42.9369 43.389 46.6456 46.3035C50.3544 49.218 52.954 53.3139 54.0126 57.9105C54.1047 58.3843 54.0092 58.8753 53.7462 59.2801C53.4832 59.6848 53.0732 59.9715 52.6028 60.0797C52.1324 60.1878 51.6384 60.109 51.225 59.8599C50.8116 59.6107 50.5112 59.2107 50.3871 58.7442C49.5196 54.9755 47.3884 51.6171 44.3478 49.2274C41.3071 46.8376 37.5401 45.5606 33.6731 45.6084C29.8061 45.6562 26.0718 47.0261 23.0912 49.4903C20.1106 51.9545 18.0631 55.3646 17.2891 59.1537C17.2033 59.5741 16.9749 59.9519 16.6426 60.2232C16.3102 60.4945 15.8943 60.6427 15.4652 60.6426Z" />
<path d="M33.5181 67C28.2348 67.0002 23.0264 65.7508 18.3182 63.3538C13.61 60.9569 9.53545 57.4803 6.42731 53.208C3.31917 48.9358 1.26557 43.9889 0.434208 38.7715C-0.397158 33.5541 0.017285 28.214 1.64369 23.1873C3.2701 18.1606 6.06236 13.5899 9.79245 9.8483C13.5225 6.10675 18.0847 3.30048 23.1064 1.65865C28.128 0.0168201 33.4668 -0.414009 38.6868 0.40134C43.9067 1.21669 48.8599 3.2551 53.1416 6.35011C53.3735 6.47769 53.5755 6.65325 53.7342 6.86509C53.8928 7.07692 54.0044 7.32016 54.0616 7.57856C54.1188 7.83697 54.1202 8.10459 54.0658 8.36359C54.0113 8.62258 53.9023 8.86699 53.7459 9.08049C53.5895 9.294 53.3894 9.47169 53.1589 9.60172C52.9284 9.73174 52.6728 9.81111 52.4091 9.83453C52.1455 9.85794 51.8799 9.82486 51.6301 9.7375C51.3803 9.65013 51.152 9.51049 50.9604 9.32789C44.9788 5.02196 37.6129 3.0873 30.2874 3.89812C22.9618 4.70895 16.1973 8.20764 11.3022 13.7175C6.40702 19.2273 3.72913 26.3567 3.78645 33.7267C3.84378 41.0968 6.63225 48.1837 11.6125 53.6167C16.5928 59.0497 23.4109 62.4428 30.7482 63.1395C38.0854 63.8363 45.4204 61.7873 51.3343 57.3888C57.2481 52.9904 61.3207 46.555 62.7643 39.3275C64.2079 32.1 62.9198 24.594 59.1493 18.2612C58.9077 17.8372 58.8423 17.3353 58.9672 16.8635C59.092 16.3917 59.3972 15.9879 59.817 15.739C60.2367 15.4901 60.7375 15.416 61.2113 15.5327C61.6852 15.6494 62.0943 15.9475 62.3504 16.3629C65.3801 21.4518 67.0066 27.253 67.064 33.1753C67.1214 39.0976 65.6077 44.9292 62.6772 50.0759C59.7467 55.2227 55.5041 59.5005 50.3818 62.4735C45.2595 65.4465 39.4406 67.0084 33.5181 67V67Z" />
<path d="M57.2584 14.4421C56.9928 14.4448 56.7297 14.3904 56.4869 14.2825C56.2442 14.1746 56.0274 14.0158 55.8514 13.8168C55.5387 13.4644 55.2186 13.1195 54.8911 12.782C54.7188 12.607 54.5828 12.3996 54.491 12.1718C54.3992 11.9439 54.3535 11.7002 54.3563 11.4546C54.3592 11.209 54.4107 10.9664 54.5077 10.7408C54.6048 10.5152 54.7456 10.311 54.9219 10.14C55.0983 9.96907 55.3068 9.83472 55.5353 9.74471C55.7638 9.6547 56.0079 9.61081 56.2535 9.61559C56.499 9.62036 56.7412 9.67369 56.9661 9.77251C57.191 9.87133 57.394 10.0137 57.5636 10.1914C57.9309 10.5685 58.2882 10.9557 58.6356 11.3527C58.8715 11.6212 59.025 11.9518 59.078 12.3052C59.131 12.6586 59.0811 13.0198 58.9342 13.3456C58.7874 13.6714 58.5499 13.9481 58.2501 14.1425C57.9503 14.337 57.6009 14.441 57.2435 14.4421H57.2584Z" />
</svg>
