<svg viewBox="0 0 64 67" fill="none" xmlns="http://www.w3.org/2000/svg">
<path d="M62.481 20.709C62.3238 20.6304 60.5948 20.0803 58.7872 21.4164C55.8792 23.4598 54.386 28.8041 54.3074 37.3706L49.6705 42.0076L50.535 38.0779C51.1637 35.3272 49.9848 33.5196 48.5702 32.8909C47.2341 32.3407 45.2693 32.6551 43.9332 34.6985C42.1256 37.5278 39.8464 45.1513 39.7678 45.4656C39.7678 45.5442 39.6892 45.7014 39.6892 45.78V56.5471H38.196C37.5672 56.5471 37.0171 57.0973 37.0171 57.726V65.6639C37.0171 66.2926 37.5672 66.8427 38.196 66.8427H54.0716C54.7004 66.8427 55.2505 66.2926 55.2505 65.6639V57.726C55.2505 57.0973 54.7004 56.5471 54.0716 56.5471H52.5784V54.1894C54.2288 52.6175 60.9092 45.9372 62.7954 44.051C63.0311 43.8152 63.1097 43.5008 63.1097 43.1864V21.8093C63.2669 21.3378 62.9526 20.8662 62.481 20.709ZM52.8927 64.485H39.3749V58.9049H52.8927V64.485ZM60.9092 42.7149C58.3156 45.3084 50.6922 52.8533 50.6922 52.8533C50.4564 53.0891 50.3778 53.4035 50.3778 53.7178V56.6257H42.047V46.0158C42.3614 44.9155 44.4048 38.3137 45.898 35.956C46.3696 35.17 47.0769 34.8557 47.6271 35.0128C48.1772 35.2486 48.5702 36.1131 48.2558 37.5278L46.4482 45.4656C46.3696 46.0158 46.6054 46.4873 46.9983 46.7231C47.4699 46.9589 48.02 46.8803 48.413 46.4873L56.2722 38.6281C56.508 38.3923 56.5866 38.0779 56.5866 37.7636C56.5866 27.3108 58.7086 24.1671 59.966 23.224C60.2804 22.9882 60.5948 22.831 60.8306 22.831V42.7149H60.9092Z" />
<path d="M24.9924 56.5472H23.4991V45.8586C23.4991 45.78 23.4991 45.6228 23.4205 45.5442C23.3419 45.2299 21.0627 37.6064 19.2551 34.7771C17.9191 32.7337 16.0328 32.4193 14.6182 32.9695C13.1249 33.5982 11.946 35.4058 12.6534 38.1566L13.5965 42.0862L8.95953 37.4492C8.88093 28.8827 7.38768 23.5384 4.47976 21.495C2.59355 20.1589 0.943108 20.7091 0.785923 20.7877C0.314369 20.9448 0 21.4164 0 21.8879V43.2651C0 43.658 0.157184 43.9724 0.471554 44.2082C2.75073 46.0158 9.11671 52.6961 10.61 54.268V56.7044H9.11671C8.48797 56.7044 7.93782 57.2545 7.93782 57.8832V65.8211C7.93782 66.4498 8.48797 66.9999 9.11671 66.9999H24.9924C25.6211 66.9999 26.1712 66.4498 26.1712 65.8211V57.726C26.1712 57.0973 25.6211 56.5472 24.9924 56.5472ZM12.5748 52.8533C12.2604 52.539 5.26569 45.2299 2.27918 42.6363V22.9882C2.51495 23.0668 2.75073 23.1454 3.0651 23.3812C4.32258 24.3243 6.52316 27.3894 6.52316 37.9208C6.52316 38.2352 6.68035 38.5495 6.83753 38.7853L14.6968 46.6445C15.0897 47.0375 15.6399 47.1161 16.1114 46.8803C16.583 46.6445 16.8188 46.0944 16.6616 45.6228L14.854 37.685C14.5396 36.2703 14.9325 35.4058 15.4827 35.1701C16.0328 34.9343 16.6616 35.3272 17.2117 36.1132C18.705 38.4709 20.7484 44.9941 21.0627 46.173V56.7829H12.8891V53.875C12.8891 53.4035 12.8105 53.0891 12.5748 52.8533ZM23.8135 64.485H10.2956V58.9049H23.8135V64.485V64.485Z" />
<path d="M32.7727 35.7202L48.727 28.4897C49.1199 28.3325 49.4343 27.861 49.4343 27.3894V8.52727C49.4343 8.44868 49.4343 8.37008 49.4343 8.29149V8.2129C49.4343 8.13431 49.3557 8.13431 49.3557 8.05571V7.97712C49.3557 7.89853 49.2771 7.81994 49.1985 7.81994C49.1199 7.74134 49.0414 7.66275 48.9628 7.66275C48.9628 7.66275 48.9628 7.66275 48.8842 7.66275C48.8842 7.66275 48.8056 7.58416 48.727 7.58416L32.0654 0.117889C31.751 -0.0392962 31.4367 -0.0392962 31.1223 0.117889L14.3821 7.34838C14.3035 7.34838 14.3035 7.42698 14.225 7.42698C14.225 7.42698 14.2249 7.42698 14.1464 7.42698C14.0678 7.50557 13.9892 7.50557 13.9106 7.58416C13.9106 7.58416 13.9106 7.58416 13.9106 7.66275C13.832 7.74134 13.832 7.74134 13.832 7.81994C13.832 7.81994 13.832 7.89853 13.7534 7.89853C13.7534 7.97712 13.6748 7.97712 13.6748 8.05571V8.13431C13.6748 8.2129 13.6748 8.29149 13.6748 8.37008V25.9748C13.6748 26.4463 13.9106 26.8393 14.3035 26.9965L31.751 35.563C31.8296 35.563 31.8296 35.563 31.9082 35.6416H31.9868C32.0654 35.6416 32.2226 35.7202 32.3012 35.7202C32.3798 35.7202 32.4584 35.7202 32.6156 35.6416H32.6941C32.7727 35.7202 32.7727 35.7202 32.7727 35.7202ZM17.9188 8.44867L24.5991 5.54076L37.9598 11.9067L32.3012 14.5003L17.9188 8.44867ZM47.1551 26.6035L33.5587 32.8123V16.5437L47.1551 10.3349V26.6035ZM31.5939 2.47566L45.4261 8.52727L40.7892 10.6493L27.5071 4.36187L31.5939 2.47566ZM16.0326 10.2563L31.1223 16.5437V32.7337L16.0326 25.346V10.2563Z" />
</svg>
