<svg viewBox="0 0 63 68" fill="none" xmlns="http://www.w3.org/2000/svg">
<path d="M1.9441 4.8441L8.7441 3.2441L19.0441 47.1441C18.6441 47.1441 18.1441 47.2441 17.7441 47.3441C15.1441 47.9441 12.9441 49.5441 11.5441 51.8441C10.1441 54.1441 9.7441 56.7441 10.3441 59.3441C11.4441 63.9441 15.5441 67.0441 20.0441 67.0441C20.8441 67.0441 21.5441 66.9441 22.3441 66.7441C24.9441 66.1441 27.1441 64.5441 28.5441 62.2441C29.1441 61.2441 29.5441 60.2441 29.8441 59.1441L53.5441 53.5441L60.0441 57.3441C60.7441 57.7441 61.6441 57.5441 62.1441 56.8441C62.5441 56.1441 62.3441 55.2441 61.6441 54.7441L54.6441 50.5441C54.3441 50.3441 53.9441 50.2441 53.5441 50.3441L29.9441 56.1441C29.9441 55.7441 29.8441 55.2441 29.7441 54.8441C29.6441 54.4441 29.5441 53.9441 29.3441 53.5441L55.4441 47.4441C56.2441 47.2441 56.7441 46.4441 56.5441 45.6441L50.7441 20.8441C50.5441 20.0441 49.7441 19.5441 48.9441 19.7441L42.1441 21.3441L39.2441 9.0441C39.1441 8.6441 38.9441 8.3441 38.5441 8.1441C38.2441 7.9441 37.7441 7.8441 37.4441 7.9441L31.2441 9.4441C30.4441 9.6441 29.9441 10.4441 30.1441 11.2441C30.3441 12.0441 31.1441 12.5441 31.9441 12.3441L36.6441 11.1441L39.1441 21.9441L22.8441 25.7441L20.3441 14.9441L25.6441 13.6441C26.4441 13.4441 26.9441 12.6441 26.7441 11.8441C26.5441 11.0441 25.7441 10.5441 24.9441 10.7441L18.2441 12.3441C17.4441 12.5441 16.9441 13.3441 17.1441 14.1441L20.3441 27.9441L25.1441 48.5441C24.2441 47.9441 23.2441 47.5441 22.1441 47.3441L11.2441 1.1441C11.0441 0.344101 10.2441 -0.155899 9.4441 0.0441011L1.1441 1.9441C0.344101 2.1441 -0.155899 2.9441 0.0441011 3.7441C0.244101 4.5441 1.0441 5.0441 1.9441 4.8441ZM48.1441 23.0441L53.2441 44.8441L28.7441 50.6441L23.6441 28.8441L48.1441 23.0441ZM26.7441 55.5441C26.9441 56.2441 26.9441 56.9441 26.9441 57.6441C26.8441 57.8441 26.8441 58.0441 26.8441 58.2441C26.7441 59.1441 26.3441 60.0441 25.8441 60.8441C24.8441 62.4441 23.3441 63.5441 21.5441 63.9441C17.8441 64.8441 14.0441 62.4441 13.1441 58.7441C12.7441 56.9441 13.0441 55.0441 14.0441 53.4441C15.0441 51.8441 16.5441 50.7441 18.3441 50.3441C18.8441 50.2441 19.4441 50.1441 19.9441 50.1441C20.2441 50.1441 20.4441 50.1441 20.7441 50.2441C20.8441 50.2441 20.8441 50.2441 20.9441 50.2441H21.0441C23.7441 50.6441 26.1441 52.6441 26.7441 55.5441Z" />
<path d="M42.8441 44.5442C42.9441 44.5442 43.0442 44.5442 43.1442 44.5442L48.6442 43.2441C49.4442 43.0441 49.9442 42.2441 49.7442 41.4441C49.5442 40.6441 48.7441 40.1442 47.9441 40.3442L42.4442 41.6441C41.6442 41.8441 41.1441 42.6441 41.3441 43.4441C41.5441 44.0441 42.1441 44.5442 42.8441 44.5442Z" />
<path d="M28.3442 13.0442C28.4442 13.0442 28.6442 13.0442 28.7442 12.9442L28.9442 12.8442C29.7442 12.6442 30.2442 11.7442 29.9442 10.9442C29.7442 10.1442 28.8442 9.6442 28.0442 9.9442L27.9442 10.1442C27.1442 10.3442 26.6442 11.2442 26.9442 12.0442C27.0442 12.6442 27.6442 13.0442 28.3442 13.0442Z" />
</svg>
